# Blender v3.0.1 OBJ File: ''
# www.blender.org
mtllib Cassa.mtl
o Caixa.001
v 0.432945 -0.352869 -0.360691
v 0.462944 -0.352869 -0.360984
v 0.462944 0.439986 -0.360984
v 0.432945 0.439986 -0.360691
v 0.432946 0.439986 -0.360578
v 0.462945 0.439986 -0.360870
v 0.462945 0.359986 -0.360870
v 0.432946 0.359986 -0.360578
v 0.439904 -0.432907 0.352042
v 0.469903 -0.432907 0.351750
v 0.469903 -0.352907 0.351750
v 0.439904 -0.352907 0.352042
v 0.462162 -0.352907 -0.440979
v 0.432164 -0.352907 -0.440687
v 0.439905 0.360157 0.352168
v 0.469904 0.360157 0.351875
v 0.469904 -0.432907 0.351874
v 0.439905 -0.432907 0.352168
v 0.462162 -0.432907 -0.440979
v 0.470685 0.360157 0.431871
v 0.470685 -0.432907 0.431871
v 0.470685 0.439986 0.431871
v 0.470685 0.359986 0.431871
v -0.439905 -0.352869 -0.352168
v -0.439905 0.439986 -0.352168
v -0.469904 0.439986 -0.351874
v -0.469904 -0.352869 -0.351875
v -0.439905 0.439986 -0.352055
v -0.439905 0.359986 -0.352055
v -0.469903 0.359986 -0.351762
v -0.469903 0.439986 -0.351762
v -0.432164 0.359986 0.440687
v -0.462162 0.359986 0.440979
v -0.432946 -0.432907 0.360565
v -0.432946 -0.352907 0.360565
v -0.462945 -0.352907 0.360858
v -0.462945 -0.432907 0.360858
v -0.432945 0.360157 0.360691
v -0.432945 -0.432907 0.360691
v -0.462944 -0.432907 0.360984
v -0.462944 0.360157 0.360984
v -0.432164 0.360157 0.440687
v -0.462162 0.360157 0.440979
v -0.470685 -0.352907 -0.431871
v -0.470685 -0.432907 -0.431871
v -0.462162 -0.432907 0.440979
v -0.462162 0.439986 0.440979
v -0.440685 -0.432907 -0.432165
v 0.352044 -0.432907 -0.439906
v 0.352044 -0.352907 -0.439906
v -0.440685 -0.352907 -0.432165
v -0.360689 -0.352869 -0.432947
v -0.360982 -0.352869 -0.462945
v -0.360982 0.439986 -0.462945
v -0.360689 0.439986 -0.432947
v -0.440979 -0.352907 -0.462164
v -0.440979 -0.432907 -0.462164
v -0.360577 0.439986 -0.432947
v -0.360869 0.439986 -0.462947
v -0.360869 0.359986 -0.462947
v -0.360577 0.359986 -0.432947
v 0.431872 0.359986 -0.470687
v 0.432166 0.359986 -0.440688
v 0.351751 -0.432907 -0.469904
v 0.351751 -0.352907 -0.469904
v -0.440979 0.439986 -0.462164
v -0.440685 0.439986 -0.432165
v 0.352169 0.360157 -0.439907
v 0.351876 0.360157 -0.469905
v 0.351876 -0.432907 -0.469905
v 0.352169 -0.432907 -0.439907
v 0.432166 0.360157 -0.440688
v 0.431872 0.360157 -0.470687
v 0.431872 -0.432907 -0.470687
v 0.431872 0.439986 -0.470687
v 0.440688 0.439986 0.432163
v 0.440688 0.359986 0.432163
v -0.352054 0.359986 0.439903
v -0.352054 0.439986 0.439903
v -0.432163 -0.432907 0.440685
v -0.432163 -0.352907 0.440685
v 0.360566 -0.352907 0.432945
v 0.360566 -0.432907 0.432945
v 0.440688 -0.432907 0.432163
v 0.360692 -0.432907 0.432943
v 0.360692 0.360157 0.432943
v 0.440688 0.360157 0.432163
v -0.351760 0.439986 0.469902
v 0.440981 0.439986 0.462162
v -0.352166 -0.352869 0.439905
v -0.352166 0.439986 0.439905
v -0.351873 0.439986 0.469903
v -0.351873 -0.352869 0.469903
v -0.431870 -0.432907 0.470683
v -0.431870 -0.352907 0.470683
v -0.351760 0.359986 0.469902
v 0.440981 -0.432907 0.462162
v 0.360985 -0.432907 0.462942
v 0.440981 0.359986 0.462162
v 0.360860 -0.432907 0.462943
v 0.440981 0.360157 0.462162
v 0.360860 -0.352907 0.462943
v 0.360985 0.360157 0.462942
v -0.352947 -0.432883 0.359894
v -0.352947 -0.462883 0.359894
v -0.360689 -0.462883 -0.432923
v -0.360689 -0.432883 -0.432923
v -0.360576 -0.432883 -0.432924
v -0.360576 -0.462883 -0.432924
v -0.359795 -0.462883 -0.352927
v -0.359795 -0.432883 -0.352927
v 0.432947 -0.462883 -0.360669
v 0.432947 -0.432883 -0.360669
v 0.432945 -0.432883 -0.360840
v 0.432945 -0.462883 -0.360840
v 0.352949 -0.462883 -0.360059
v 0.352949 -0.432883 -0.360059
v 0.440688 -0.462883 0.432186
v 0.360693 -0.462883 0.432967
v 0.432165 -0.462883 -0.440664
v -0.432944 -0.462883 0.360675
v -0.440685 -0.462883 -0.432142
v -0.432944 0.440009 0.360675
v -0.352947 0.440009 0.359894
v -0.352947 0.470009 0.359894
v -0.432944 0.470009 0.360675
v 0.360567 0.440009 0.432969
v 0.359785 0.440009 0.352973
v 0.359785 0.470009 0.352973
v 0.360567 0.470009 0.432969
v 0.352949 0.440009 -0.360059
v 0.360692 0.440009 0.432968
v 0.360692 0.470009 0.432968
v 0.352949 0.470009 -0.360059
v 0.432945 0.440009 -0.360840
v 0.432945 0.470009 -0.360840
v 0.440688 0.470009 0.432186
v -0.360576 0.470009 -0.432924
v -0.359795 0.470009 -0.352927
v 0.432947 0.470009 -0.360669
v 0.432165 0.470009 -0.440664
v -0.360689 0.470009 -0.432923
v -0.440685 0.470009 -0.432142
v 0.432166 -0.432907 -0.440688
v 0.432166 0.439986 -0.440688
v 0.462162 0.439986 -0.440979
v -0.432163 0.439986 0.440685
v -0.470685 0.439986 -0.431871
v -0.431870 0.439986 0.470684
v 0.359786 -0.432883 0.352972
v -0.432162 -0.462883 0.440709
v 0.360567 -0.462883 0.432969
v 0.359786 -0.462883 0.352972
v -0.359795 0.440009 -0.352927
v -0.432162 0.470009 0.440709
vt 0.883160 0.513138
vt 0.892326 0.513138
vt 0.892326 0.755380
vt 0.883160 0.755380
vt 0.264688 0.830321
vt 0.255522 0.830321
vt 0.255522 0.805879
vt 0.264688 0.805879
vt 0.820145 0.798368
vt 0.829311 0.798368
vt 0.829311 0.822810
vt 0.820145 0.822810
vt 0.243044 0.986030
vt 0.243044 0.995196
vt 0.000827 0.995195
vt 0.000827 0.986030
vt 0.859864 0.511483
vt 0.850698 0.511483
vt 0.850698 0.269178
vt 0.859864 0.269178
vt 0.511393 0.901314
vt 0.269178 0.901315
vt 0.269178 0.876872
vt 0.511393 0.876872
vt 0.641918 0.511483
vt 0.641918 0.269178
vt 0.666361 0.269178
vt 0.666361 0.511483
vt 0.513052 0.798573
vt 0.755271 0.798573
vt 0.755271 0.823015
vt 0.513052 0.823015
vt 0.892326 0.269178
vt 0.892327 0.511420
vt 0.883161 0.511420
vt 0.883161 0.269178
vt 0.244701 0.830321
vt 0.244701 0.805879
vt 0.253867 0.805879
vt 0.253867 0.830321
vt 0.000827 0.953567
vt 0.243050 0.953567
vt 0.243050 0.962733
vt 0.000827 0.962733
vt 0.829311 0.824465
vt 0.829311 0.848907
vt 0.820145 0.848907
vt 0.820145 0.824465
vt 0.842797 0.243133
vt 0.842797 0.000827
vt 0.851963 0.000827
vt 0.851963 0.243133
vt 0.818490 0.781436
vt 0.794047 0.781436
vt 0.794047 0.772270
vt 0.818490 0.772270
vt 0.755267 0.876865
vt 0.755267 0.901308
vt 0.513052 0.901308
vt 0.513052 0.876865
vt 0.692458 0.511483
vt 0.668016 0.511483
vt 0.668016 0.269178
vt 0.692458 0.269178
vt 0.000827 0.830321
vt 0.000827 0.805879
vt 0.243046 0.805879
vt 0.243046 0.830321
vt 0.243042 0.882516
vt 0.000827 0.882516
vt 0.000827 0.858073
vt 0.243042 0.858074
vt 0.886081 0.000827
vt 0.895247 0.000827
vt 0.895247 0.243069
vt 0.886081 0.243069
vt 0.850952 0.796713
vt 0.841786 0.796713
vt 0.841786 0.772270
vt 0.850952 0.772270
vt 0.818490 0.829175
vt 0.809324 0.829175
vt 0.809324 0.804733
vt 0.818490 0.804733
vt 0.511305 0.978731
vt 0.511305 0.987897
vt 0.269085 0.987896
vt 0.269085 0.978731
vt 0.999136 0.902974
vt 0.999136 0.912140
vt 0.756922 0.912140
vt 0.756922 0.902974
vt 0.830965 0.798368
vt 0.840131 0.798368
vt 0.840131 0.822810
vt 0.830965 0.822810
vt 0.756926 0.807739
vt 0.756926 0.798573
vt 0.781368 0.798573
vt 0.781368 0.807739
vt 0.269085 0.998717
vt 0.269085 0.989551
vt 0.511302 0.989552
vt 0.511302 0.998717
vt 0.841142 0.243133
vt 0.831976 0.243133
vt 0.831976 0.000827
vt 0.841142 0.000827
vt 0.783227 0.818354
vt 0.783227 0.809189
vt 0.807669 0.809189
vt 0.807669 0.818354
vt 0.000827 0.884171
vt 0.243042 0.884171
vt 0.243042 0.908613
vt 0.000827 0.908613
vt 0.537528 0.511483
vt 0.537528 0.269178
vt 0.561971 0.269178
vt 0.561971 0.511483
vt 0.755357 0.640333
vt 0.513138 0.640334
vt 0.513138 0.615891
vt 0.755357 0.615891
vt 0.513052 0.796918
vt 0.513052 0.772476
vt 0.755271 0.772476
vt 0.755271 0.796918
vt 0.755267 0.850768
vt 0.755267 0.875210
vt 0.513052 0.875210
vt 0.513052 0.850768
vt 0.694113 0.269178
vt 0.718556 0.269178
vt 0.718556 0.511483
vt 0.694113 0.511483
vt 0.000827 0.975209
vt 0.243045 0.975209
vt 0.243045 0.984375
vt 0.000827 0.984375
vt 0.903147 0.269178
vt 0.903147 0.511420
vt 0.893981 0.511420
vt 0.893981 0.269178
vt 0.820145 0.796713
vt 0.820145 0.772270
vt 0.829311 0.772270
vt 0.829311 0.796713
vt 0.783227 0.781436
vt 0.783227 0.756994
vt 0.792392 0.756994
vt 0.792392 0.781436
vt 0.818490 0.770616
vt 0.794047 0.770616
vt 0.794047 0.761450
vt 0.818490 0.761450
vt 0.755274 0.955438
vt 0.513052 0.955438
vt 0.513052 0.946272
vt 0.755274 0.946272
vt 0.755269 0.987901
vt 0.513052 0.987901
vt 0.513052 0.978735
vt 0.755269 0.978735
vt 0.859864 0.513138
vt 0.859864 0.755443
vt 0.850698 0.755443
vt 0.850698 0.513138
vt 0.840131 0.772270
vt 0.840131 0.796713
vt 0.830965 0.796713
vt 0.830965 0.772270
vt 0.756922 0.866044
vt 0.999136 0.866044
vt 0.999136 0.875210
vt 0.756922 0.875210
vt 0.853618 0.243133
vt 0.853618 0.000827
vt 0.862784 0.000827
vt 0.862784 0.243133
vt 0.792392 0.783091
vt 0.792392 0.807534
vt 0.783227 0.807534
vt 0.783227 0.783091
vt 0.756926 0.809394
vt 0.781368 0.809394
vt 0.781368 0.818560
vt 0.756926 0.818560
vt 0.269178 0.849120
vt 0.269178 0.824678
vt 0.511392 0.824677
vt 0.511392 0.849120
vt 0.614166 0.511483
vt 0.589723 0.511483
vt 0.589723 0.269178
vt 0.614166 0.269178
vt 0.511396 0.746385
vt 0.511396 0.770828
vt 0.269178 0.770828
vt 0.269178 0.746385
vt 0.755294 0.935451
vt 0.755294 0.944617
vt 0.513052 0.944617
vt 0.513052 0.935452
vt 0.756926 0.796918
vt 0.756926 0.787752
vt 0.781368 0.787752
vt 0.781368 0.796918
vt 0.511305 0.967910
vt 0.511305 0.977076
vt 0.269085 0.977075
vt 0.269085 0.967910
vt 0.756926 0.840201
vt 0.756926 0.831035
vt 0.781368 0.831035
vt 0.781368 0.840201
vt 0.269178 0.641988
vt 0.511483 0.641988
vt 0.511483 0.666431
vt 0.269178 0.666431
vt 0.755357 0.666431
vt 0.513138 0.666431
vt 0.513138 0.641988
vt 0.755357 0.641989
vt 0.755373 0.718626
vt 0.513131 0.718626
vt 0.513131 0.694183
vt 0.755373 0.694183
vt 0.718570 0.533132
vt 0.694128 0.533132
vt 0.694128 0.523966
vt 0.718570 0.523966
vt 0.818490 0.803078
vt 0.794047 0.803078
vt 0.794047 0.793912
vt 0.818490 0.793912
vt 0.269085 0.924626
vt 0.511390 0.924626
vt 0.511390 0.933792
vt 0.269085 0.933792
vt 0.783227 0.830830
vt 0.807669 0.830830
vt 0.807669 0.839996
vt 0.783227 0.839996
vt 0.269178 0.640334
vt 0.269178 0.615891
vt 0.511483 0.615891
vt 0.511483 0.640334
vt 0.511396 0.798580
vt 0.511396 0.823022
vt 0.269178 0.823022
vt 0.269178 0.798580
vt 0.755328 0.537528
vt 0.755328 0.561971
vt 0.513086 0.561971
vt 0.513086 0.537529
vt 0.267523 0.535873
vt 0.000827 0.535873
vt 0.000827 0.269178
vt 0.267523 0.269178
vt 0.755355 0.692529
vt 0.513138 0.692529
vt 0.513138 0.668086
vt 0.755355 0.668086
vt 0.513052 0.824671
vt 0.755268 0.824670
vt 0.755268 0.849113
vt 0.513053 0.849113
vt 0.744653 0.269178
vt 0.744652 0.511483
vt 0.720210 0.511483
vt 0.720210 0.269178
vt 0.772405 0.511430
vt 0.772405 0.269178
vt 0.796848 0.269189
vt 0.796848 0.511430
vt 0.243044 0.964388
vt 0.243045 0.973554
vt 0.000827 0.973554
vt 0.000827 0.964388
vt 0.884426 0.243080
vt 0.875260 0.243080
vt 0.875260 0.000827
vt 0.884426 0.000827
vt 0.840131 0.848907
vt 0.830965 0.848907
vt 0.830965 0.824465
vt 0.840131 0.824465
vt 0.805879 0.253902
vt 0.805879 0.244736
vt 0.830321 0.244736
vt 0.830321 0.253902
vt 0.756926 0.829380
vt 0.756926 0.820215
vt 0.781368 0.820215
vt 0.781368 0.829380
vt 0.513052 0.977080
vt 0.513052 0.967914
vt 0.755272 0.967914
vt 0.755271 0.977080
vt 0.756922 0.864389
vt 0.756922 0.855224
vt 0.999139 0.855224
vt 0.999139 0.864389
vt 0.861519 0.513138
vt 0.870684 0.513138
vt 0.870685 0.755440
vt 0.861519 0.755440
vt 0.692478 0.513138
vt 0.692478 0.522304
vt 0.668036 0.522303
vt 0.668035 0.513138
vt 0.841786 0.824465
vt 0.850952 0.824465
vt 0.850952 0.848907
vt 0.841786 0.848907
vt 0.807669 0.820010
vt 0.807669 0.829175
vt 0.783227 0.829175
vt 0.783227 0.820009
vt 0.796848 0.513086
vt 0.796848 0.755339
vt 0.772405 0.755339
vt 0.772405 0.513097
vt 0.267523 0.804224
vt 0.000827 0.804224
vt 0.000827 0.537528
vt 0.267523 0.537528
vt 0.755270 0.746378
vt 0.755271 0.770821
vt 0.513052 0.770821
vt 0.513052 0.746378
vt 0.000827 0.856419
vt 0.000827 0.831976
vt 0.243042 0.831976
vt 0.243042 0.856419
vt 0.563626 0.269178
vt 0.588068 0.269178
vt 0.588068 0.511483
vt 0.563626 0.511483
vt 0.770750 0.511431
vt 0.746308 0.511431
vt 0.746307 0.269189
vt 0.770750 0.269178
vt 0.511301 0.955434
vt 0.269085 0.955433
vt 0.269085 0.946267
vt 0.511301 0.946267
vt 0.864439 0.243078
vt 0.864439 0.000827
vt 0.873605 0.000827
vt 0.873605 0.243078
vt 0.761584 0.781488
vt 0.761584 0.757046
vt 0.770750 0.757046
vt 0.770750 0.781488
vt 0.641932 0.523966
vt 0.666375 0.523966
vt 0.666375 0.533132
vt 0.641933 0.533132
vt 0.668030 0.523966
vt 0.692472 0.523966
vt 0.692473 0.533132
vt 0.668030 0.533132
vt 0.513052 0.957093
vt 0.755267 0.957094
vt 0.755267 0.966260
vt 0.513053 0.966260
vt 0.770750 0.513086
vt 0.770750 0.755391
vt 0.761584 0.755391
vt 0.761584 0.513086
vt 0.640278 0.533132
vt 0.615835 0.533132
vt 0.615835 0.523966
vt 0.640278 0.523966
vt 0.243045 0.951912
vt 0.000827 0.951912
vt 0.000828 0.942746
vt 0.243045 0.942746
vt 0.781571 0.756994
vt 0.781572 0.781436
vt 0.772405 0.781436
vt 0.772405 0.756994
vt 0.824601 0.269178
vt 0.849043 0.269189
vt 0.849043 0.511431
vt 0.824601 0.511431
vt 0.537528 0.267523
vt 0.537528 0.000827
vt 0.804224 0.000827
vt 0.804224 0.267523
vt 0.269178 0.772483
vt 0.511397 0.772483
vt 0.511397 0.796925
vt 0.269178 0.796925
vt 0.640263 0.269178
vt 0.640263 0.511483
vt 0.615821 0.511483
vt 0.615821 0.269178
vt 0.798503 0.755339
vt 0.798503 0.513085
vt 0.822946 0.513097
vt 0.822946 0.755339
vt 0.269085 0.966255
vt 0.269085 0.957089
vt 0.511307 0.957089
vt 0.511307 0.966255
vt 0.881505 0.755391
vt 0.872339 0.755391
vt 0.872339 0.513138
vt 0.881505 0.513138
vt 0.614177 0.513138
vt 0.614178 0.522304
vt 0.589736 0.522307
vt 0.589734 0.513141
vt 0.744667 0.523966
vt 0.744667 0.533132
vt 0.720225 0.533132
vt 0.720225 0.523966
vt 0.861519 0.269178
vt 0.870685 0.269178
vt 0.870685 0.511483
vt 0.861519 0.511483
vt 0.841786 0.798368
vt 0.850952 0.798368
vt 0.850952 0.822810
vt 0.841786 0.822810
vt 0.849043 0.513086
vt 0.849043 0.755340
vt 0.824601 0.755340
vt 0.824601 0.513098
vt 0.267523 0.267523
vt 0.000827 0.267523
vt 0.000827 0.000827
vt 0.267523 0.000827
vt 0.830321 0.243081
vt 0.805879 0.243081
vt 0.805879 0.000839
vt 0.830321 0.000827
vt 0.872339 0.511431
vt 0.872340 0.269178
vt 0.881506 0.269178
vt 0.881505 0.511431
vt 0.830321 0.264723
vt 0.805879 0.264723
vt 0.805879 0.255557
vt 0.830321 0.255557
vt 0.794047 0.783091
vt 0.818490 0.783091
vt 0.818490 0.792257
vt 0.794047 0.792257
vt 0.798503 0.269178
vt 0.822946 0.269189
vt 0.822946 0.511431
vt 0.798503 0.511431
vt 0.269178 0.000827
vt 0.535873 0.000827
vt 0.535873 0.267523
vt 0.269178 0.267523
vt 0.513047 0.563673
vt 0.755266 0.563680
vt 0.755266 0.588123
vt 0.513047 0.588123
vt 0.511393 0.875217
vt 0.269178 0.875217
vt 0.269178 0.850782
vt 0.511393 0.850775
vt 0.511477 0.718626
vt 0.269178 0.718626
vt 0.269178 0.694183
vt 0.511477 0.694183
vt 0.269178 0.537576
vt 0.511431 0.537528
vt 0.511431 0.561971
vt 0.269190 0.562018
vt 0.513052 0.998715
vt 0.513052 0.989556
vt 0.755272 0.989556
vt 0.755272 0.998722
vt 0.756922 0.896845
vt 0.756929 0.887686
vt 0.999168 0.887686
vt 0.999173 0.896845
vt 0.783231 0.850810
vt 0.783227 0.841651
vt 0.807680 0.841651
vt 0.807673 0.850810
vt 0.666380 0.513145
vt 0.666380 0.522304
vt 0.641937 0.522304
vt 0.641938 0.513138
vt 0.781368 0.841856
vt 0.781368 0.851015
vt 0.756926 0.851015
vt 0.756926 0.841856
vt 0.999137 0.957093
vt 0.999137 0.966252
vt 0.756922 0.966252
vt 0.756922 0.957093
vt 0.243125 0.931932
vt 0.243132 0.941091
vt 0.000827 0.941091
vt 0.000827 0.931925
vt 0.844580 0.761457
vt 0.844587 0.770616
vt 0.820145 0.770616
vt 0.820145 0.761450
vt 0.720225 0.522311
vt 0.720225 0.513145
vt 0.744667 0.513145
vt 0.744667 0.522304
vt 0.756922 0.886031
vt 0.756922 0.876865
vt 0.999137 0.876865
vt 0.999137 0.886024
vt 0.269085 0.944613
vt 0.269085 0.935447
vt 0.511390 0.935447
vt 0.511383 0.944605
vt 0.640283 0.513138
vt 0.640283 0.522304
vt 0.615840 0.522304
vt 0.615833 0.513145
vt 0.269178 0.589782
vt 0.511393 0.589782
vt 0.511393 0.614236
vt 0.269178 0.614225
vt 0.269178 0.269178
vt 0.535873 0.269178
vt 0.535873 0.535873
vt 0.269178 0.535873
vt 0.269178 0.744724
vt 0.269179 0.720281
vt 0.511397 0.720281
vt 0.511397 0.744730
vt 0.755262 0.589789
vt 0.755263 0.614236
vt 0.513048 0.614232
vt 0.513047 0.589789
vt 0.511477 0.668086
vt 0.511484 0.692528
vt 0.269178 0.692528
vt 0.269178 0.668086
vt 0.513052 0.744723
vt 0.513052 0.720281
vt 0.755301 0.720281
vt 0.755301 0.744723
vt 0.269085 0.913797
vt 0.511307 0.913798
vt 0.511307 0.922971
vt 0.269085 0.922970
vt 0.513052 0.913795
vt 0.755298 0.913802
vt 0.755298 0.922968
vt 0.513059 0.922968
vt 0.243074 0.919434
vt 0.000827 0.919442
vt 0.000835 0.910268
vt 0.243074 0.910268
vt 0.537528 0.513145
vt 0.561975 0.513138
vt 0.561982 0.522311
vt 0.537528 0.522311
vt 0.537528 0.523966
vt 0.561978 0.523975
vt 0.561977 0.533141
vt 0.537535 0.533139
vt 0.588080 0.522304
vt 0.563637 0.522311
vt 0.563637 0.513138
vt 0.588080 0.513138
vt 0.243047 0.930270
vt 0.000828 0.930270
vt 0.000827 0.921097
vt 0.243047 0.921104
vt 0.755268 0.933797
vt 0.513052 0.933789
vt 0.513052 0.924623
vt 0.755268 0.924624
vt 0.511386 0.912143
vt 0.269085 0.912135
vt 0.269085 0.902970
vt 0.511393 0.902969
vt 0.589737 0.523966
vt 0.614180 0.523966
vt 0.614180 0.533139
vt 0.589737 0.533139
vt 0.513052 0.902974
vt 0.755266 0.902963
vt 0.755267 0.912129
vt 0.513053 0.912140
vt 0.588076 0.533139
vt 0.563633 0.533139
vt 0.563640 0.523966
vt 0.588082 0.523966
vt 0.269178 0.588127
vt 0.269178 0.563685
vt 0.511392 0.563673
vt 0.511392 0.588127
vn 0.0098 -0.0000 1.0000
vn -0.0097 0.0000 -1.0000
vn 0.0097 0.0000 1.0000
vn 0.0000 1.0000 0.0000
vn -0.0098 0.0000 -1.0000
vn 1.0000 0.0000 -0.0098
vn -0.0000 -1.0000 -0.0000
vn -1.0000 0.0000 0.0098
vn -1.0000 0.0000 0.0097
vn 0.0000 -1.0000 0.0005
vn 1.0000 -0.0000 -0.0097
vn 0.0005 -1.0000 -0.0000
vn 0.0000 1.0000 -0.0002
vn -0.0000 1.0000 0.0002
vn -0.0003 1.0000 0.0000
vn -0.0098 -0.0004 -1.0000
vn 0.0099 -0.0003 1.0000
vn 0.0098 0.0008 1.0000
vn -0.0096 -0.0004 -1.0000
vn -0.0097 0.0003 -1.0000
vn -0.0000 -1.0000 0.0001
vn 0.0000 -1.0000 -0.0001
vn -0.0001 -1.0000 -0.0000
vn -0.0098 0.0008 -1.0000
vn 0.0099 -0.0004 1.0000
vn 0.0098 -0.0004 1.0000
vn 0.0097 -0.0004 1.0000
usemtl Caixa.002
s 1
f 1/1/1 2/2/1 3/3/1 4/4/1
f 5/5/2 6/6/2 7/7/2 8/8/2
f 9/9/3 10/10/3 11/11/3 12/12/3
f 12/13/4 11/14/4 13/15/4 14/16/4
f 15/17/5 16/18/5 17/19/5 18/20/5
f 10/21/6 19/22/6 13/23/6 11/24/6
f 20/25/6 21/26/6 17/27/6 16/28/6
f 6/29/6 22/30/6 23/31/6 7/32/6
f 24/33/1 25/34/1 26/35/1 27/36/1
f 28/37/5 29/38/5 30/39/5 31/40/5
f 29/41/7 32/42/7 33/43/7 30/44/7
f 34/45/1 35/46/1 36/47/1 37/48/1
f 38/49/5 39/50/5 40/51/5 41/52/5
f 42/53/4 38/54/4 41/55/4 43/56/4
f 37/57/8 36/58/8 44/59/8 45/60/8
f 43/61/8 41/62/8 40/63/8 46/64/8
f 31/65/8 30/66/8 33/67/8 47/68/8
f 48/69/1 49/70/1 50/71/1 51/72/1
f 52/73/6 53/74/6 54/75/6 55/76/6
f 51/77/8 56/78/8 57/79/8 48/80/8
f 58/81/9 59/82/9 60/83/9 61/84/9
f 61/85/7 60/86/7 62/87/7 63/88/7
f 48/89/7 57/90/7 64/91/7 49/92/7
f 49/93/6 64/94/6 65/95/6 50/96/6
f 55/97/4 54/98/4 66/99/4 67/100/4
f 50/101/4 65/102/4 56/103/4 51/104/4
f 68/105/8 69/106/8 70/107/8 71/108/8
f 72/109/4 73/110/4 69/111/4 68/112/4
f 64/113/5 57/114/5 56/115/5 65/116/5
f 73/117/5 74/118/5 70/119/5 69/120/5
f 59/121/5 75/122/5 62/123/5 60/124/5
f 76/125/5 77/126/5 78/127/5 79/128/5
f 80/129/5 81/130/5 82/131/5 83/132/5
f 84/133/5 85/134/5 86/135/5 87/136/5
f 76/137/4 79/138/4 88/139/4 89/140/4
f 90/141/6 91/142/6 92/143/6 93/144/6
f 81/145/8 80/146/8 94/147/8 95/148/8
f 79/149/8 78/150/8 96/151/8 88/152/8
f 85/153/7 84/154/7 97/155/7 98/156/7
f 78/157/7 77/158/7 99/159/7 96/160/7
f 80/161/7 83/162/7 100/163/7 94/164/7
f 84/165/6 87/166/6 101/167/6 97/168/6
f 83/169/6 82/170/6 102/171/6 100/172/6
f 82/173/4 81/174/4 95/175/4 102/176/4
f 86/177/8 85/178/8 98/179/8 103/180/8
f 77/181/6 76/182/6 89/183/6 99/184/6
f 87/185/4 86/186/4 103/187/4 101/188/4
f 100/189/1 102/190/1 95/191/1 94/192/1
f 101/193/1 103/194/1 98/195/1 97/196/1
f 88/197/1 96/198/1 99/199/1 89/200/1
f 104/201/6 105/202/6 106/203/6 107/204/6
f 108/205/8 109/206/8 110/207/8 111/208/8
f 111/209/1 110/210/1 112/211/1 113/212/1
f 114/213/5 115/214/5 116/215/5 117/216/5
f 115/217/7 118/218/7 119/219/7 116/220/7
f 109/221/7 120/222/7 112/223/7 110/224/7
f 121/225/7 122/226/7 106/227/7 105/228/7
f 123/229/1 124/230/1 125/231/1 126/232/1
f 127/233/6 128/234/6 129/235/6 130/236/6
f 131/237/8 132/238/8 133/239/8 134/240/8
f 135/241/5 131/242/5 134/243/5 136/244/5
f 136/245/4 134/246/4 133/247/4 137/248/4
f 138/249/4 139/250/4 140/251/4 141/252/4
f 126/253/4 125/254/4 142/255/4 143/256/4
f 76/257/6 84/258/6 144/259/6 145/260/6
f 76/261/8 5/262/8 8/263/8 77/264/8
f 144/265/8 9/266/8 12/267/8 14/268/8
f 84/269/8 87/270/8 15/271/8 18/272/8
f 145/273/9 14/274/9 1/275/9 4/276/9
f 76/277/4 22/278/4 6/279/4 5/280/4
f 145/281/2 146/282/2 13/283/2 14/284/2
f 14/285/2 13/286/2 19/287/2 144/288/2
f 14/289/10 13/290/10 2/291/10 1/292/10
f 18/293/7 17/294/7 21/295/7 84/296/7
f 8/297/7 7/298/7 23/299/7 77/300/7
f 144/301/7 19/302/7 10/303/7 9/304/7
f 84/305/3 21/306/3 20/307/3 87/308/3
f 4/309/4 3/310/4 146/311/4 145/312/4
f 77/313/3 23/314/3 22/315/3 76/316/3
f 87/317/4 20/318/4 16/319/4 15/320/4
f 13/321/6 146/322/6 3/323/6 2/324/6
f 147/325/8 67/326/8 48/327/8 80/328/8
f 147/329/6 32/330/6 29/331/6 28/332/6
f 48/333/6 51/334/6 35/335/6 34/336/6
f 80/337/6 39/338/6 38/339/6 42/340/6
f 67/341/11 25/342/11 24/343/11 51/344/11
f 147/345/4 28/346/4 31/347/4 47/348/4
f 67/349/5 51/350/5 44/351/5 148/352/5
f 51/353/5 48/354/5 45/355/5 44/356/5
f 51/357/10 24/358/10 27/359/10 44/360/10
f 39/361/7 80/362/7 46/363/7 40/364/7
f 48/365/7 34/366/7 37/367/7 45/368/7
f 80/369/1 42/370/1 43/371/1 46/372/1
f 25/373/4 67/374/4 148/375/4 26/376/4
f 35/377/4 51/378/4 44/379/4 36/380/4
f 32/381/1 147/382/1 47/383/1 33/384/1
f 44/385/8 27/386/8 26/387/8 148/388/8
f 145/389/5 144/390/5 48/391/5 67/392/5
f 145/393/1 58/394/1 61/395/1 63/396/1
f 144/397/1 72/398/1 68/399/1 71/400/1
f 67/401/1 51/402/1 52/403/1 55/404/1
f 145/405/4 75/406/4 59/407/4 58/408/4
f 67/409/8 66/410/8 56/411/8 51/412/8
f 51/413/12 56/414/12 53/415/12 52/416/12
f 71/417/7 70/418/7 74/419/7 144/420/7
f 144/421/6 74/422/6 73/423/6 72/424/6
f 63/425/6 62/426/6 75/427/6 145/428/6
f 56/429/5 66/430/5 54/431/5 53/432/5
f 76/433/1 147/434/1 80/435/1 84/436/1
f 147/437/5 91/438/5 90/439/5 81/440/5
f 147/441/8 81/442/8 95/443/8 149/444/8
f 81/445/12 90/446/12 93/447/12 95/448/12
f 91/449/4 147/450/4 149/451/4 92/452/4
f 95/453/1 93/454/1 92/455/1 149/456/1
f 144/457/7 84/458/7 80/459/7 48/460/7
f 144/461/13 108/462/13 111/463/13 113/464/13
f 80/465/14 83/466/14 150/467/14 39/468/14
f 84/469/4 114/470/4 117/471/4 85/472/4
f 48/473/15 39/474/15 104/475/15 107/476/15
f 144/477/16 120/478/16 109/479/16 108/480/16
f 48/481/8 122/482/8 121/483/8 39/484/8
f 39/485/8 121/486/8 151/487/8 80/488/8
f 39/489/17 121/490/17 105/491/17 104/492/17
f 85/493/18 119/494/18 118/495/18 84/496/18
f 80/497/18 151/498/18 152/499/18 83/500/18
f 84/501/6 118/502/6 115/503/6 114/504/6
f 83/505/6 152/506/6 153/507/6 150/508/6
f 107/509/19 106/510/19 122/511/19 48/512/19
f 150/513/20 153/514/20 121/515/20 39/516/20
f 117/517/8 116/518/8 119/519/8 85/520/8
f 113/521/6 112/522/6 120/523/6 144/524/6
f 152/525/7 151/526/7 121/527/7 153/528/7
f 145/529/4 67/530/4 147/531/4 76/532/4
f 145/533/21 4/534/21 154/535/21 58/536/21
f 147/537/22 123/538/22 128/539/22 127/540/22
f 76/541/23 132/542/23 131/543/23 135/544/23
f 67/545/7 55/546/7 124/547/7 123/548/7
f 145/549/24 58/550/24 138/551/24 141/552/24
f 67/553/8 123/554/8 126/555/8 143/556/8
f 124/557/6 55/558/6 142/559/6 125/560/6
f 123/561/8 147/562/8 155/563/8 126/564/8
f 58/565/8 154/566/8 139/567/8 138/568/8
f 132/569/25 76/570/25 137/571/25 133/572/25
f 154/573/26 4/574/26 140/575/26 139/576/26
f 147/577/27 127/578/27 130/579/27 155/580/27
f 76/581/6 135/582/6 136/583/6 137/584/6
f 55/585/24 67/586/24 143/587/24 142/588/24
f 128/589/2 123/590/2 126/591/2 129/592/2
f 4/593/6 145/594/6 141/595/6 140/596/6
f 130/597/4 129/598/4 126/599/4 155/600/4
