# Blender 4.2.0
# www.blender.org
mtllib curve2.mtl
o NurbsPath
v -68.581238 -0.000013 -4.696270
v -68.290085 -0.000013 -14.683870
v -66.686821 -0.000013 -22.710432
v -64.040718 -0.000013 -29.013220
v -60.597336 -0.000013 -33.814114
v -56.578541 -0.000013 -37.319561
v -52.182426 -0.000013 -39.720604
v -47.583378 -0.000013 -41.192867
v -42.932064 -0.000013 -41.896572
v -38.355412 -0.000013 -41.976532
v -33.956608 -0.000013 -41.562122
v -29.815130 -0.000013 -40.767338
v -25.986713 -0.000013 -39.690735
v -22.503380 -0.000013 -38.415474
v -19.373417 -0.000013 -37.009296
v -16.581369 -0.000013 -35.524532
v -14.088607 -0.000013 -33.998356
v -11.843549 -0.000013 -32.457634
v -9.796943 -0.000013 -30.926155
v -7.904171 -0.000013 -29.425726
v -6.125234 -0.000013 -27.976179
v -4.424769 -0.000013 -26.595345
v -2.772033 -0.000013 -25.299076
v -1.140919 -0.000013 -24.101242
v 0.490066 -0.000013 -23.013723
v 2.137769 -0.000013 -22.046415
v 3.814422 -0.000013 -21.207233
v 5.527627 -0.000013 -20.502100
v 7.280362 -0.000013 -19.934965
v 9.070965 -0.000013 -19.507769
v 10.893160 -0.000013 -19.220493
v 12.736077 -0.000013 -19.071133
v 14.586059 -0.000013 -19.056026
v 16.430538 -0.000013 -19.170605
v 18.259029 -0.000013 -19.409552
v 20.063131 -0.000013 -19.766802
v 21.836477 -0.000013 -20.235546
v 23.574804 -0.000013 -20.808245
v 25.275894 -0.000013 -21.476603
v 26.939604 -0.000013 -22.231575
v 28.567867 -0.000013 -23.063391
v 30.164679 -0.000013 -23.961521
v 31.736101 -0.000013 -24.914694
v 33.290279 -0.000013 -25.910902
v 34.837406 -0.000013 -26.937391
v 36.389763 -0.000013 -27.980658
v 37.961666 -0.000013 -29.026461
v 39.568733 -0.000013 -30.060108
v 41.225101 -0.000013 -31.067396
v 42.942474 -0.000013 -32.034973
v 44.730145 -0.000013 -32.950336
v 46.594902 -0.000013 -33.801861
v 48.541149 -0.000013 -34.578754
v 50.570759 -0.000013 -35.271069
v 52.683243 -0.000013 -35.869743
v 54.875587 -0.000013 -36.366539
v 57.142384 -0.000013 -36.754101
v 59.475735 -0.000013 -37.025906
v 61.865326 -0.000013 -37.176304
v 64.298355 -0.000013 -37.200470
v 66.759621 -0.000013 -37.094467
v 69.231422 -0.000013 -36.855194
v 71.694046 -0.000013 -36.480385
v 74.128082 -0.000013 -35.968506
v 76.515480 -0.000013 -35.318657
v 78.839767 -0.000013 -34.530617
v 81.085976 -0.000013 -33.604809
v 83.240669 -0.000013 -32.542332
v 85.291901 -0.000013 -31.344904
v 87.229256 -0.000013 -30.014927
v 89.043839 -0.000013 -28.555464
v 90.728226 -0.000013 -26.970217
v 92.276604 -0.000013 -25.263544
v 93.684555 -0.000013 -23.440462
v 94.949295 -0.000013 -21.506660
v 96.069435 -0.000013 -19.468473
v 97.045258 -0.000013 -17.332876
v 97.878304 -0.000013 -15.107501
v 98.570801 -0.000013 -12.800536
v 99.124855 -0.000013 -10.420625
v 99.542488 -0.000013 -7.976834
v 99.825546 -0.000013 -5.478721
v 99.975769 -0.000013 -2.936292
v 99.994751 -0.000013 -0.360000
v 99.883980 -0.000013 2.239224
v 99.644791 -0.000013 4.850051
v 99.278404 -0.000013 7.460641
v 98.785942 -0.000013 10.058717
v 98.168297 -0.000013 12.631532
v 97.426353 -0.000013 15.165936
v 96.560768 -0.000013 17.648270
v 95.572182 -0.000013 20.064440
v 94.460999 -0.000013 22.399933
v 93.228058 -0.000013 24.640627
v 91.875084 -0.000013 26.773619
v 90.404747 -0.000013 28.787382
v 88.820702 -0.000013 30.671778
v 87.127548 -0.000013 32.418011
v 85.330841 -0.000013 34.018700
v 83.437096 -0.000013 35.467777
v 81.453796 -0.000013 36.760597
v 79.389412 -0.000013 37.893829
v 77.253311 -0.000013 38.865578
v 75.055878 -0.000013 39.675255
v 72.808426 -0.000013 40.323689
v 70.523270 -0.000013 40.813038
v 68.213608 -0.000013 41.146862
v 65.893661 -0.000013 41.330078
v 63.577682 -0.000013 41.368710
v 61.278584 -0.000013 41.269474
v 59.007553 -0.000013 41.039684
v 56.774120 -0.000013 40.687271
v 54.586159 -0.000013 40.220764
v 52.449837 -0.000013 39.649292
v 50.369652 -0.000013 38.982586
v 48.348404 -0.000013 38.230976
v 46.387241 -0.000013 37.405411
v 44.485622 -0.000013 36.517429
v 42.641342 -0.000013 35.579185
v 40.850468 -0.000013 34.603409
v 39.107445 -0.000013 33.603462
v 37.405010 -0.000013 32.593307
v 35.734238 -0.000013 31.587484
v 34.085178 -0.000013 30.600790
v 32.448582 -0.000013 29.647263
v 30.816370 -0.000013 28.739868
v 29.181715 -0.000013 27.890545
v 27.539011 -0.000013 27.110180
v 25.883863 -0.000013 26.408611
v 24.213076 -0.000013 25.794611
v 22.524694 -0.000013 25.275913
v 20.817963 -0.000013 24.859196
v 19.093357 -0.000013 24.550095
v 17.352581 -0.000013 24.353182
v 15.598487 -0.000013 24.271978
v 13.835218 -0.000013 24.308973
v 12.068107 -0.000013 24.465582
v 10.303704 -0.000013 24.742182
v 8.549120 -0.000013 25.137974
v 6.809297 -0.000013 25.650486
v 5.085789 -0.000013 26.275328
v 3.376749 -0.000013 27.006187
v 1.676830 -0.000013 27.834879
v -0.022665 -0.000013 28.751272
v -1.733876 -0.000013 29.743330
v -3.472378 -0.000013 30.797096
v -5.257164 -0.000013 31.896721
v -7.110648 -0.000013 33.024418
v -9.058674 -0.000013 34.160496
v -11.130509 -0.000013 35.283363
v -13.358811 -0.000013 36.369488
v -15.779761 -0.000013 37.393475
v -18.432865 -0.000013 38.327961
v -21.359068 -0.000013 39.143318
v -24.587368 -0.000013 39.805027
v -28.125826 -0.000013 40.271999
v -31.961092 -0.000013 40.496449
v -36.058407 -0.000013 40.423931
v -40.361553 -0.000013 39.993286
v -44.793091 -0.000013 39.136703
v -49.254005 -0.000013 37.779682
v -53.623913 -0.000013 35.841022
v -57.761047 -0.000013 33.232872
v -61.502239 -0.000013 29.860689
v -64.662880 -0.000013 25.623230
v -67.037010 -0.000013 20.412600
v -68.397232 -0.000013 14.114204
v -68.494743 -0.000013 6.606890
l 1 2
l 2 3
l 3 4
l 4 5
l 5 6
l 6 7
l 7 8
l 8 9
l 9 10
l 10 11
l 11 12
l 12 13
l 13 14
l 14 15
l 15 16
l 16 17
l 17 18
l 18 19
l 19 20
l 20 21
l 21 22
l 22 23
l 23 24
l 24 25
l 25 26
l 26 27
l 27 28
l 28 29
l 29 30
l 30 31
l 31 32
l 32 33
l 33 34
l 34 35
l 35 36
l 36 37
l 37 38
l 38 39
l 39 40
l 40 41
l 41 42
l 42 43
l 43 44
l 44 45
l 45 46
l 46 47
l 47 48
l 48 49
l 49 50
l 50 51
l 51 52
l 52 53
l 53 54
l 54 55
l 55 56
l 56 57
l 57 58
l 58 59
l 59 60
l 60 61
l 61 62
l 62 63
l 63 64
l 64 65
l 65 66
l 66 67
l 67 68
l 68 69
l 69 70
l 70 71
l 71 72
l 72 73
l 73 74
l 74 75
l 75 76
l 76 77
l 77 78
l 78 79
l 79 80
l 80 81
l 81 82
l 82 83
l 83 84
l 84 85
l 85 86
l 86 87
l 87 88
l 88 89
l 89 90
l 90 91
l 91 92
l 92 93
l 93 94
l 94 95
l 95 96
l 96 97
l 97 98
l 98 99
l 99 100
l 100 101
l 101 102
l 102 103
l 103 104
l 104 105
l 105 106
l 106 107
l 107 108
l 108 109
l 109 110
l 110 111
l 111 112
l 112 113
l 113 114
l 114 115
l 115 116
l 116 117
l 117 118
l 118 119
l 119 120
l 120 121
l 121 122
l 122 123
l 123 124
l 124 125
l 125 126
l 126 127
l 127 128
l 128 129
l 129 130
l 130 131
l 131 132
l 132 133
l 133 134
l 134 135
l 135 136
l 136 137
l 137 138
l 138 139
l 139 140
l 140 141
l 141 142
l 142 143
l 143 144
l 144 145
l 145 146
l 146 147
l 147 148
l 148 149
l 149 150
l 150 151
l 151 152
l 152 153
l 153 154
l 154 155
l 155 156
l 156 157
l 157 158
l 158 159
l 159 160
l 160 161
l 161 162
l 162 163
l 163 164
l 164 165
l 165 166
l 166 167
l 167 168
o old_road
v -66.215439 0.079224 -1.657400
v -66.215439 0.200336 -1.657400
v -73.391502 0.079223 -1.358290
v -73.391502 0.200335 -1.358290
v -66.067467 0.079225 -6.595999
v -66.067467 0.200337 -6.595999
v -73.249184 0.079223 -6.504813
v -73.249184 0.200335 -6.504813
v -66.067467 0.079225 -6.595999
v -66.067467 0.200337 -6.595999
v -73.249184 0.079223 -6.504813
v -73.249184 0.200335 -6.504813
v -65.926414 0.079224 -11.414931
v -65.926414 0.200336 -11.414931
v -73.093567 0.079224 -11.881121
v -73.093567 0.200336 -11.881121
v -65.926414 0.079224 -11.414931
v -65.926414 0.200336 -11.414931
v -73.093567 0.079224 -11.881121
v -73.093567 0.200336 -11.881121
v -65.488007 0.079224 -16.166397
v -65.488007 0.200336 -16.166397
v -72.583168 0.079224 -17.281780
v -72.583168 0.200336 -17.281780
v -65.488007 0.079224 -16.166397
v -65.488007 0.200336 -16.166397
v -72.583168 0.079224 -17.281780
v -72.583168 0.200336 -17.281780
v -64.564713 0.079224 -20.810249
v -64.564713 0.200336 -20.810249
v -71.489281 0.079223 -22.716986
v -71.489281 0.200335 -22.716986
v -64.564713 0.079224 -20.810249
v -64.564713 0.200336 -20.810249
v -71.489281 0.079223 -22.716986
v -71.489281 0.200335 -22.716986
v -62.986946 0.079224 -25.170416
v -62.986946 0.200337 -25.170416
v -69.563629 0.079224 -28.057018
v -69.563629 0.200335 -28.057018
v -62.986946 0.079224 -25.170416
v -62.986946 0.200337 -25.170416
v -69.563629 0.079224 -28.057018
v -69.563629 0.200335 -28.057018
v -60.871738 0.079224 -29.214705
v -60.871738 0.200336 -29.214705
v -66.864456 0.079224 -33.173569
v -66.864456 0.200336 -33.173569
v -60.871738 0.079224 -29.214705
v -60.871738 0.200336 -29.214705
v -66.864456 0.079224 -33.173569
v -66.864456 0.200336 -33.173569
v -58.081451 0.079225 -32.753605
v -58.081451 0.200337 -32.753605
v -63.183525 0.079223 -37.808720
v -63.183525 0.200335 -37.808720
v -58.081451 0.079225 -32.753605
v -58.081451 0.200337 -32.753605
v -63.183525 0.079223 -37.808720
v -63.183525 0.200335 -37.808720
v -54.616718 0.079224 -35.597660
v -54.616718 0.200337 -35.597660
v -58.553688 0.079223 -41.604786
v -58.553688 0.200335 -41.604786
v -54.616718 0.079224 -35.597660
v -54.616718 0.200337 -35.597660
v -58.553688 0.079223 -41.604786
v -58.553688 0.200335 -41.604786
v -50.602798 0.079224 -37.650093
v -50.602798 0.200336 -37.650093
v -53.263077 0.079224 -44.321545
v -53.263077 0.200336 -44.321545
v -50.602798 0.079224 -37.650093
v -50.602798 0.200336 -37.650093
v -53.263077 0.079224 -44.321545
v -53.263077 0.200336 -44.321545
v -46.213684 0.079224 -38.916019
v -46.213684 0.200337 -38.916019
v -47.658062 0.079223 -45.951580
v -47.658062 0.200335 -45.951580
v -46.213684 0.079224 -38.916019
v -46.213684 0.200337 -38.916019
v -47.658062 0.079223 -45.951580
v -47.658062 0.200335 -45.951580
v -41.611656 0.079224 -39.461239
v -41.611656 0.200336 -39.461239
v -41.985039 0.079223 -46.633823
v -41.985039 0.200335 -46.633823
v -41.611656 0.079224 -39.461239
v -41.611656 0.200336 -39.461239
v -41.985039 0.079223 -46.633823
v -41.985039 0.200335 -46.633823
v -36.922920 0.079224 -39.371571
v -36.922920 0.200336 -39.371571
v -36.374977 0.079223 -46.532936
v -36.374977 0.200335 -46.532936
v -36.922920 0.079224 -39.371571
v -36.922920 0.200336 -39.371571
v -36.374977 0.079223 -46.532936
v -36.374977 0.200335 -46.532936
v -32.238075 0.079224 -38.727943
v -32.238075 0.200336 -38.727943
v -30.887135 0.079224 -45.782047
v -30.887135 0.200336 -45.782047
v -32.238075 0.079224 -38.727943
v -32.238075 0.200336 -38.727943
v -30.887135 0.079224 -45.782047
v -30.887135 0.200336 -45.782047
v -27.622391 0.079224 -37.596272
v -27.622391 0.200336 -37.596272
v -25.547647 0.079224 -44.472374
v -25.547647 0.200336 -44.472374
v -27.622398 0.079224 -37.596275
v -27.622398 0.200336 -37.596275
v -25.547655 0.079223 -44.472378
v -25.547655 0.200335 -44.472378
v -23.134878 0.079225 -36.003994
v -23.134878 0.200337 -36.003994
v -20.381353 0.079223 -42.637505
v -20.381353 0.200335 -42.637505
v -23.134878 0.079225 -36.003994
v -23.134878 0.200337 -36.003994
v -20.381353 0.079223 -42.637505
v -20.381353 0.200335 -42.637505
v -18.842899 0.079224 -33.941578
v -18.842899 0.200336 -33.941578
v -15.436581 0.079224 -40.264744
v -15.436581 0.200336 -40.264744
v -18.842907 0.079224 -33.941586
v -18.842907 0.200336 -33.941586
v -15.436589 0.079223 -40.264748
v -15.436590 0.200335 -40.264748
v -14.756973 0.079224 -31.474272
v -14.756973 0.200336 -31.474272
v -10.761532 0.079223 -37.442673
v -10.761532 0.200336 -37.442673
v -14.756973 0.079224 -31.474272
v -14.756973 0.200336 -31.474272
v -10.761532 0.079223 -37.442673
v -10.761532 0.200336 -37.442673
v -10.851668 0.079224 -28.623848
v -10.851668 0.200337 -28.623848
v -6.440582 0.079223 -34.291981
v -6.440582 0.200336 -34.291981
v -10.851673 0.079224 -28.623852
v -10.851674 0.200336 -28.623852
v -6.440588 0.079223 -34.291985
v -6.440588 0.200336 -34.291985
v -6.984226 0.079224 -25.505463
v -6.984226 0.200336 -25.505463
v -2.472939 0.079223 -31.094170
v -2.472939 0.200335 -31.094170
v -6.984226 0.079224 -25.505463
v -6.984226 0.200336 -25.505463
v -2.472939 0.079223 -31.094170
v -2.472939 0.200335 -31.094170
v -2.905324 0.079225 -22.345837
v -2.905324 0.200337 -22.345837
v 1.260415 0.079223 -28.196646
v 1.260415 0.200335 -28.196648
v -2.905330 0.079224 -22.345842
v -2.905330 0.200336 -22.345842
v 1.260409 0.079223 -28.196651
v 1.260409 0.200335 -28.196651
v 1.668359 0.079224 -19.531057
v 1.668359 0.200336 -19.531057
v 4.923889 0.079224 -25.933157
v 4.923889 0.200336 -25.933157
v 1.668359 0.079224 -19.531057
v 1.668359 0.200336 -19.531057
v 4.923889 0.079224 -25.933157
v 4.923889 0.200336 -25.933157
v 6.791799 0.079224 -17.524330
v 6.791799 0.200336 -17.524330
v 8.684004 0.079224 -24.452888
v 8.684004 0.200336 -24.452888
v 6.791790 0.079224 -17.524332
v 6.791790 0.200336 -17.524332
v 8.683998 0.079224 -24.452888
v 8.683998 0.200336 -24.452888
v 12.233765 0.079224 -16.644878
v 12.233765 0.200336 -16.644878
v 12.656515 0.079224 -23.814722
v 12.656515 0.200336 -23.814720
v 12.233765 0.079224 -16.644878
v 12.233765 0.200336 -16.644878
v 12.656515 0.079224 -23.814722
v 12.656515 0.200336 -23.814720
v 17.697792 0.079224 -16.855804
v 17.697792 0.200336 -16.855804
v 16.762789 0.079223 -23.976976
v 16.762789 0.200335 -23.976976
v 17.697792 0.079224 -16.855804
v 17.697792 0.200336 -16.855804
v 16.762789 0.079223 -23.976976
v 16.762789 0.200335 -23.976976
v 22.996412 0.079224 -18.028479
v 22.996412 0.200336 -18.028479
v 20.856207 0.079224 -24.884487
v 20.856207 0.200336 -24.884489
v 22.996412 0.079224 -18.028479
v 22.996412 0.200336 -18.028479
v 20.856207 0.079224 -24.884487
v 20.856207 0.200336 -24.884489
v 27.984867 0.079224 -20.005707
v 27.984867 0.200336 -20.005707
v 24.870371 0.079224 -26.477592
v 24.870371 0.200336 -26.477592
v 27.984852 0.079224 -20.005699
v 27.984852 0.200336 -20.005699
v 24.870359 0.079224 -26.477583
v 24.870359 0.200336 -26.477583
v 32.584961 0.079224 -22.553030
v 32.584961 0.200336 -22.553030
v 28.833155 0.079223 -28.677513
v 28.833155 0.200335 -28.677513
v 32.584961 0.079224 -22.553030
v 32.584961 0.200336 -22.553030
v 28.833155 0.079223 -28.677513
v 28.833155 0.200335 -28.677513
v 36.867245 0.079224 -25.338249
v 36.867245 0.200336 -25.338249
v 32.877090 0.079223 -31.310186
v 32.877090 0.200336 -31.310186
v 36.867245 0.079224 -25.338249
v 36.867245 0.200336 -25.338249
v 32.877090 0.079223 -31.310186
v 32.877090 0.200336 -31.310186
v 40.990028 0.079224 -28.046022
v 40.990028 0.200336 -28.046022
v 37.194206 0.079223 -34.143322
v 37.194206 0.200336 -34.143318
v 40.990028 0.079224 -28.046022
v 40.990028 0.200336 -28.046022
v 37.194206 0.079223 -34.143322
v 37.194206 0.200336 -34.143318
v 45.157116 0.079224 -30.405851
v 45.157116 0.200336 -30.405851
v 41.924133 0.079224 -36.819370
v 41.924133 0.200336 -36.819370
v 45.157116 0.079224 -30.405851
v 45.157116 0.200336 -30.405851
v 41.924133 0.079224 -36.819370
v 41.924133 0.200336 -36.819370
v 49.485432 0.079224 -32.302898
v 49.485432 0.200336 -32.302898
v 47.010559 0.079224 -39.045330
v 47.010559 0.200336 -39.045330
v 49.485432 0.079224 -32.302898
v 49.485432 0.200336 -32.302898
v 47.010559 0.079224 -39.045330
v 47.010559 0.200336 -39.045330
v 54.001541 0.079224 -33.646713
v 54.001541 0.200336 -33.646713
v 52.356396 0.079224 -40.638054
v 52.356396 0.200336 -40.638054
v 54.001541 0.079224 -33.646713
v 54.001541 0.200336 -33.646713
v 52.356396 0.079224 -40.638054
v 52.356396 0.200336 -40.638054
v 58.653660 0.079225 -34.454025
v 58.653660 0.200337 -34.454025
v 57.832493 0.079223 -41.589222
v 57.832493 0.200335 -41.589222
v 58.653660 0.079225 -34.454025
v 58.653660 0.200337 -34.454025
v 57.832493 0.079223 -41.589222
v 57.832493 0.200335 -41.589222
v 63.380985 0.079225 -34.731789
v 63.380985 0.200337 -34.731789
v 63.355114 0.079223 -41.914040
v 63.355114 0.200335 -41.914040
v 63.380985 0.079225 -34.731789
v 63.380985 0.200337 -34.731789
v 63.355114 0.079223 -41.914040
v 63.355114 0.200335 -41.914040
v 68.116302 0.079224 -34.492237
v 68.116302 0.200336 -34.492237
v 68.869377 0.079224 -41.634945
v 68.869377 0.200336 -41.634945
v 68.116302 0.079224 -34.492237
v 68.116302 0.200336 -34.492237
v 68.869377 0.079224 -41.634945
v 68.869377 0.200336 -41.634945
v 72.787651 0.079224 -33.737232
v 72.787651 0.200336 -33.737232
v 74.337067 0.079224 -40.750408
v 74.337067 0.200336 -40.750408
v 72.787651 0.079224 -33.737232
v 72.787651 0.200336 -33.737232
v 74.337067 0.079224 -40.750408
v 74.337067 0.200336 -40.750408
v 77.314972 0.079224 -32.450798
v 77.314972 0.200336 -32.450798
v 79.709740 0.079223 -39.222092
v 79.709740 0.200336 -39.222092
v 77.314972 0.079224 -32.450798
v 77.314972 0.200336 -32.450798
v 79.709740 0.079223 -39.222092
v 79.709740 0.200336 -39.222092
v 81.605255 0.079224 -30.606997
v 81.605255 0.200336 -30.606997
v 84.903503 0.079224 -36.987190
v 84.903503 0.200336 -36.987194
v 81.605255 0.079224 -30.606997
v 81.605255 0.200336 -30.606997
v 84.903503 0.079224 -36.987190
v 84.903503 0.200336 -36.987194
v 85.550270 0.079225 -28.185530
v 85.550270 0.200337 -28.185530
v 89.785690 0.079223 -33.986095
v 89.785690 0.200335 -33.986095
v 85.550270 0.079225 -28.185530
v 85.550270 0.200337 -28.185530
v 89.785690 0.079223 -33.986095
v 89.785690 0.200335 -33.986095
v 89.030243 0.079224 -25.183861
v 89.030243 0.200336 -25.183861
v 94.171112 0.079224 -30.199516
v 94.171112 0.200336 -30.199516
v 89.030243 0.079224 -25.183861
v 89.030243 0.200336 -25.183861
v 94.171112 0.079224 -30.199516
v 94.171112 0.200336 -30.199516
v 91.929092 0.079224 -21.632292
v 91.929092 0.200336 -21.632292
v 97.849884 0.079224 -25.697950
v 97.849884 0.200335 -25.697950
v 91.929092 0.079224 -21.632292
v 91.929092 0.200336 -21.632292
v 97.849884 0.079224 -25.697950
v 97.849884 0.200335 -25.697950
v 94.205544 0.079224 -17.630049
v 94.205544 0.200336 -17.630049
v 100.707581 0.079224 -20.681091
v 100.707581 0.200336 -20.681091
v 94.205544 0.079224 -17.630049
v 94.205544 0.200336 -17.630049
v 100.707581 0.079224 -20.681091
v 100.707581 0.200336 -20.681091
v 95.857750 0.079224 -13.284095
v 95.857750 0.200336 -13.284095
v 102.732452 0.079224 -15.363494
v 102.732452 0.200336 -15.363494
v 95.857750 0.079224 -13.284095
v 95.857750 0.200336 -13.284095
v 102.732452 0.079224 -15.363494
v 102.732452 0.200336 -15.363494
v 96.922424 0.079225 -8.707844
v 96.922424 0.200337 -8.707844
v 104.003433 0.079223 -9.909785
v 104.003433 0.200335 -9.909785
v 96.922424 0.079225 -8.707844
v 96.922424 0.200337 -8.707844
v 104.003433 0.079223 -9.909785
v 104.003433 0.200335 -9.909785
v 97.449188 0.079224 -3.999305
v 97.449188 0.200336 -3.999305
v 104.619324 0.079224 -4.417106
v 104.619324 0.200335 -4.417106
v 97.449188 0.079224 -3.999305
v 97.449188 0.200336 -3.999305
v 104.619324 0.079224 -4.417106
v 104.619324 0.200335 -4.417106
v 97.485046 0.079224 0.765697
v 97.485046 0.200336 0.765697
v 104.661331 0.079223 1.059375
v 104.661331 0.200335 1.059375
v 97.485046 0.079224 0.765697
v 97.485046 0.200336 0.765697
v 104.661331 0.079223 1.059375
v 104.661331 0.200335 1.059375
v 97.066109 0.079224 5.527835
v 97.066109 0.200336 5.527835
v 104.184128 0.079224 6.486596
v 104.184128 0.200336 6.486596
v 97.066109 0.079224 5.527835
v 97.066109 0.200336 5.527835
v 104.184128 0.079224 6.486596
v 104.184128 0.200336 6.486596
v 96.214104 0.079224 10.236160
v 96.214111 0.200336 10.236160
v 103.214996 0.079224 11.840202
v 103.214996 0.200336 11.840202
v 96.214104 0.079224 10.236160
v 96.214111 0.200336 10.236160
v 103.214996 0.079224 11.840202
v 103.214996 0.200336 11.840202
v 94.935707 0.079224 14.839785
v 94.935707 0.200336 14.839785
v 101.754608 0.079224 17.095425
v 101.754608 0.200336 17.095425
v 94.935707 0.079224 14.839785
v 94.935707 0.200336 14.839785
v 101.754608 0.079224 17.095425
v 101.754608 0.200336 17.095425
v 93.222847 0.079224 19.279095
v 93.222847 0.200336 19.279095
v 99.776039 0.079224 22.218666
v 99.776039 0.200336 22.218666
v 93.222847 0.079224 19.279095
v 93.222847 0.200336 19.279095
v 99.776039 0.079224 22.218666
v 99.776039 0.200336 22.218666
v 91.054176 0.079224 23.477947
v 91.054176 0.200336 23.477947
v 97.225510 0.079224 27.152184
v 97.225510 0.200336 27.152184
v 91.054176 0.079224 23.477947
v 91.054176 0.200336 23.477947
v 97.225510 0.079224 27.152184
v 97.225510 0.200336 27.152184
v 88.405632 0.079224 27.345181
v 88.405632 0.200336 27.345181
v 94.044914 0.079224 31.793079
v 94.044914 0.200336 31.793079
v 88.405609 0.079224 27.345205
v 88.405609 0.200336 27.345205
v 94.044891 0.079224 31.793110
v 94.044891 0.200336 31.793110
v 85.270775 0.079224 30.779692
v 85.270775 0.200336 30.779692
v 90.205437 0.079224 35.998360
v 90.205437 0.200336 35.998360
v 85.270767 0.079224 30.779715
v 85.270767 0.200336 30.779715
v 90.205414 0.079224 35.998386
v 90.205414 0.200336 35.998386
v 81.673355 0.079224 33.682407
v 81.673355 0.200336 33.682407
v 85.736023 0.079223 39.605247
v 85.736023 0.200335 39.605247
v 81.673332 0.079224 33.682423
v 81.673332 0.200336 33.682423
v 85.736000 0.079223 39.605267
v 85.736000 0.200336 39.605267
v 77.670921 0.079224 35.973854
v 77.670921 0.200336 35.973854
v 80.737778 0.079224 42.468449
v 80.737778 0.200335 42.468449
v 77.670898 0.079224 35.973866
v 77.670898 0.200336 35.973866
v 80.737755 0.079224 42.468464
v 80.737755 0.200335 42.468464
v 73.348663 0.079224 37.608021
v 73.348663 0.200336 37.608021
v 75.366928 0.079223 44.500908
v 75.366928 0.200336 44.500908
v 73.348640 0.079224 37.608032
v 73.348640 0.200336 37.608032
v 75.366905 0.079223 44.500923
v 75.366905 0.200336 44.500923
v 68.806381 0.079224 38.576172
v 68.806381 0.200336 38.576172
v 69.792953 0.079224 45.690388
v 69.792953 0.200336 45.690388
v 68.806351 0.079224 38.576180
v 68.806351 0.200336 38.576180
v 69.792915 0.079224 45.690392
v 69.792915 0.200336 45.690392
v 64.144951 0.079224 38.899677
v 64.144951 0.200336 38.899677
v 64.158043 0.079224 46.081959
v 64.158043 0.200336 46.081959
v 64.144920 0.079224 38.899677
v 64.144920 0.200336 38.899677
v 64.158005 0.079224 46.081959
v 64.158005 0.200336 46.081959
v 59.457451 0.079224 38.613880
v 59.457451 0.200336 38.613880
v 58.561287 0.079224 45.740047
v 58.561287 0.200336 45.740047
v 59.457417 0.079224 38.613880
v 59.457417 0.200336 38.613880
v 58.561249 0.079224 45.740044
v 58.561249 0.200336 45.740044
v 54.823166 0.079224 37.738579
v 54.823166 0.200336 37.738579
v 53.087318 0.079224 44.707954
v 53.087318 0.200335 44.707954
v 54.823132 0.079224 37.738567
v 54.823132 0.200336 37.738567
v 53.087280 0.079223 44.707939
v 53.087280 0.200335 44.707939
v 50.296314 0.079224 36.331287
v 50.296314 0.200336 36.331287
v 47.811481 0.079224 43.070057
v 47.811481 0.200336 43.070057
v 50.296284 0.079225 36.331280
v 50.296284 0.200337 36.331280
v 47.811447 0.079223 43.070045
v 47.811447 0.200335 43.070045
v 45.897903 0.079224 34.462620
v 45.897903 0.200336 34.462620
v 42.792492 0.079224 40.938866
v 42.792492 0.200335 40.938866
v 45.897881 0.079224 34.462605
v 45.897881 0.200336 34.462605
v 42.792461 0.079224 40.938850
v 42.792461 0.200336 40.938850
v 41.611488 0.079224 32.204567
v 41.611488 0.200336 32.204567
v 38.076519 0.079224 38.456715
v 38.076519 0.200336 38.456715
v 41.611462 0.079224 32.204556
v 41.611462 0.200336 32.204556
v 38.076488 0.079223 38.456703
v 38.076492 0.200335 38.456703
v 37.349594 0.079224 29.689165
v 37.349594 0.200336 29.689165
v 33.655922 0.079224 35.848885
v 33.655922 0.200336 35.848885
v 37.349567 0.079224 29.689146
v 37.349567 0.200336 29.689146
v 33.655895 0.079224 35.848869
v 33.655895 0.200336 35.848869
v 32.955574 0.079225 27.115108
v 32.955574 0.200337 27.115108
v 29.466423 0.079223 33.392941
v 29.466423 0.200335 33.392941
v 32.955544 0.079224 27.115093
v 32.955544 0.200336 27.115093
v 29.466398 0.079224 33.392925
v 29.466398 0.200336 33.392925
v 28.282215 0.079224 24.754162
v 28.282215 0.200336 24.754162
v 25.384222 0.079225 31.325840
v 25.384222 0.200337 31.325840
v 28.282185 0.079224 24.754148
v 28.282185 0.200336 24.754148
v 25.384197 0.079224 31.325832
v 25.384197 0.200336 31.325832
v 23.241159 0.079224 22.924049
v 23.241159 0.200336 22.924049
v 21.320368 0.079224 29.844738
v 21.320368 0.200337 29.844738
v 23.241131 0.079224 22.924038
v 23.241131 0.200336 22.924038
v 21.320347 0.079223 29.844728
v 21.320347 0.200336 29.844728
v 17.884571 0.079224 21.938761
v 17.884571 0.200336 21.938761
v 17.231457 0.079224 29.091299
v 17.231457 0.200336 29.091299
v 17.884537 0.079224 21.938757
v 17.884537 0.200336 21.938757
v 17.231432 0.079224 29.091295
v 17.231432 0.200337 29.091299
v 12.413545 0.079224 21.965988
v 12.413545 0.200336 21.965988
v 13.126996 0.079225 29.112759
v 13.126996 0.200337 29.112759
v 12.413511 0.079224 21.965988
v 12.413511 0.200336 21.965988
v 13.126971 0.079224 29.112761
v 13.126971 0.200336 29.112761
v 7.060747 0.079224 23.012442
v 7.060747 0.200336 23.012442
v 9.067451 0.079223 29.908709
v 9.067451 0.200336 29.908709
v 7.060714 0.079225 23.012451
v 7.060714 0.200336 23.012451
v 9.067427 0.079223 29.908714
v 9.067427 0.200336 29.908714
v 2.028947 0.079224 24.927420
v 2.028947 0.200336 24.927420
v 5.068723 0.079224 31.434727
v 5.068723 0.200335 31.434727
v 2.028919 0.079224 24.927435
v 2.028919 0.200336 24.927435
v 5.068698 0.079224 31.434742
v 5.068698 0.200336 31.434742
v -2.589687 0.079224 27.396574
v -2.589687 0.200336 27.396574
v 1.037872 0.079224 33.595463
v 1.037872 0.200336 33.595463
v -2.589714 0.079224 27.396593
v -2.589714 0.200336 27.396593
v 1.037846 0.079224 33.595478
v 1.037846 0.200336 33.595478
v -6.908789 0.079224 30.022652
v -6.908789 0.200336 30.022652
v -3.173384 0.079224 36.157154
v -3.173384 0.200336 36.157154
v -6.908815 0.079224 30.022667
v -6.908815 0.200336 30.022667
v -3.173411 0.079224 36.157169
v -3.173411 0.200336 36.157169
v -11.129110 0.079224 32.485126
v -11.129110 0.200336 32.485126
v -7.710015 0.079224 38.801384
v -7.710015 0.200336 38.801384
v -11.129136 0.079224 32.485138
v -11.129136 0.200336 32.485138
v -7.710043 0.079224 38.801399
v -7.710043 0.200336 38.801399
v -15.422934 0.079224 34.572094
v -15.422934 0.200336 34.572094
v -12.621881 0.079224 41.185673
v -12.621881 0.200336 41.185673
v -15.422960 0.079224 34.572109
v -15.422960 0.200336 34.572109
v -12.621910 0.079224 41.185692
v -12.621910 0.200336 41.185692
v -19.873123 0.079225 36.176430
v -19.873123 0.200336 36.176430
v -17.833809 0.079224 43.063122
v -17.833809 0.200336 43.063122
v -19.873150 0.079224 36.176441
v -19.873150 0.200336 36.176441
v -17.833841 0.079223 43.063133
v -17.833841 0.200336 43.063133
v -24.484171 0.079224 37.273945
v -24.484171 0.200336 37.273945
v -23.209356 0.079224 44.342194
v -23.209356 0.200336 44.342194
v -24.484200 0.079224 37.273945
v -24.484200 0.200336 37.273945
v -23.209389 0.079224 44.342197
v -23.209389 0.200336 44.342197
v -29.206676 0.079224 37.872013
v -29.206676 0.200336 37.872013
v -28.650255 0.079224 45.032722
v -28.650255 0.200336 45.032722
v -29.206701 0.079224 37.872013
v -29.206701 0.200336 37.872013
v -28.650284 0.079224 45.032722
v -28.650284 0.200336 45.032722
v -33.974941 0.079224 38.000927
v -33.974941 0.200336 38.000927
v -34.114433 0.079224 45.181866
v -34.114433 0.200336 45.181866
v -33.974972 0.079224 38.000927
v -33.974972 0.200336 38.000927
v -34.114464 0.079224 45.181866
v -34.114464 0.200336 45.181866
v -38.729191 0.079224 37.685276
v -38.729191 0.200336 37.685276
v -39.577072 0.079224 44.817348
v -39.577072 0.200336 44.817348
v -38.729221 0.079224 37.685272
v -38.729221 0.200336 37.685272
v -39.577106 0.079224 44.817345
v -39.577106 0.200336 44.817345
v -43.410175 0.079224 36.900394
v -43.410175 0.200336 36.900394
v -45.010506 0.079224 43.902130
v -45.010506 0.200336 43.902130
v -43.410202 0.079225 36.900387
v -43.410202 0.200336 36.900387
v -45.010536 0.079223 43.902122
v -45.010536 0.200335 43.902122
v -47.944454 0.079224 35.610302
v -47.944454 0.200336 35.610302
v -50.368439 0.079224 42.371193
v -50.368439 0.200336 42.371193
v -47.944481 0.079224 35.610294
v -47.944481 0.200336 35.610294
v -50.368469 0.079224 42.371185
v -50.368469 0.200336 42.371185
v -52.236038 0.079224 33.771679
v -52.236038 0.200336 33.771679
v -55.568466 0.079224 40.134087
v -55.568466 0.200336 40.134087
v -52.236061 0.079224 33.771667
v -52.236061 0.200336 33.771667
v -55.568497 0.079224 40.134075
v -55.568497 0.200336 40.134075
v -56.160149 0.079224 31.344059
v -56.160149 0.200336 31.344059
v -60.467987 0.079223 37.091053
v -60.467987 0.200335 37.091053
v -56.160175 0.079224 31.344044
v -56.160175 0.200336 31.344044
v -60.468018 0.079224 37.091030
v -60.468018 0.200336 37.091030
v -59.566093 0.079224 28.308538
v -59.566093 0.200336 28.308538
v -64.843941 0.079224 33.179844
v -64.843941 0.200336 33.179844
v -59.566113 0.079224 28.308519
v -59.566113 0.200336 28.308523
v -64.843964 0.079224 33.179821
v -64.843964 0.200336 33.179821
v -62.300297 0.079224 24.693306
v -62.300297 0.200336 24.693306
v -68.417572 0.079224 28.456846
v -68.417572 0.200336 28.456846
v -62.300308 0.079224 24.693281
v -62.300308 0.200336 24.693281
v -68.417587 0.079224 28.456814
v -68.417587 0.200336 28.456814
v -64.256470 0.079224 20.595245
v -64.256470 0.200336 20.595245
v -70.969322 0.079224 23.149237
v -70.969322 0.200336 23.149237
v -64.256477 0.079224 20.595221
v -64.256477 0.200336 20.595221
v -70.969337 0.079224 23.149206
v -70.969337 0.200336 23.149206
v -65.437439 0.079224 16.169619
v -65.437439 0.200336 16.169619
v -72.481834 0.079224 17.570276
v -72.481834 0.200336 17.570276
v -65.437454 0.079224 16.169592
v -65.437454 0.200336 16.169592
v -72.481850 0.079224 17.570244
v -72.481850 0.200336 17.570244
v -65.972557 0.079224 11.568221
v -65.972557 0.200336 11.568221
v -73.145157 0.079224 11.941301
v -73.145157 0.200336 11.941301
v -65.972557 0.079224 11.568193
v -65.972557 0.200336 11.568193
v -73.145157 0.079224 11.941269
v -73.145157 0.200336 11.941269
v -66.041000 0.079224 6.866775
v -66.041000 0.200336 6.866775
v -73.203537 0.079224 6.334372
v -73.203537 0.200336 6.334372
v -66.041000 0.079224 6.866746
v -66.041000 0.200336 6.866746
v -73.203537 0.079224 6.334337
v -73.203537 0.200335 6.334337
v -66.106354 0.079224 1.860045
v -66.106354 0.200336 1.860045
v -73.267838 0.079224 1.313656
v -73.267838 0.200336 1.313656
v -66.106354 0.079224 1.860045
v -66.106354 0.200336 1.860045
v -73.267838 0.079224 1.313656
v -73.267838 0.200336 1.313656
v -66.171349 0.079224 -3.151442
v -66.171349 0.200336 -3.151442
v -73.332832 0.079224 -3.697831
v -73.332832 0.200336 -3.697831
vn 0.0416 -0.0000 0.9991
vn -0.9996 -0.0000 -0.0276
vn -0.0127 -0.0000 -0.9999
vn 0.9996 -0.0000 0.0299
vn -0.0000 -1.0000 -0.0000
vn -0.0000 1.0000 -0.0000
vn 0.0127 -0.0000 0.9999
vn -0.9996 -0.0000 -0.0289
vn 0.0649 -0.0000 -0.9979
vn 0.9996 -0.0000 0.0293
vn -0.0649 -0.0000 0.9979
vn -0.9956 -0.0000 -0.0941
vn 0.1553 -0.0000 -0.9879
vn 0.9958 -0.0000 0.0919
vn -0.1553 -0.0000 0.9879
vn -0.9803 -0.0000 -0.1973
vn 0.2655 -0.0000 -0.9641
vn 0.9808 -0.0000 0.1950
vn -0.2655 -0.0000 0.9641
vn -0.9407 -0.0000 -0.3392
vn 0.4019 -0.0000 -0.9157
vn 0.9403 -0.0000 0.3403
vn -0.4019 -0.0000 0.9157
vn -0.8845 -0.0000 -0.4666
vn 0.5512 -0.0000 -0.8344
vn 0.8861 -0.0000 0.4635
vn -0.5512 -0.0000 0.8344
vn -0.7831 -0.0000 -0.6219
vn 0.7038 -0.0000 -0.7104
vn 0.7853 -0.0000 0.6192
vn -0.7038 -0.0000 0.7104
vn -0.6340 -0.0000 -0.7733
vn 0.8364 -0.0000 -0.5481
vn 0.6345 -0.0000 0.7729
vn -0.8364 -0.0000 0.5481
vn -0.4568 -0.0000 -0.8896
vn 0.9289 -0.0000 -0.3704
vn 0.4553 -0.0000 0.8904
vn -0.9289 -0.0000 0.3704
vn -0.2792 -0.0000 -0.9602
vn 0.9796 -0.0000 -0.2011
vn 0.2771 -0.0000 0.9608
vn -0.9796 -0.0000 0.2011
vn -0.1194 -0.0000 -0.9928
vn 0.9986 -0.0000 -0.0520
vn 0.1177 -0.0000 0.9931
vn -0.9986 -0.0000 0.0520
vn 0.0180 -0.0000 -0.9998
vn 0.9971 -0.0000 0.0763
vn -0.0191 -0.0000 0.9998
vn -0.9971 -0.0000 -0.0763
vn 0.1356 -0.0000 -0.9908
vn 0.9822 -0.0000 0.1881
vn -0.1361 -0.0000 0.9907
vn -0.9822 -0.0000 -0.1881
vn 0.2382 -0.0000 -0.9712
vn 0.9574 -0.0000 0.2889
vn -0.2381 -0.0000 0.9712
vn -0.9574 -0.0000 -0.2889
vn 0.3347 -0.0000 -0.9423
vn 0.9236 -0.0000 0.3834
vn -0.3344 -0.0000 0.9424
vn -0.9236 -0.0000 -0.3834
vn 0.4326 -0.0000 -0.9016
vn 0.8804 -0.0000 0.4743
vn -0.4331 -0.0000 0.9013
vn -0.8804 -0.0000 -0.4743
vn 0.5168 -0.0000 -0.8561
vn 0.8310 -0.0000 0.5563
vn -0.5169 -0.0000 0.8560
vn -0.8310 -0.0000 -0.5563
vn 0.5892 -0.0000 -0.8080
vn 0.7892 -0.0000 0.6142
vn -0.5896 -0.0000 0.8077
vn -0.7892 -0.0000 -0.6142
vn 0.6275 -0.0000 -0.7786
vn 0.7781 -0.0000 0.6281
vn -0.6277 -0.0000 0.7785
vn -0.7781 -0.0000 -0.6281
vn 0.6131 -0.0000 -0.7900
vn 0.8146 -0.0000 0.5800
vn -0.6124 -0.0000 0.7906
vn -0.8146 -0.0000 -0.5800
vn 0.5256 -0.0000 -0.8507
vn 0.8914 -0.0000 0.4533
vn -0.5241 -0.0000 0.8516
vn -0.8914 -0.0000 -0.4533
vn 0.3663 -0.0000 -0.9305
vn 0.9647 -0.0000 0.2635
vn -0.3647 -0.0000 0.9311
vn -0.9647 -0.0000 -0.2635
vn 0.1586 -0.0000 -0.9873
vn 0.9983 -0.0000 0.0589
vn -0.1595 -0.0000 0.9872
vn -0.9983 -0.0000 -0.0589
vn -0.0395 -0.0000 -0.9992
vn 0.9915 -0.0000 -0.1302
vn 0.0386 -0.0000 0.9993
vn -0.9915 -0.0000 0.1302
vn -0.2164 -0.0000 -0.9763
vn 0.9546 -0.0000 -0.2980
vn 0.2161 -0.0000 0.9764
vn -0.9546 -0.0000 0.2980
vn -0.3689 -0.0000 -0.9295
vn 0.9011 -0.0000 -0.4336
vn 0.3685 -0.0000 0.9296
vn -0.9011 -0.0000 0.4336
vn -0.4854 -0.0000 -0.8743
vn 0.8527 -0.0000 -0.5224
vn 0.4844 -0.0000 0.8748
vn -0.8527 -0.0000 0.5224
vn -0.5456 -0.0000 -0.8381
vn 0.8315 -0.0000 -0.5556
vn 0.5452 -0.0000 0.8383
vn -0.8315 -0.0000 0.5556
vn -0.5487 -0.0000 -0.8360
vn 0.8489 -0.0000 -0.5285
vn 0.5490 -0.0000 0.8358
vn -0.8489 -0.0000 0.5285
vn -0.4924 -0.0000 -0.8704
vn 0.8930 -0.0000 -0.4501
vn 0.4928 -0.0000 0.8702
vn -0.8930 -0.0000 0.4501
vn -0.4009 -0.0000 -0.9161
vn 0.9388 -0.0000 -0.3446
vn 0.4014 -0.0000 0.9159
vn -0.9388 -0.0000 0.3446
vn -0.2855 -0.0000 -0.9584
vn 0.9734 -0.0000 -0.2291
vn 0.2852 -0.0000 0.9585
vn -0.9734 -0.0000 0.2291
vn -0.1711 -0.0000 -0.9852
vn 0.9934 -0.0000 -0.1143
vn 0.1710 -0.0000 0.9853
vn -0.9934 -0.0000 0.1143
vn -0.0587 -0.0000 -0.9983
vn 1.0000 -0.0000 -0.0036
vn 0.0587 -0.0000 0.9983
vn -1.0000 -0.0000 0.0036
vn 0.0505 -0.0000 -0.9987
vn 0.9945 -0.0000 0.1049
vn -0.0505 -0.0000 0.9987
vn -0.9945 -0.0000 -0.1049
vn 0.1597 -0.0000 -0.9872
vn 0.9765 -0.0000 0.2157
vn -0.1596 -0.0000 0.9872
vn -0.9765 -0.0000 -0.2157
vn 0.2736 -0.0000 -0.9618
vn 0.9428 -0.0000 0.3334
vn -0.2733 -0.0000 0.9619
vn -0.9428 -0.0000 -0.3334
vn 0.3953 -0.0000 -0.9186
vn 0.8883 -0.0000 0.4592
vn -0.3948 -0.0000 0.9187
vn -0.8883 -0.0000 -0.4592
vn 0.5237 -0.0000 -0.8519
vn 0.8076 -0.0000 0.5897
vn -0.5231 -0.0000 0.8523
vn -0.8076 -0.0000 -0.5897
vn 0.6535 -0.0000 -0.7569
vn 0.6983 -0.0000 0.7158
vn -0.6532 -0.0000 0.7572
vn -0.6983 -0.0000 -0.7158
vn 0.7743 -0.0000 -0.6328
vn 0.5661 -0.0000 0.8244
vn -0.7747 -0.0000 0.6323
vn -0.5661 -0.0000 -0.8244
vn 0.8689 -0.0000 -0.4950
vn 0.4248 -0.0000 0.9053
vn -0.8692 -0.0000 0.4944
vn -0.4248 -0.0000 -0.9053
vn 0.9345 -0.0000 -0.3559
vn 0.2895 -0.0000 0.9572
vn -0.9347 -0.0000 0.3554
vn -0.2895 -0.0000 -0.9572
vn 0.9739 -0.0000 -0.2270
vn 0.1673 -0.0000 0.9859
vn -0.9740 -0.0000 0.2266
vn -0.1673 -0.0000 -0.9859
vn 0.9938 -0.0000 -0.1114
vn 0.0582 -0.0000 0.9983
vn -0.9938 -0.0000 0.1112
vn -0.0582 -0.0000 -0.9983
vn 1.0000 -0.0000 -0.0077
vn -0.0409 -0.0000 0.9992
vn -1.0000 -0.0000 0.0075
vn 0.0409 -0.0000 -0.9992
vn 0.9962 -0.0000 0.0876
vn -0.1335 -0.0000 0.9911
vn -0.9962 -0.0000 -0.0876
vn 0.1335 -0.0000 -0.9911
vn 0.9840 -0.0000 0.1781
vn -0.2233 -0.0000 0.9747
vn -0.9840 0.0001 -0.1781
vn 0.2233 -0.0000 -0.9747
vn 0.9635 -0.0000 0.2677
vn -0.3141 -0.0000 0.9494
vn -0.9635 -0.0000 -0.2676
vn 0.3141 -0.0000 -0.9494
vn 0.9329 -0.0000 0.3603
vn -0.4093 -0.0000 0.9124
vn -0.9330 -0.0000 -0.3600
vn 0.4093 -0.0000 -0.9124
vn -0.5116 -0.0000 0.8592
vn -0.8885 -0.0000 -0.4589
vn 0.5116 -0.0000 -0.8592
vn 0.8249 -0.0000 0.5653
vn -0.6193 -0.0000 0.7852
vn -0.8251 -0.0000 -0.5651
vn 0.6193 -0.0000 -0.7852
vn 0.7385 -0.0000 0.6743
vn -0.7266 -0.0000 0.6871
vn -0.7386 -0.0000 -0.6742
vn 0.7266 -0.0000 -0.6871
vn 0.6280 -0.0000 0.7782
vn -0.8246 -0.0000 0.5657
vn -0.6280 -0.0000 -0.7782
vn 0.8246 -0.0000 -0.5657
vn 0.4971 -0.0000 0.8677
vn -0.9043 -0.0000 0.4270
vn -0.4968 -0.0000 -0.8678
vn 0.9043 -0.0000 -0.4270
vn 0.3539 -0.0000 0.9353
vn -0.9597 -0.0000 0.2810
vn -0.3536 -0.0000 -0.9354
vn 0.9597 -0.0000 -0.2810
vn 0.2087 -0.0000 0.9780
vn -0.9905 -0.0000 0.1374
vn -0.2085 -0.0000 -0.9780
vn 0.9905 -0.0000 -0.1374
vn 0.0693 -0.0000 0.9976
vn -1.0000 -0.0000 0.0018
vn -0.0692 -0.0000 -0.9976
vn 1.0000 -0.0000 -0.0018
vn -0.0610 -0.0000 0.9981
vn -0.9922 -0.0000 -0.1248
vn 0.0609 -0.0000 -0.9981
vn 0.9922 -0.0000 0.1248
vn -0.1853 -0.0000 0.9827
vn -0.9704 -0.0000 -0.2417
vn 0.1856 -0.0000 -0.9826
vn 0.9704 -0.0000 0.2417
vn -0.2965 -0.0000 0.9550
vn -0.9382 -0.0000 -0.3460
vn 0.2969 -0.0000 -0.9549
vn 0.9382 -0.0000 0.3460
vn -0.3908 -0.0000 0.9205
vn -0.9017 -0.0000 -0.4324
vn 0.3910 -0.0000 -0.9204
vn 0.9017 -0.0000 0.4324
vn -0.4658 -0.0000 0.8849
vn -0.8705 -0.0000 -0.4922
vn 0.4661 -0.0000 -0.8847
vn 0.8705 -0.0000 0.4922
vn -0.5081 -0.0000 0.8613
vn -0.8576 -0.0000 -0.5143
vn 0.5083 -0.0000 -0.8612
vn 0.8576 -0.0000 0.5143
vn -0.5057 -0.0000 0.8627
vn -0.8741 -0.0000 -0.4858
vn 0.5055 -0.0000 -0.8628
vn 0.8741 -0.0000 0.4858
vn -0.4518 -0.0000 0.8921
vn -0.9150 -0.0000 -0.4035
vn 0.4509 -0.0000 -0.8926
vn 0.9150 -0.0000 0.4035
vn -0.3424 -0.0000 0.9395
vn -0.9636 -0.0000 -0.2674
vn 0.3412 -0.0000 -0.9400
vn 0.9636 -0.0000 0.2674
vn -0.1812 -0.0000 0.9834
vn -0.9959 -0.0000 -0.0909
vn 0.1809 -0.0000 -0.9835
vn 0.9959 -0.0000 0.0909
vn 0.0052 -0.0000 1.0000
vn -0.9951 -0.0000 0.0993
vn -0.0050 -0.0000 -1.0000
vn 0.9951 -0.0000 -0.0993
vn 0.1924 -0.0000 0.9813
vn -0.9602 -0.0000 0.2794
vn -0.1919 -0.0000 -0.9814
vn 0.9602 -0.0000 -0.2794
vn 0.3565 -0.0000 0.9343
vn -0.9060 -0.0000 0.4232
vn -0.3557 -0.0000 -0.9346
vn 0.9060 -0.0000 -0.4232
vn 0.4725 -0.0000 0.8814
vn -0.8631 -0.0000 0.5051
vn -0.4715 -0.0000 -0.8819
vn 0.8631 -0.0000 -0.5051
vn 0.5197 -0.0000 0.8543
vn -0.8541 -0.0000 0.5201
vn -0.5195 -0.0000 -0.8545
vn 0.8541 -0.0000 -0.5201
vn 0.5036 -0.0000 0.8640
vn -0.8794 -0.0000 0.4760
vn -0.5040 -0.0000 -0.8637
vn 0.8794 -0.0000 -0.4760
vn 0.4367 -0.0000 0.8996
vn -0.9208 -0.0000 0.3900
vn -0.4371 -0.0000 -0.8994
vn 0.9208 -0.0000 -0.3900
vn 0.3389 -0.0000 0.9408
vn -0.9588 -0.0000 0.2839
vn -0.3391 -0.0000 -0.9407
vn 0.9588 -0.0000 -0.2839
vn 0.2315 -0.0000 0.9728
vn -0.9841 -0.0000 0.1775
vn -0.2315 -0.0000 -0.9728
vn 0.9841 -0.0000 -0.1775
vn 0.1259 -0.0000 0.9920
vn -0.9970 -0.0000 0.0775
vn -0.1256 -0.0000 -0.9921
vn 0.9970 -0.0000 -0.0775
vn 0.0273 -0.0000 0.9996
vn -0.9998 -0.0000 -0.0194
vn -0.0270 -0.0000 -0.9996
vn 0.9998 -0.0000 0.0194
vn -0.0666 -0.0000 0.9978
vn -0.9930 -0.0000 -0.1181
vn 0.0662 -0.0000 -0.9978
vn 0.9930 -0.0000 0.1181
vn -0.1661 -0.0000 0.9861
vn -0.9749 -0.0000 -0.2228
vn 0.1654 -0.0000 -0.9862
vn 0.9749 -0.0000 0.2228
vn -0.2747 -0.0000 0.9615
vn -0.9413 -0.0000 -0.3375
vn 0.2737 -0.0000 -0.9618
vn 0.9413 -0.0000 0.3375
vn -0.3952 -0.0000 0.9186
vn -0.8858 -0.0000 -0.4640
vn 0.3938 -0.0000 -0.9192
vn 0.8858 -0.0000 0.4640
vn -0.5276 -0.0000 0.8495
vn -0.8002 -0.0000 -0.5998
vn 0.5261 -0.0000 -0.8504
vn 0.8002 -0.0000 0.5998
vn -0.6664 -0.0000 0.7456
vn -0.6782 -0.0000 -0.7348
vn 0.6653 -0.0000 -0.7465
vn 0.6782 -0.0000 0.7348
vn -0.7974 -0.0000 0.6034
vn -0.5240 -0.0000 -0.8517
vn 0.7976 -0.0000 -0.6032
vn 0.5240 -0.0000 0.8517
vn -0.9013 -0.0000 0.4333
vn -0.3556 -0.0000 -0.9346
vn 0.9025 -0.0000 -0.4308
vn 0.3556 -0.0000 0.9346
vn -0.9652 -0.0000 0.2617
vn -0.1950 -0.0000 -0.9808
vn 0.9662 -0.0000 -0.2578
vn 0.1950 -0.0000 0.9808
vn -0.9931 -0.0000 0.1170
vn -0.0519 -0.0000 -0.9987
vn 0.9933 -0.0000 -0.1155
vn 0.0519 -0.0000 0.9986
vn -0.9999 -0.0000 0.0104
vn 0.0741 -0.0000 -0.9972
vn 0.9999 -0.0000 -0.0146
vn -0.0741 -0.0000 0.9972
vn -0.9999 -0.0000 0.0128
vn 0.0761 -0.0000 -0.9971
vn 0.9999 -0.0000 -0.0131
vn -0.0761 -0.0000 0.9971
vn -0.9999 -0.0000 0.0130
vn 0.9999 -0.0000 -0.0130
vt 0.999000 0.001000
vt 0.901000 0.001000
vt 0.901000 0.665700
vt 0.999000 0.665700
vt 0.799000 0.499000
vt 0.799000 0.417700
vt 0.401000 0.417700
vt 0.401000 0.499000
vt 0.899000 0.001000
vt 0.801000 0.001000
vt 0.801000 0.665700
vt 0.899000 0.665700
vt 0.799000 0.415700
vt 0.799000 0.334300
vt 0.401000 0.334300
vt 0.401000 0.415700
vt 0.399000 0.334300
vt 0.001000 0.334300
vt 0.001000 0.999000
vt 0.399000 0.999000
vt 0.799000 0.332300
vt 0.799000 0.001000
vt 0.001000 0.001000
vt 0.001000 0.332300
s 0
usemtl None.001
f 169/1/1 170/2/1 172/3/1 171/4/1
f 171/5/2 172/6/2 176/7/2 175/8/2
f 175/9/3 176/10/3 174/11/3 173/12/3
f 173/13/4 174/14/4 170/15/4 169/16/4
f 171/17/5 175/18/5 173/19/5 169/20/5
f 176/21/6 172/22/6 170/23/6 174/24/6
f 177/1/7 178/2/7 180/3/7 179/4/7
f 179/5/8 180/6/8 184/7/8 183/8/8
f 183/9/9 184/10/9 182/11/9 181/12/9
f 181/13/10 182/14/10 178/15/10 177/16/10
f 179/17/5 183/18/5 181/19/5 177/20/5
f 184/21/6 180/22/6 178/23/6 182/24/6
f 185/1/11 186/2/11 188/3/11 187/4/11
f 187/5/12 188/6/12 192/7/12 191/8/12
f 191/9/13 192/10/13 190/11/13 189/12/13
f 189/13/14 190/14/14 186/15/14 185/16/14
f 187/17/5 191/18/5 189/19/5 185/20/5
f 192/21/6 188/22/6 186/23/6 190/24/6
f 193/1/15 194/2/15 196/3/15 195/4/15
f 195/5/16 196/6/16 200/7/16 199/8/16
f 199/9/17 200/10/17 198/11/17 197/12/17
f 197/13/18 198/14/18 194/15/18 193/16/18
f 195/17/5 199/18/5 197/19/5 193/20/5
f 200/21/6 196/22/6 194/23/6 198/24/6
f 201/1/19 202/2/19 204/3/19 203/4/19
f 203/5/20 204/6/20 208/7/20 207/8/20
f 207/9/21 208/10/21 206/11/21 205/12/21
f 205/13/22 206/14/22 202/15/22 201/16/22
f 203/17/5 207/18/5 205/19/5 201/20/5
f 208/21/6 204/22/6 202/23/6 206/24/6
f 209/1/23 210/2/23 212/3/23 211/4/23
f 211/5/24 212/6/24 216/7/24 215/8/24
f 215/9/25 216/10/25 214/11/25 213/12/25
f 213/13/26 214/14/26 210/15/26 209/16/26
f 211/17/5 215/18/5 213/19/5 209/20/5
f 216/21/6 212/22/6 210/23/6 214/24/6
f 217/1/27 218/2/27 220/3/27 219/4/27
f 219/5/28 220/6/28 224/7/28 223/8/28
f 223/9/29 224/10/29 222/11/29 221/12/29
f 221/13/30 222/14/30 218/15/30 217/16/30
f 219/17/5 223/18/5 221/19/5 217/20/5
f 224/21/6 220/22/6 218/23/6 222/24/6
f 225/1/31 226/2/31 228/3/31 227/4/31
f 227/5/32 228/6/32 232/7/32 231/8/32
f 231/9/33 232/10/33 230/11/33 229/12/33
f 229/13/34 230/14/34 226/15/34 225/16/34
f 227/17/5 231/18/5 229/19/5 225/20/5
f 232/21/6 228/22/6 226/23/6 230/24/6
f 233/1/35 234/2/35 236/3/35 235/4/35
f 235/5/36 236/6/36 240/7/36 239/8/36
f 239/9/37 240/10/37 238/11/37 237/12/37
f 237/13/38 238/14/38 234/15/38 233/16/38
f 235/17/5 239/18/5 237/19/5 233/20/5
f 240/21/6 236/22/6 234/23/6 238/24/6
f 241/1/39 242/2/39 244/3/39 243/4/39
f 243/5/40 244/6/40 248/7/40 247/8/40
f 247/9/41 248/10/41 246/11/41 245/12/41
f 245/13/42 246/14/42 242/15/42 241/16/42
f 243/17/5 247/18/5 245/19/5 241/20/5
f 248/21/6 244/22/6 242/23/6 246/24/6
f 249/1/43 250/2/43 252/3/43 251/4/43
f 251/5/44 252/6/44 256/7/44 255/8/44
f 255/9/45 256/10/45 254/11/45 253/12/45
f 253/13/46 254/14/46 250/15/46 249/16/46
f 251/17/5 255/18/5 253/19/5 249/20/5
f 256/21/6 252/22/6 250/23/6 254/24/6
f 257/1/47 258/2/47 260/3/47 259/4/47
f 259/5/48 260/6/48 264/7/48 263/8/48
f 263/9/49 264/10/49 262/11/49 261/12/49
f 261/13/50 262/14/50 258/15/50 257/16/50
f 259/17/5 263/18/5 261/19/5 257/20/5
f 264/21/6 260/22/6 258/23/6 262/24/6
f 265/1/51 266/2/51 268/3/51 267/4/51
f 267/5/52 268/6/52 272/7/52 271/8/52
f 271/9/53 272/10/53 270/11/53 269/12/53
f 269/13/54 270/14/54 266/15/54 265/16/54
f 267/17/5 271/18/5 269/19/5 265/20/5
f 272/21/6 268/22/6 266/23/6 270/24/6
f 273/1/55 274/2/55 276/3/55 275/4/55
f 275/5/56 276/6/56 280/7/56 279/8/56
f 279/9/57 280/10/57 278/11/57 277/12/57
f 277/13/58 278/14/58 274/15/58 273/16/58
f 275/17/5 279/18/5 277/19/5 273/20/5
f 280/21/6 276/22/6 274/23/6 278/24/6
f 281/1/59 282/2/59 284/3/59 283/4/59
f 283/5/60 284/6/60 288/7/60 287/8/60
f 287/9/61 288/10/61 286/11/61 285/12/61
f 285/13/62 286/14/62 282/15/62 281/16/62
f 283/17/5 287/18/5 285/19/5 281/20/5
f 288/21/6 284/22/6 282/23/6 286/24/6
f 289/1/63 290/2/63 292/3/63 291/4/63
f 291/5/64 292/6/64 296/7/64 295/8/64
f 295/9/65 296/10/65 294/11/65 293/12/65
f 293/13/66 294/14/66 290/15/66 289/16/66
f 291/17/5 295/18/5 293/19/5 289/20/5
f 296/21/6 292/22/6 290/23/6 294/24/6
f 297/1/67 298/2/67 300/3/67 299/4/67
f 299/5/68 300/6/68 304/7/68 303/8/68
f 303/9/69 304/10/69 302/11/69 301/12/69
f 301/13/70 302/14/70 298/15/70 297/16/70
f 299/17/5 303/18/5 301/19/5 297/20/5
f 304/21/6 300/22/6 298/23/6 302/24/6
f 305/1/71 306/2/71 308/3/71 307/4/71
f 307/5/72 308/6/72 312/7/72 311/8/72
f 311/9/73 312/10/73 310/11/73 309/12/73
f 309/13/74 310/14/74 306/15/74 305/16/74
f 307/17/5 311/18/5 309/19/5 305/20/5
f 312/21/6 308/22/6 306/23/6 310/24/6
f 313/1/75 314/2/75 316/3/75 315/4/75
f 315/5/76 316/6/76 320/7/76 319/8/76
f 319/9/77 320/10/77 318/11/77 317/12/77
f 317/13/78 318/14/78 314/15/78 313/16/78
f 315/17/5 319/18/5 317/19/5 313/20/5
f 320/21/6 316/22/6 314/23/6 318/24/6
f 321/1/79 322/2/79 324/3/79 323/4/79
f 323/5/80 324/6/80 328/7/80 327/8/80
f 327/9/81 328/10/81 326/11/81 325/12/81
f 325/13/82 326/14/82 322/15/82 321/16/82
f 323/17/5 327/18/5 325/19/5 321/20/5
f 328/21/6 324/22/6 322/23/6 326/24/6
f 329/1/83 330/2/83 332/3/83 331/4/83
f 331/5/84 332/6/84 336/7/84 335/8/84
f 335/9/85 336/10/85 334/11/85 333/12/85
f 333/13/86 334/14/86 330/15/86 329/16/86
f 331/17/5 335/18/5 333/19/5 329/20/5
f 336/21/6 332/22/6 330/23/6 334/24/6
f 337/1/87 338/2/87 340/3/87 339/4/87
f 339/5/88 340/6/88 344/7/88 343/8/88
f 343/9/89 344/10/89 342/11/89 341/12/89
f 341/13/90 342/14/90 338/15/90 337/16/90
f 339/17/5 343/18/5 341/19/5 337/20/5
f 344/21/6 340/22/6 338/23/6 342/24/6
f 345/1/91 346/2/91 348/3/91 347/4/91
f 347/5/92 348/6/92 352/7/92 351/8/92
f 351/9/93 352/10/93 350/11/93 349/12/93
f 349/13/94 350/14/94 346/15/94 345/16/94
f 347/17/5 351/18/5 349/19/5 345/20/5
f 352/21/6 348/22/6 346/23/6 350/24/6
f 353/1/95 354/2/95 356/3/95 355/4/95
f 355/5/96 356/6/96 360/7/96 359/8/96
f 359/9/97 360/10/97 358/11/97 357/12/97
f 357/13/98 358/14/98 354/15/98 353/16/98
f 355/17/5 359/18/5 357/19/5 353/20/5
f 360/21/6 356/22/6 354/23/6 358/24/6
f 361/1/99 362/2/99 364/3/99 363/4/99
f 363/5/100 364/6/100 368/7/100 367/8/100
f 367/9/101 368/10/101 366/11/101 365/12/101
f 365/13/102 366/14/102 362/15/102 361/16/102
f 363/17/5 367/18/5 365/19/5 361/20/5
f 368/21/6 364/22/6 362/23/6 366/24/6
f 369/1/103 370/2/103 372/3/103 371/4/103
f 371/5/104 372/6/104 376/7/104 375/8/104
f 375/9/105 376/10/105 374/11/105 373/12/105
f 373/13/106 374/14/106 370/15/106 369/16/106
f 371/17/5 375/18/5 373/19/5 369/20/5
f 376/21/6 372/22/6 370/23/6 374/24/6
f 377/1/107 378/2/107 380/3/107 379/4/107
f 379/5/108 380/6/108 384/7/108 383/8/108
f 383/9/109 384/10/109 382/11/109 381/12/109
f 381/13/110 382/14/110 378/15/110 377/16/110
f 379/17/5 383/18/5 381/19/5 377/20/5
f 384/21/6 380/22/6 378/23/6 382/24/6
f 385/1/111 386/2/111 388/3/111 387/4/111
f 387/5/112 388/6/112 392/7/112 391/8/112
f 391/9/113 392/10/113 390/11/113 389/12/113
f 389/13/114 390/14/114 386/15/114 385/16/114
f 387/17/5 391/18/5 389/19/5 385/20/5
f 392/21/6 388/22/6 386/23/6 390/24/6
f 393/1/115 394/2/115 396/3/115 395/4/115
f 395/5/116 396/6/116 400/7/116 399/8/116
f 399/9/117 400/10/117 398/11/117 397/12/117
f 397/13/118 398/14/118 394/15/118 393/16/118
f 395/17/5 399/18/5 397/19/5 393/20/5
f 400/21/6 396/22/6 394/23/6 398/24/6
f 401/1/119 402/2/119 404/3/119 403/4/119
f 403/5/120 404/6/120 408/7/120 407/8/120
f 407/9/121 408/10/121 406/11/121 405/12/121
f 405/13/122 406/14/122 402/15/122 401/16/122
f 403/17/5 407/18/5 405/19/5 401/20/5
f 408/21/6 404/22/6 402/23/6 406/24/6
f 409/1/123 410/2/123 412/3/123 411/4/123
f 411/5/124 412/6/124 416/7/124 415/8/124
f 415/9/125 416/10/125 414/11/125 413/12/125
f 413/13/126 414/14/126 410/15/126 409/16/126
f 411/17/5 415/18/5 413/19/5 409/20/5
f 416/21/6 412/22/6 410/23/6 414/24/6
f 417/1/127 418/2/127 420/3/127 419/4/127
f 419/5/128 420/6/128 424/7/128 423/8/128
f 423/9/129 424/10/129 422/11/129 421/12/129
f 421/13/130 422/14/130 418/15/130 417/16/130
f 419/17/5 423/18/5 421/19/5 417/20/5
f 424/21/6 420/22/6 418/23/6 422/24/6
f 425/1/131 426/2/131 428/3/131 427/4/131
f 427/5/132 428/6/132 432/7/132 431/8/132
f 431/9/133 432/10/133 430/11/133 429/12/133
f 429/13/134 430/14/134 426/15/134 425/16/134
f 427/17/5 431/18/5 429/19/5 425/20/5
f 432/21/6 428/22/6 426/23/6 430/24/6
f 433/1/135 434/2/135 436/3/135 435/4/135
f 435/5/136 436/6/136 440/7/136 439/8/136
f 439/9/137 440/10/137 438/11/137 437/12/137
f 437/13/138 438/14/138 434/15/138 433/16/138
f 435/17/5 439/18/5 437/19/5 433/20/5
f 440/21/6 436/22/6 434/23/6 438/24/6
f 441/1/139 442/2/139 444/3/139 443/4/139
f 443/5/140 444/6/140 448/7/140 447/8/140
f 447/9/141 448/10/141 446/11/141 445/12/141
f 445/13/142 446/14/142 442/15/142 441/16/142
f 443/17/5 447/18/5 445/19/5 441/20/5
f 448/21/6 444/22/6 442/23/6 446/24/6
f 449/1/143 450/2/143 452/3/143 451/4/143
f 451/5/144 452/6/144 456/7/144 455/8/144
f 455/9/145 456/10/145 454/11/145 453/12/145
f 453/13/146 454/14/146 450/15/146 449/16/146
f 451/17/5 455/18/5 453/19/5 449/20/5
f 456/21/6 452/22/6 450/23/6 454/24/6
f 457/1/147 458/2/147 460/3/147 459/4/147
f 459/5/148 460/6/148 464/7/148 463/8/148
f 463/9/149 464/10/149 462/11/149 461/12/149
f 461/13/150 462/14/150 458/15/150 457/16/150
f 459/17/5 463/18/5 461/19/5 457/20/5
f 464/21/6 460/22/6 458/23/6 462/24/6
f 465/1/151 466/2/151 468/3/151 467/4/151
f 467/5/152 468/6/152 472/7/152 471/8/152
f 471/9/153 472/10/153 470/11/153 469/12/153
f 469/13/154 470/14/154 466/15/154 465/16/154
f 467/17/5 471/18/5 469/19/5 465/20/5
f 472/21/6 468/22/6 466/23/6 470/24/6
f 473/1/155 474/2/155 476/3/155 475/4/155
f 475/5/156 476/6/156 480/7/156 479/8/156
f 479/9/157 480/10/157 478/11/157 477/12/157
f 477/13/158 478/14/158 474/15/158 473/16/158
f 475/17/5 479/18/5 477/19/5 473/20/5
f 480/21/6 476/22/6 474/23/6 478/24/6
f 481/1/159 482/2/159 484/3/159 483/4/159
f 483/5/160 484/6/160 488/7/160 487/8/160
f 487/9/161 488/10/161 486/11/161 485/12/161
f 485/13/162 486/14/162 482/15/162 481/16/162
f 483/17/5 487/18/5 485/19/5 481/20/5
f 488/21/6 484/22/6 482/23/6 486/24/6
f 489/1/163 490/2/163 492/3/163 491/4/163
f 491/5/164 492/6/164 496/7/164 495/8/164
f 495/9/165 496/10/165 494/11/165 493/12/165
f 493/13/166 494/14/166 490/15/166 489/16/166
f 491/17/5 495/18/5 493/19/5 489/20/5
f 496/21/6 492/22/6 490/23/6 494/24/6
f 497/1/167 498/2/167 500/3/167 499/4/167
f 499/5/168 500/6/168 504/7/168 503/8/168
f 503/9/169 504/10/169 502/11/169 501/12/169
f 501/13/170 502/14/170 498/15/170 497/16/170
f 499/17/5 503/18/5 501/19/5 497/20/5
f 504/21/6 500/22/6 498/23/6 502/24/6
f 505/1/171 506/2/171 508/3/171 507/4/171
f 507/5/172 508/6/172 512/7/172 511/8/172
f 511/9/173 512/10/173 510/11/173 509/12/173
f 509/13/174 510/14/174 506/15/174 505/16/174
f 507/17/5 511/18/5 509/19/5 505/20/5
f 512/21/6 508/22/6 506/23/6 510/24/6
f 513/1/175 514/2/175 516/3/175 515/4/175
f 515/5/176 516/6/176 520/7/176 519/8/176
f 519/9/177 520/10/177 518/11/177 517/12/177
f 517/13/178 518/14/178 514/15/178 513/16/178
f 515/17/5 519/18/5 517/19/5 513/20/5
f 520/21/6 516/22/6 514/23/6 518/24/6
f 521/1/179 522/2/179 524/3/179 523/4/179
f 523/5/180 524/6/180 528/7/180 527/8/180
f 527/9/181 528/10/181 526/11/181 525/12/181
f 525/13/182 526/14/182 522/15/182 521/16/182
f 523/17/5 527/18/5 525/19/5 521/20/5
f 528/21/6 524/22/6 522/23/6 526/24/6
f 529/1/183 530/2/183 532/3/183 531/4/183
f 531/5/184 532/6/184 536/7/184 535/8/184
f 535/9/185 536/10/185 534/11/185 533/12/185
f 533/13/186 534/14/186 530/15/186 529/16/186
f 531/17/5 535/18/5 533/19/5 529/20/5
f 536/21/6 532/22/6 530/23/6 534/24/6
f 537/1/187 538/2/187 540/3/187 539/4/187
f 539/5/188 540/6/188 544/7/188 543/8/188
f 543/9/189 544/10/189 542/11/189 541/12/189
f 541/13/190 542/14/190 538/15/190 537/16/190
f 539/17/5 543/18/5 541/19/5 537/20/5
f 544/21/6 540/22/6 538/23/6 542/24/6
f 545/1/191 546/2/191 548/3/191 547/4/191
f 547/5/192 548/6/192 552/7/192 551/8/192
f 551/9/193 552/10/193 550/11/193 549/12/193
f 549/13/194 550/14/194 546/15/194 545/16/194
f 547/17/5 551/18/5 549/19/5 545/20/5
f 552/21/6 548/22/6 546/23/6 550/24/6
f 553/1/195 554/2/195 556/3/195 555/4/195
f 555/5/196 556/6/196 560/7/196 559/8/196
f 559/9/197 560/10/197 558/11/197 557/12/197
f 557/13/198 558/14/198 554/15/198 553/16/198
f 555/17/5 559/18/5 557/19/5 553/20/5
f 560/21/6 556/22/6 554/23/6 558/24/6
f 561/1/199 562/2/199 564/3/199 563/4/199
f 563/5/200 564/6/200 568/7/200 567/8/200
f 567/9/201 568/10/201 566/11/201 565/12/201
f 565/13/202 566/14/202 562/15/202 561/16/202
f 563/17/5 567/18/5 565/19/5 561/20/5
f 568/21/6 564/22/6 562/23/6 566/24/6
f 569/1/203 570/2/203 572/3/203 571/4/203
f 571/5/153 572/6/153 576/7/153 575/8/153
f 575/9/204 576/10/204 574/11/204 573/12/204
f 573/13/205 574/14/205 570/15/205 569/16/205
f 571/17/5 575/18/5 573/19/5 569/20/5
f 576/21/6 572/22/6 570/23/6 574/24/6
f 577/1/206 578/2/206 580/3/206 579/4/206
f 579/5/207 580/6/207 584/7/207 583/8/207
f 583/9/208 584/10/208 582/11/208 581/12/208
f 581/13/209 582/14/209 578/15/209 577/16/209
f 579/17/5 583/18/5 581/19/5 577/20/5
f 584/21/6 580/22/6 578/23/6 582/24/6
f 585/1/210 586/2/210 588/3/210 587/4/210
f 587/5/211 588/6/211 592/7/211 591/8/211
f 591/9/212 592/10/212 590/11/212 589/12/212
f 589/13/213 590/14/213 586/15/213 585/16/213
f 587/17/5 591/18/5 589/19/5 585/20/5
f 592/21/6 588/22/6 586/23/6 590/24/6
f 593/1/214 594/2/214 596/3/214 595/4/214
f 595/5/215 596/6/215 600/7/215 599/8/215
f 599/9/216 600/10/216 598/11/216 597/12/216
f 597/13/217 598/14/217 594/15/217 593/16/217
f 595/17/5 599/18/5 597/19/5 593/20/5
f 600/21/6 596/22/6 594/23/6 598/24/6
f 601/1/218 602/2/218 604/3/218 603/4/218
f 603/5/219 604/6/219 608/7/219 607/8/219
f 607/9/220 608/10/220 606/11/220 605/12/220
f 605/13/221 606/14/221 602/15/221 601/16/221
f 603/17/5 607/18/5 605/19/5 601/20/5
f 608/21/6 604/22/6 602/23/6 606/24/6
f 609/1/222 610/2/222 612/3/222 611/4/222
f 611/5/223 612/6/223 616/7/223 615/8/223
f 615/9/224 616/10/224 614/11/224 613/12/224
f 613/13/225 614/14/225 610/15/225 609/16/225
f 611/17/5 615/18/5 613/19/5 609/20/5
f 616/21/6 612/22/6 610/23/6 614/24/6
f 617/1/226 618/2/226 620/3/226 619/4/226
f 619/5/227 620/6/227 624/7/227 623/8/227
f 623/9/228 624/10/228 622/11/228 621/12/228
f 621/13/229 622/14/229 618/15/229 617/16/229
f 619/17/5 623/18/5 621/19/5 617/20/5
f 624/21/6 620/22/6 618/23/6 622/24/6
f 625/1/230 626/2/230 628/3/230 627/4/230
f 627/5/231 628/6/231 632/7/231 631/8/231
f 631/9/232 632/10/232 630/11/232 629/12/232
f 629/13/233 630/14/233 626/15/233 625/16/233
f 627/17/5 631/18/5 629/19/5 625/20/5
f 632/21/6 628/22/6 626/23/6 630/24/6
f 633/1/234 634/2/234 636/3/234 635/4/234
f 635/5/235 636/6/235 640/7/235 639/8/235
f 639/9/236 640/10/236 638/11/236 637/12/236
f 637/13/237 638/14/237 634/15/237 633/16/237
f 635/17/5 639/18/5 637/19/5 633/20/5
f 640/21/6 636/22/6 634/23/6 638/24/6
f 641/1/238 642/2/238 644/3/238 643/4/238
f 643/5/239 644/6/239 648/7/239 647/8/239
f 647/9/240 648/10/240 646/11/240 645/12/240
f 645/13/241 646/14/241 642/15/241 641/16/241
f 643/17/5 647/18/5 645/19/5 641/20/5
f 648/21/6 644/22/6 642/23/6 646/24/6
f 649/1/242 650/2/242 652/3/242 651/4/242
f 651/5/243 652/6/243 656/7/243 655/8/243
f 655/9/244 656/10/244 654/11/244 653/12/244
f 653/13/245 654/14/245 650/15/245 649/16/245
f 651/17/5 655/18/5 653/19/5 649/20/5
f 656/21/6 652/22/6 650/23/6 654/24/6
f 657/1/246 658/2/246 660/3/246 659/4/246
f 659/5/247 660/6/247 664/7/247 663/8/247
f 663/9/248 664/10/248 662/11/248 661/12/248
f 661/13/249 662/14/249 658/15/249 657/16/249
f 659/17/5 663/18/5 661/19/5 657/20/5
f 664/21/6 660/22/6 658/23/6 662/24/6
f 665/1/250 666/2/250 668/3/250 667/4/250
f 667/5/251 668/6/251 672/7/251 671/8/251
f 671/9/252 672/10/252 670/11/252 669/12/252
f 669/13/253 670/14/253 666/15/253 665/16/253
f 667/17/5 671/18/5 669/19/5 665/20/5
f 672/21/6 668/22/6 666/23/6 670/24/6
f 673/1/254 674/2/254 676/3/254 675/4/254
f 675/5/255 676/6/255 680/7/255 679/8/255
f 679/9/256 680/10/256 678/11/256 677/12/256
f 677/13/257 678/14/257 674/15/257 673/16/257
f 675/17/5 679/18/5 677/19/5 673/20/5
f 680/21/6 676/22/6 674/23/6 678/24/6
f 681/1/258 682/2/258 684/3/258 683/4/258
f 683/5/259 684/6/259 688/7/259 687/8/259
f 687/9/260 688/10/260 686/11/260 685/12/260
f 685/13/261 686/14/261 682/15/261 681/16/261
f 683/17/5 687/18/5 685/19/5 681/20/5
f 688/21/6 684/22/6 682/23/6 686/24/6
f 689/1/262 690/2/262 692/3/262 691/4/262
f 691/5/263 692/6/263 696/7/263 695/8/263
f 695/9/264 696/10/264 694/11/264 693/12/264
f 693/13/265 694/14/265 690/15/265 689/16/265
f 691/17/5 695/18/5 693/19/5 689/20/5
f 696/21/6 692/22/6 690/23/6 694/24/6
f 697/1/266 698/2/266 700/3/266 699/4/266
f 699/5/267 700/6/267 704/7/267 703/8/267
f 703/9/268 704/10/268 702/11/268 701/12/268
f 701/13/269 702/14/269 698/15/269 697/16/269
f 699/17/5 703/18/5 701/19/5 697/20/5
f 704/21/6 700/22/6 698/23/6 702/24/6
f 705/1/270 706/2/270 708/3/270 707/4/270
f 707/5/271 708/6/271 712/7/271 711/8/271
f 711/9/272 712/10/272 710/11/272 709/12/272
f 709/13/273 710/14/273 706/15/273 705/16/273
f 707/17/5 711/18/5 709/19/5 705/20/5
f 712/21/6 708/22/6 706/23/6 710/24/6
f 713/1/274 714/2/274 716/3/274 715/4/274
f 715/5/275 716/6/275 720/7/275 719/8/275
f 719/9/276 720/10/276 718/11/276 717/12/276
f 717/13/277 718/14/277 714/15/277 713/16/277
f 715/17/5 719/18/5 717/19/5 713/20/5
f 720/21/6 716/22/6 714/23/6 718/24/6
f 721/1/278 722/2/278 724/3/278 723/4/278
f 723/5/279 724/6/279 728/7/279 727/8/279
f 727/9/280 728/10/280 726/11/280 725/12/280
f 725/13/281 726/14/281 722/15/281 721/16/281
f 723/17/5 727/18/5 725/19/5 721/20/5
f 728/21/6 724/22/6 722/23/6 726/24/6
f 729/1/282 730/2/282 732/3/282 731/4/282
f 731/5/283 732/6/283 736/7/283 735/8/283
f 735/9/284 736/10/284 734/11/284 733/12/284
f 733/13/285 734/14/285 730/15/285 729/16/285
f 731/17/5 735/18/5 733/19/5 729/20/5
f 736/21/6 732/22/6 730/23/6 734/24/6
f 737/1/286 738/2/286 740/3/286 739/4/286
f 739/5/287 740/6/287 744/7/287 743/8/287
f 743/9/288 744/10/288 742/11/288 741/12/288
f 741/13/289 742/14/289 738/15/289 737/16/289
f 739/17/5 743/18/5 741/19/5 737/20/5
f 744/21/6 740/22/6 738/23/6 742/24/6
f 745/1/290 746/2/290 748/3/290 747/4/290
f 747/5/291 748/6/291 752/7/291 751/8/291
f 751/9/292 752/10/292 750/11/292 749/12/292
f 749/13/293 750/14/293 746/15/293 745/16/293
f 747/17/5 751/18/5 749/19/5 745/20/5
f 752/21/6 748/22/6 746/23/6 750/24/6
f 753/1/294 754/2/294 756/3/294 755/4/294
f 755/5/295 756/6/295 760/7/295 759/8/295
f 759/9/296 760/10/296 758/11/296 757/12/296
f 757/13/297 758/14/297 754/15/297 753/16/297
f 755/17/5 759/18/5 757/19/5 753/20/5
f 760/21/6 756/22/6 754/23/6 758/24/6
f 761/1/298 762/2/298 764/3/298 763/4/298
f 763/5/299 764/6/299 768/7/299 767/8/299
f 767/9/300 768/10/300 766/11/300 765/12/300
f 765/13/301 766/14/301 762/15/301 761/16/301
f 763/17/5 767/18/5 765/19/5 761/20/5
f 768/21/6 764/22/6 762/23/6 766/24/6
f 769/1/302 770/2/302 772/3/302 771/4/302
f 771/5/303 772/6/303 776/7/303 775/8/303
f 775/9/304 776/10/304 774/11/304 773/12/304
f 773/13/305 774/14/305 770/15/305 769/16/305
f 771/17/5 775/18/5 773/19/5 769/20/5
f 776/21/6 772/22/6 770/23/6 774/24/6
f 777/1/306 778/2/306 780/3/306 779/4/306
f 779/5/307 780/6/307 784/7/307 783/8/307
f 783/9/308 784/10/308 782/11/308 781/12/308
f 781/13/309 782/14/309 778/15/309 777/16/309
f 779/17/5 783/18/5 781/19/5 777/20/5
f 784/21/6 780/22/6 778/23/6 782/24/6
f 785/1/310 786/2/310 788/3/310 787/4/310
f 787/5/311 788/6/311 792/7/311 791/8/311
f 791/9/312 792/10/312 790/11/312 789/12/312
f 789/13/313 790/14/313 786/15/313 785/16/313
f 787/17/5 791/18/5 789/19/5 785/20/5
f 792/21/6 788/22/6 786/23/6 790/24/6
f 793/1/314 794/2/314 796/3/314 795/4/314
f 795/5/315 796/6/315 800/7/315 799/8/315
f 799/9/316 800/10/316 798/11/316 797/12/316
f 797/13/317 798/14/317 794/15/317 793/16/317
f 795/17/5 799/18/5 797/19/5 793/20/5
f 800/21/6 796/22/6 794/23/6 798/24/6
f 801/1/318 802/2/318 804/3/318 803/4/318
f 803/5/319 804/6/319 808/7/319 807/8/319
f 807/9/320 808/10/320 806/11/320 805/12/320
f 805/13/321 806/14/321 802/15/321 801/16/321
f 803/17/5 807/18/5 805/19/5 801/20/5
f 808/21/6 804/22/6 802/23/6 806/24/6
f 809/1/322 810/2/322 812/3/322 811/4/322
f 811/5/323 812/6/323 816/7/323 815/8/323
f 815/9/324 816/10/324 814/11/324 813/12/324
f 813/13/325 814/14/325 810/15/325 809/16/325
f 811/17/5 815/18/5 813/19/5 809/20/5
f 816/21/6 812/22/6 810/23/6 814/24/6
f 817/1/326 818/2/326 820/3/326 819/4/326
f 819/5/327 820/6/327 824/7/327 823/8/327
f 823/9/328 824/10/328 822/11/328 821/12/328
f 821/13/329 822/14/329 818/15/329 817/16/329
f 819/17/5 823/18/5 821/19/5 817/20/5
f 824/21/6 820/22/6 818/23/6 822/24/6
f 825/1/330 826/2/330 828/3/330 827/4/330
f 827/5/331 828/6/331 832/7/331 831/8/331
f 831/9/332 832/10/332 830/11/332 829/12/332
f 829/13/333 830/14/333 826/15/333 825/16/333
f 827/17/5 831/18/5 829/19/5 825/20/5
f 832/21/6 828/22/6 826/23/6 830/24/6
f 833/1/334 834/2/334 836/3/334 835/4/334
f 835/5/335 836/6/335 840/7/335 839/8/335
f 839/9/336 840/10/336 838/11/336 837/12/336
f 837/13/337 838/14/337 834/15/337 833/16/337
f 835/17/5 839/18/5 837/19/5 833/20/5
f 840/21/6 836/22/6 834/23/6 838/24/6
f 841/1/338 842/2/338 844/3/338 843/4/338
f 843/5/339 844/6/339 848/7/339 847/8/339
f 847/9/340 848/10/340 846/11/340 845/12/340
f 845/13/341 846/14/341 842/15/341 841/16/341
f 843/17/5 847/18/5 845/19/5 841/20/5
f 848/21/6 844/22/6 842/23/6 846/24/6
f 849/1/342 850/2/342 852/3/342 851/4/342
f 851/5/343 852/6/343 856/7/343 855/8/343
f 855/9/344 856/10/344 854/11/344 853/12/344
f 853/13/345 854/14/345 850/15/345 849/16/345
f 851/17/5 855/18/5 853/19/5 849/20/5
f 856/21/6 852/22/6 850/23/6 854/24/6
f 857/1/346 858/2/346 860/3/346 859/4/346
f 859/5/347 860/6/347 864/7/347 863/8/347
f 863/9/348 864/10/348 862/11/348 861/12/348
f 861/13/349 862/14/349 858/15/349 857/16/349
f 859/17/5 863/18/5 861/19/5 857/20/5
f 864/21/6 860/22/6 858/23/6 862/24/6
f 865/1/350 866/2/350 868/3/350 867/4/350
f 867/5/351 868/6/351 872/7/351 871/8/351
f 871/9/352 872/10/352 870/11/352 869/12/352
f 869/13/353 870/14/353 866/15/353 865/16/353
f 867/17/5 871/18/5 869/19/5 865/20/5
f 872/21/6 868/22/6 866/23/6 870/24/6
f 873/1/354 874/2/354 876/3/354 875/4/354
f 875/5/355 876/6/355 880/7/355 879/8/355
f 879/9/356 880/10/356 878/11/356 877/12/356
f 877/13/357 878/14/357 874/15/357 873/16/357
f 875/17/5 879/18/5 877/19/5 873/20/5
f 880/21/6 876/22/6 874/23/6 878/24/6
f 881/1/358 882/2/358 884/3/358 883/4/358
f 883/5/359 884/6/359 888/7/359 887/8/359
f 887/9/360 888/10/360 886/11/360 885/12/360
f 885/13/361 886/14/361 882/15/361 881/16/361
f 883/17/5 887/18/5 885/19/5 881/20/5
f 888/21/6 884/22/6 882/23/6 886/24/6
f 889/1/362 890/2/362 892/3/362 891/4/362
f 891/5/363 892/6/363 896/7/363 895/8/363
f 895/9/364 896/10/364 894/11/364 893/12/364
f 893/13/365 894/14/365 890/15/365 889/16/365
f 891/17/5 895/18/5 893/19/5 889/20/5
f 896/21/6 892/22/6 890/23/6 894/24/6
f 897/1/366 898/2/366 900/3/366 899/4/366
f 899/5/367 900/6/367 904/7/367 903/8/367
f 903/9/364 904/10/364 902/11/364 901/12/364
f 901/13/368 902/14/368 898/15/368 897/16/368
f 899/17/5 903/18/5 901/19/5 897/20/5
f 904/21/6 900/22/6 898/23/6 902/24/6
o NurbsPath.002
v -68.581238 -0.000013 -4.696270
v -68.290085 -0.000013 -14.683870
v -66.686821 -0.000013 -22.710432
v -64.040718 -0.000013 -29.013220
v -60.597336 -0.000013 -33.814114
v -56.578541 -0.000013 -37.319561
v -52.182426 -0.000013 -39.720604
v -47.583378 -0.000013 -41.192867
v -42.932064 -0.000013 -41.896572
v -38.355412 -0.000013 -41.976532
v -33.956608 -0.000013 -41.562122
v -29.815130 -0.000013 -40.767338
v -25.986713 -0.000013 -39.690735
v -22.503380 -0.000013 -38.415474
v -19.373417 -0.000013 -37.009296
v -16.581369 -0.000013 -35.524532
v -14.088607 -0.000013 -33.998356
v -11.843549 -0.000013 -32.457634
v -9.796943 -0.000013 -30.926155
v -7.904171 -0.000013 -29.425726
v -6.125234 -0.000013 -27.976179
v -4.424769 -0.000013 -26.595345
v -2.772033 -0.000013 -25.299076
v -1.140919 -0.000013 -24.101242
v 0.490066 -0.000013 -23.013723
v 2.137769 -0.000013 -22.046415
v 3.814422 -0.000013 -21.207233
v 5.527627 -0.000013 -20.502100
v 7.280362 -0.000013 -19.934965
v 9.070965 -0.000013 -19.507769
v 10.893160 -0.000013 -19.220493
v 12.736077 -0.000013 -19.071133
v 14.586059 -0.000013 -19.056026
v 16.430538 -0.000013 -19.170605
v 18.259029 -0.000013 -19.409552
v 20.063131 -0.000013 -19.766802
v 21.836477 -0.000013 -20.235546
v 23.574804 -0.000013 -20.808245
v 25.275894 -0.000013 -21.476603
v 26.939604 -0.000013 -22.231575
v 28.567867 -0.000013 -23.063391
v 30.164679 -0.000013 -23.961521
v 31.736101 -0.000013 -24.914694
v 33.290279 -0.000013 -25.910902
v 34.837406 -0.000013 -26.937391
v 36.389763 -0.000013 -27.980658
v 37.961666 -0.000013 -29.026461
v 39.568733 -0.000013 -30.060108
v 41.225101 -0.000013 -31.067396
v 42.942474 -0.000013 -32.034973
v 44.730145 -0.000013 -32.950336
v 46.594902 -0.000013 -33.801861
v 48.541149 -0.000013 -34.578754
v 50.570759 -0.000013 -35.271069
v 52.683243 -0.000013 -35.869743
v 54.875587 -0.000013 -36.366539
v 57.142384 -0.000013 -36.754101
v 59.475735 -0.000013 -37.025906
v 61.865326 -0.000013 -37.176304
v 64.298355 -0.000013 -37.200470
v 66.759621 -0.000013 -37.094467
v 69.231422 -0.000013 -36.855194
v 71.694046 -0.000013 -36.480385
v 74.128082 -0.000013 -35.968506
v 76.515480 -0.000013 -35.318657
v 78.839767 -0.000013 -34.530617
v 81.085976 -0.000013 -33.604809
v 83.240669 -0.000013 -32.542332
v 85.291901 -0.000013 -31.344904
v 87.229256 -0.000013 -30.014927
v 89.043839 -0.000013 -28.555464
v 90.728226 -0.000013 -26.970217
v 92.276604 -0.000013 -25.263544
v 93.684555 -0.000013 -23.440462
v 94.949295 -0.000013 -21.506660
v 96.069435 -0.000013 -19.468473
v 97.045258 -0.000013 -17.332876
v 97.878304 -0.000013 -15.107501
v 98.570801 -0.000013 -12.800536
v 99.124855 -0.000013 -10.420625
v 99.542488 -0.000013 -7.976834
v 99.825546 -0.000013 -5.478721
v 99.975769 -0.000013 -2.936292
v 99.994751 -0.000013 -0.360000
v 99.883980 -0.000013 2.239224
v 99.644791 -0.000013 4.850051
v 99.278404 -0.000013 7.460641
v 98.785942 -0.000013 10.058717
v 98.168297 -0.000013 12.631532
v 97.426353 -0.000013 15.165936
v 96.560768 -0.000013 17.648270
v 95.572182 -0.000013 20.064440
v 94.460999 -0.000013 22.399933
v 93.228058 -0.000013 24.640627
v 91.875084 -0.000013 26.773619
v 90.404747 -0.000013 28.787382
v 88.820702 -0.000013 30.671778
v 87.127548 -0.000013 32.418011
v 85.330841 -0.000013 34.018700
v 83.437096 -0.000013 35.467777
v 81.453796 -0.000013 36.760597
v 79.389412 -0.000013 37.893829
v 77.253311 -0.000013 38.865578
v 75.055878 -0.000013 39.675255
v 72.808426 -0.000013 40.323689
v 70.523270 -0.000013 40.813038
v 68.213608 -0.000013 41.146862
v 65.893661 -0.000013 41.330078
v 63.577682 -0.000013 41.368710
v 61.278584 -0.000013 41.269474
v 59.007553 -0.000013 41.039684
v 56.774120 -0.000013 40.687271
v 54.586159 -0.000013 40.220764
v 52.449837 -0.000013 39.649292
v 50.369652 -0.000013 38.982586
v 48.348404 -0.000013 38.230976
v 46.387241 -0.000013 37.405411
v 44.485622 -0.000013 36.517429
v 42.641342 -0.000013 35.579185
v 40.850468 -0.000013 34.603409
v 39.107445 -0.000013 33.603462
v 37.405010 -0.000013 32.593307
v 35.734238 -0.000013 31.587484
v 34.085178 -0.000013 30.600790
v 32.448582 -0.000013 29.647263
v 30.816370 -0.000013 28.739868
v 29.181715 -0.000013 27.890545
v 27.539011 -0.000013 27.110180
v 25.883863 -0.000013 26.408611
v 24.213076 -0.000013 25.794611
v 22.524694 -0.000013 25.275913
v 20.817963 -0.000013 24.859196
v 19.093357 -0.000013 24.550095
v 17.352581 -0.000013 24.353182
v 15.598487 -0.000013 24.271978
v 13.835218 -0.000013 24.308973
v 12.068107 -0.000013 24.465582
v 10.303704 -0.000013 24.742182
v 8.549120 -0.000013 25.137974
v 6.809297 -0.000013 25.650486
v 5.085789 -0.000013 26.275328
v 3.376749 -0.000013 27.006187
v 1.676830 -0.000013 27.834879
v -0.022665 -0.000013 28.751272
v -1.733876 -0.000013 29.743330
v -3.472378 -0.000013 30.797096
v -5.257164 -0.000013 31.896721
v -7.110648 -0.000013 33.024418
v -9.058674 -0.000013 34.160496
v -11.130509 -0.000013 35.283363
v -13.358811 -0.000013 36.369488
v -15.779761 -0.000013 37.393475
v -18.432865 -0.000013 38.327961
v -21.359068 -0.000013 39.143318
v -24.587368 -0.000013 39.805027
v -28.125826 -0.000013 40.271999
v -31.961092 -0.000013 40.496449
v -36.058407 -0.000013 40.423931
v -40.361553 -0.000013 39.993286
v -44.793091 -0.000013 39.136703
v -49.254005 -0.000013 37.779682
v -53.623913 -0.000013 35.841022
v -57.761047 -0.000013 33.232872
v -61.502239 -0.000013 29.860689
v -64.662880 -0.000013 25.623230
v -67.037010 -0.000013 20.412600
v -68.397232 -0.000013 14.114204
v -68.494743 -0.000013 6.606890
l 905 906
l 906 907
l 907 908
l 908 909
l 909 910
l 910 911
l 911 912
l 912 913
l 913 914
l 914 915
l 915 916
l 916 917
l 917 918
l 918 919
l 919 920
l 920 921
l 921 922
l 922 923
l 923 924
l 924 925
l 925 926
l 926 927
l 927 928
l 928 929
l 929 930
l 930 931
l 931 932
l 932 933
l 933 934
l 934 935
l 935 936
l 936 937
l 937 938
l 938 939
l 939 940
l 940 941
l 941 942
l 942 943
l 943 944
l 944 945
l 945 946
l 946 947
l 947 948
l 948 949
l 949 950
l 950 951
l 951 952
l 952 953
l 953 954
l 954 955
l 955 956
l 956 957
l 957 958
l 958 959
l 959 960
l 960 961
l 961 962
l 962 963
l 963 964
l 964 965
l 965 966
l 966 967
l 967 968
l 968 969
l 969 970
l 970 971
l 971 972
l 972 973
l 973 974
l 974 975
l 975 976
l 976 977
l 977 978
l 978 979
l 979 980
l 980 981
l 981 982
l 982 983
l 983 984
l 984 985
l 985 986
l 986 987
l 987 988
l 988 989
l 989 990
l 990 991
l 991 992
l 992 993
l 993 994
l 994 995
l 995 996
l 996 997
l 997 998
l 998 999
l 999 1000
l 1000 1001
l 1001 1002
l 1002 1003
l 1003 1004
l 1004 1005
l 1005 1006
l 1006 1007
l 1007 1008
l 1008 1009
l 1009 1010
l 1010 1011
l 1011 1012
l 1012 1013
l 1013 1014
l 1014 1015
l 1015 1016
l 1016 1017
l 1017 1018
l 1018 1019
l 1019 1020
l 1020 1021
l 1021 1022
l 1022 1023
l 1023 1024
l 1024 1025
l 1025 1026
l 1026 1027
l 1027 1028
l 1028 1029
l 1029 1030
l 1030 1031
l 1031 1032
l 1032 1033
l 1033 1034
l 1034 1035
l 1035 1036
l 1036 1037
l 1037 1038
l 1038 1039
l 1039 1040
l 1040 1041
l 1041 1042
l 1042 1043
l 1043 1044
l 1044 1045
l 1045 1046
l 1046 1047
l 1047 1048
l 1048 1049
l 1049 1050
l 1050 1051
l 1051 1052
l 1052 1053
l 1053 1054
l 1054 1055
l 1055 1056
l 1056 1057
l 1057 1058
l 1058 1059
l 1059 1060
l 1060 1061
l 1061 1062
l 1062 1063
l 1063 1064
l 1064 1065
l 1065 1066
l 1066 1067
l 1067 1068
l 1068 1069
l 1069 1070
l 1070 1071
l 1071 1072
