# Blender 4.2.0
# www.blender.org
mtllib curve.mtl
o old_road
v -64.168922 0.079225 -2.388306
v -64.168922 0.200337 -2.388306
v -73.139000 0.079223 -2.014419
v -73.139000 0.200335 -2.014419
v -64.019012 0.079224 -7.223181
v -64.019012 0.200336 -7.223181
v -72.996841 0.079224 -7.199142
v -72.996841 0.200336 -7.199142
v -64.019012 0.079224 -7.223181
v -64.019012 0.200336 -7.223181
v -72.996841 0.079224 -7.199142
v -72.996841 0.200336 -7.199142
v -63.885559 0.079225 -11.884727
v -63.885559 0.200337 -11.884728
v -72.838211 0.079223 -12.557192
v -72.838211 0.200335 -12.557192
v -63.885559 0.079225 -11.884727
v -63.885559 0.200337 -11.884728
v -72.838211 0.079223 -12.557192
v -72.838211 0.200335 -12.557192
v -63.367138 0.079225 -16.420923
v -63.367138 0.200337 -16.420923
v -72.214867 0.079223 -17.944046
v -72.214867 0.200336 -17.944046
v -63.367138 0.079225 -16.420923
v -63.367138 0.200337 -16.420923
v -72.214867 0.079223 -17.944046
v -72.214867 0.200336 -17.944046
v -62.499222 0.079225 -20.842772
v -62.499222 0.200337 -20.842772
v -71.119339 0.079223 -23.351877
v -71.119339 0.200335 -23.351877
v -62.499222 0.079225 -20.842772
v -62.499222 0.200337 -20.842772
v -71.119339 0.079223 -23.351877
v -71.119339 0.200335 -23.351877
v -60.915390 0.079224 -24.868748
v -60.915390 0.200336 -24.868748
v -69.062057 0.079224 -28.641541
v -69.062057 0.200336 -28.641541
v -60.915390 0.079224 -24.868748
v -60.915390 0.200336 -24.868748
v -69.062057 0.079224 -28.641541
v -69.062057 0.200336 -28.641541
v -58.864441 0.079225 -28.528860
v -58.864441 0.200337 -28.528860
v -66.229523 0.079223 -33.662830
v -66.229523 0.200336 -33.662830
v -58.864441 0.079225 -28.528860
v -58.864441 0.200337 -28.528860
v -66.229523 0.079223 -33.662830
v -66.229523 0.200336 -33.662830
v -56.239590 0.079225 -31.664721
v -56.239590 0.200337 -31.664721
v -62.442940 0.079223 -38.154755
v -62.442940 0.200335 -38.154755
v -56.239590 0.079225 -31.664721
v -56.239590 0.200337 -31.664721
v -62.442940 0.079223 -38.154755
v -62.442940 0.200335 -38.154755
v -53.036331 0.079224 -34.146824
v -53.036331 0.200336 -34.146824
v -57.758369 0.079224 -41.782562
v -57.758369 0.200336 -41.782562
v -53.036331 0.079224 -34.146824
v -53.036331 0.200336 -34.146824
v -57.758369 0.079224 -41.782562
v -57.758369 0.200336 -41.782562
v -49.333321 0.079225 -35.924355
v -49.333321 0.200337 -35.924355
v -52.462482 0.079223 -44.339249
v -52.462482 0.200336 -44.339249
v -49.333321 0.079225 -35.924355
v -49.333321 0.200337 -35.924355
v -52.462482 0.079223 -44.339249
v -52.462482 0.200336 -44.339249
v -45.254700 0.079224 -37.007515
v -45.254700 0.200336 -37.007515
v -46.883106 0.079224 -45.836468
v -46.883106 0.200336 -45.836464
v -45.254700 0.079224 -37.007515
v -45.254700 0.200336 -37.007515
v -46.883106 0.079224 -45.836468
v -46.883106 0.200336 -45.836464
v -40.936909 0.079224 -37.442474
v -40.936909 0.200336 -37.442474
v -41.248997 0.079223 -46.414917
v -41.248997 0.200336 -46.414917
v -40.936909 0.079224 -37.442474
v -40.936909 0.200336 -37.442474
v -41.248997 0.079223 -46.414917
v -41.248997 0.200336 -46.414917
v -36.501717 0.079225 -37.293087
v -36.501717 0.200337 -37.293091
v -35.681221 0.079223 -46.233387
v -35.681221 0.200335 -46.233387
v -36.501717 0.079225 -37.293087
v -36.501717 0.200337 -37.293091
v -35.681221 0.079223 -46.233387
v -35.681221 0.200335 -46.233387
v -32.045559 0.079225 -36.624931
v -32.045559 0.200337 -36.624931
v -30.235218 0.079223 -45.418381
v -30.235218 0.200335 -45.418381
v -32.045559 0.079225 -36.624931
v -32.045559 0.200337 -36.624931
v -30.235218 0.079223 -45.418381
v -30.235218 0.200335 -45.418381
v -27.642380 0.079224 -35.495663
v -27.642380 0.200337 -35.495663
v -24.936426 0.079224 -44.056034
v -24.936426 0.200336 -44.056034
v -27.642385 0.079224 -35.495663
v -27.642385 0.200337 -35.495663
v -24.936434 0.079224 -44.056034
v -24.936434 0.200336 -44.056034
v -23.376738 0.079224 -33.887299
v -23.376738 0.200336 -33.887299
v -19.827454 0.079224 -42.133797
v -19.827454 0.200336 -42.133797
v -23.376738 0.079224 -33.887299
v -23.376738 0.200336 -33.887299
v -19.827454 0.079224 -42.133797
v -19.827454 0.200336 -42.133797
v -19.285633 0.079224 -31.879278
v -19.285633 0.200336 -31.879278
v -14.925353 0.079224 -39.727215
v -14.925353 0.200336 -39.727215
v -19.285639 0.079224 -31.879278
v -19.285639 0.200336 -31.879278
v -14.925362 0.079224 -39.727215
v -14.925362 0.200336 -39.727215
v -15.393807 0.079224 -29.449726
v -15.393807 0.200336 -29.449728
v -10.317389 0.079224 -36.854599
v -10.317389 0.200336 -36.854595
v -15.393807 0.079224 -29.449726
v -15.393807 0.200336 -29.449728
v -10.317389 0.079224 -36.854599
v -10.317389 0.200336 -36.854595
v -11.610866 0.079224 -26.635832
v -11.610866 0.200336 -26.635832
v -6.057913 0.079224 -33.690392
v -6.057913 0.200336 -33.690392
v -11.610871 0.079224 -26.635838
v -11.610871 0.200337 -26.635838
v -6.057918 0.079223 -33.690399
v -6.057918 0.200336 -33.690399
v -7.747336 0.079224 -23.510925
v -7.747336 0.200336 -23.510925
v -2.127444 0.079224 -30.512280
v -2.127444 0.200336 -30.512280
v -7.747336 0.079224 -23.510925
v -7.747336 0.200336 -23.510925
v -2.127444 0.079224 -30.512280
v -2.127444 0.200336 -30.512280
v -3.504091 0.079225 -20.282393
v -3.504091 0.200337 -20.282393
v 1.600718 0.079223 -27.667719
v 1.600719 0.200336 -27.667719
v -3.504098 0.079225 -20.282396
v -3.504098 0.200337 -20.282396
v 1.600713 0.079223 -27.667723
v 1.600713 0.200335 -27.667723
v 1.424215 0.079225 -17.384541
v 1.424215 0.200337 -17.384541
v 5.298693 0.079223 -25.483337
v 5.298693 0.200335 -25.483337
v 1.424215 0.079225 -17.384541
v 1.424215 0.200337 -17.384541
v 5.298693 0.079223 -25.483337
v 5.298693 0.200335 -25.483337
v 7.005669 0.079225 -15.385628
v 7.005669 0.200337 -15.385628
v 9.131882 0.079223 -24.108089
v 9.131882 0.200335 -24.108089
v 7.005661 0.079225 -15.385631
v 7.005661 0.200337 -15.385630
v 9.131876 0.079223 -24.108091
v 9.131876 0.200335 -24.108091
v 12.874129 0.079225 -14.582342
v 12.874129 0.200336 -14.582342
v 13.173902 0.079223 -23.555204
v 13.173902 0.200335 -23.555204
v 12.874129 0.079225 -14.582342
v 12.874129 0.200336 -14.582342
v 13.173902 0.079223 -23.555204
v 13.173902 0.200335 -23.555204
v 18.707169 0.079225 -14.942308
v 18.707169 0.200337 -14.942308
v 17.330469 0.079224 -23.813993
v 17.330469 0.200336 -23.813993
v 18.707169 0.079225 -14.942308
v 18.707169 0.200337 -14.942308
v 17.330469 0.079224 -23.813993
v 17.330469 0.200336 -23.813993
v 24.302845 0.079224 -16.321877
v 24.302845 0.200336 -16.321877
v 21.452610 0.079224 -24.835295
v 21.452610 0.200336 -24.835295
v 24.302845 0.079224 -16.321877
v 24.302845 0.200336 -16.321877
v 21.452610 0.079224 -24.835295
v 21.452610 0.200336 -24.835295
v 29.503077 0.079224 -18.500553
v 29.503077 0.200337 -18.500553
v 25.486286 0.079223 -26.529720
v 25.486286 0.200336 -26.529718
v 29.503059 0.079225 -18.500546
v 29.503059 0.200337 -18.500546
v 25.486273 0.079223 -26.529713
v 25.486273 0.200335 -26.529715
v 34.232452 0.079224 -21.183184
v 34.232452 0.200336 -21.183184
v 29.470173 0.079223 -28.793884
v 29.470173 0.200335 -28.793884
v 34.232452 0.079224 -21.183184
v 34.232452 0.200336 -21.183184
v 29.470173 0.079223 -28.793884
v 29.470173 0.200335 -28.793884
v 38.532249 0.079225 -24.012056
v 38.532249 0.200336 -24.012056
v 33.542923 0.079224 -31.475883
v 33.542923 0.200336 -31.475883
v 38.532249 0.079225 -24.012056
v 38.532249 0.200336 -24.012056
v 33.542923 0.079224 -31.475883
v 33.542923 0.200336 -31.475883
v 42.577816 0.079225 -26.636190
v 42.577816 0.200336 -26.636190
v 37.907619 0.079224 -34.303745
v 37.907619 0.200336 -34.303745
v 42.577816 0.079225 -26.636190
v 42.577816 0.200336 -26.636190
v 37.907619 0.079224 -34.303745
v 37.907619 0.200336 -34.303745
v 46.591381 0.079225 -28.861179
v 46.591381 0.200337 -28.861179
v 42.659859 0.079223 -36.932442
v 42.659859 0.200335 -36.932442
v 46.591381 0.079225 -28.861179
v 46.591381 0.200337 -28.861179
v 42.659859 0.079223 -36.932442
v 42.659859 0.200335 -36.932442
v 50.730743 0.079224 -30.582859
v 50.730743 0.200336 -30.582859
v 47.769226 0.079224 -39.058208
v 47.769226 0.200335 -39.058208
v 50.730743 0.079224 -30.582859
v 50.730743 0.200336 -30.582859
v 47.769226 0.079224 -39.058208
v 47.769226 0.200335 -39.058208
v 55.029819 0.079224 -31.798853
v 55.029819 0.200336 -31.798853
v 53.107903 0.079224 -40.568596
v 53.107903 0.200336 -40.568592
v 55.029819 0.079224 -31.798853
v 55.029819 0.200336 -31.798853
v 53.107903 0.079224 -40.568596
v 53.107903 0.200336 -40.568592
v 59.462597 0.079225 -32.505661
v 59.462597 0.200337 -32.505661
v 58.566963 0.079223 -41.438744
v 58.566963 0.200335 -41.438744
v 59.462597 0.079225 -32.505661
v 59.462597 0.200337 -32.505661
v 58.566963 0.079223 -41.438744
v 58.566963 0.200335 -41.438744
v 63.971764 0.079225 -32.708996
v 63.971764 0.200337 -32.708992
v 64.065758 0.079223 -41.686371
v 64.065758 0.200335 -41.686371
v 63.971764 0.079225 -32.708996
v 63.971764 0.200337 -32.708992
v 64.065758 0.079223 -41.686371
v 64.065758 0.200335 -41.686371
v 68.484444 0.079224 -32.418728
v 68.484444 0.200336 -32.418728
v 69.551231 0.079224 -41.332989
v 69.551231 0.200336 -41.332989
v 68.484444 0.079224 -32.418728
v 68.484444 0.200336 -32.418728
v 69.551231 0.079224 -41.332989
v 69.551231 0.200336 -41.332989
v 72.917397 0.079224 -31.637409
v 72.917397 0.200336 -31.637409
v 74.984680 0.079224 -40.374027
v 74.984680 0.200336 -40.374027
v 72.917397 0.079224 -31.637409
v 72.917397 0.200336 -31.637409
v 74.984680 0.079224 -40.374027
v 74.984680 0.200336 -40.374027
v 77.181129 0.079225 -30.355103
v 77.181129 0.200336 -30.355103
v 80.313766 0.079224 -38.768700
v 80.313766 0.200336 -38.768700
v 77.181129 0.079225 -30.355103
v 77.181129 0.200336 -30.355103
v 80.313766 0.079224 -38.768700
v 80.313766 0.200336 -38.768700
v 81.176605 0.079224 -28.552187
v 81.176605 0.200336 -28.552187
v 85.447273 0.079224 -36.449242
v 85.447273 0.200336 -36.449242
v 81.176605 0.079224 -28.552187
v 81.176605 0.200336 -28.552187
v 85.447273 0.079224 -36.449242
v 85.447273 0.200336 -36.449242
v 84.794525 0.079224 -26.214357
v 84.794525 0.200336 -26.214357
v 90.239616 0.079224 -33.352501
v 90.239616 0.200336 -33.352501
v 84.794525 0.079224 -26.214357
v 84.794525 0.200336 -26.214357
v 90.239616 0.079224 -33.352501
v 90.239616 0.200336 -33.352501
v 87.943375 0.079224 -23.359722
v 87.943375 0.200336 -23.359722
v 94.506943 0.079224 -29.485216
v 94.506943 0.200336 -29.485216
v 87.943375 0.079224 -23.359722
v 87.943375 0.200336 -23.359722
v 94.506943 0.079224 -29.485216
v 94.506943 0.200336 -29.485216
v 90.555771 0.079224 -20.023191
v 90.555771 0.200336 -20.023191
v 98.065308 0.079223 -24.943459
v 98.065308 0.200336 -24.943459
v 90.555771 0.079224 -20.023191
v 90.555771 0.200336 -20.023191
v 98.065308 0.079223 -24.943459
v 98.065308 0.200336 -24.943459
v 92.599953 0.079225 -16.260897
v 92.599953 0.200337 -16.260897
v 100.801689 0.079223 -19.912422
v 100.801689 0.200335 -19.912422
v 92.599953 0.079225 -16.260897
v 92.599953 0.200337 -16.260897
v 100.801689 0.079223 -19.912422
v 100.801689 0.200335 -19.912422
v 94.079201 0.079225 -12.152031
v 94.079201 0.200337 -12.152030
v 102.716438 0.079223 -14.601551
v 102.716438 0.200335 -14.601551
v 94.079201 0.079225 -12.152031
v 94.079201 0.200337 -12.152030
v 102.716438 0.079223 -14.601551
v 102.716438 0.200335 -14.601551
v 95.019676 0.079225 -7.797773
v 95.019676 0.200337 -7.797773
v 103.892632 0.079224 -9.166239
v 103.892632 0.200335 -9.166239
v 95.019676 0.079225 -7.797773
v 95.019676 0.200337 -7.797773
v 103.892632 0.079224 -9.166239
v 103.892632 0.200335 -9.166239
v 95.458214 0.079224 -3.295732
v 95.458214 0.200337 -3.295732
v 104.427071 0.079224 -3.697933
v 104.427071 0.200336 -3.697933
v 95.458214 0.079224 -3.295732
v 95.458214 0.200337 -3.295732
v 104.427071 0.079224 -3.697933
v 104.427071 0.200336 -3.697933
v 95.432343 0.079224 1.273781
v 95.432343 0.200336 1.273781
v 104.397522 0.079223 1.750904
v 104.397522 0.200336 1.750904
v 95.432343 0.079224 1.273781
v 95.432343 0.200336 1.273781
v 104.397522 0.079223 1.750904
v 104.397522 0.200336 1.750904
v 94.972305 0.079224 5.845005
v 94.972305 0.200336 5.845005
v 103.855103 0.079224 7.148112
v 103.855103 0.200336 7.148112
v 94.972305 0.079224 5.845005
v 94.972305 0.200336 5.845005
v 103.855103 0.079224 7.148112
v 103.855103 0.200336 7.148112
v 94.097198 0.079224 10.359694
v 94.097198 0.200337 10.359694
v 102.823807 0.079224 12.468825
v 102.823807 0.200335 12.468824
v 94.097198 0.079224 10.359694
v 94.097198 0.200337 10.359694
v 102.823807 0.079224 12.468825
v 102.823807 0.200335 12.468824
v 92.814316 0.079225 14.758865
v 92.814316 0.200337 14.758865
v 101.301331 0.079224 17.686785
v 101.301331 0.200336 17.686785
v 92.814316 0.079225 14.758865
v 92.814316 0.200337 14.758865
v 101.301331 0.079224 17.686785
v 101.301331 0.200336 17.686785
v 91.120071 0.079224 18.973898
v 91.120071 0.200336 18.973900
v 99.258057 0.079224 22.765390
v 99.258057 0.200336 22.765390
v 91.120071 0.079224 18.973898
v 91.120071 0.200336 18.973900
v 99.258057 0.079224 22.765390
v 99.258057 0.200336 22.765390
v 89.002029 0.079224 22.923100
v 89.002029 0.200336 22.923100
v 96.640137 0.079224 27.641306
v 96.640137 0.200336 27.641306
v 89.002029 0.079224 22.923100
v 89.002029 0.200336 22.923100
v 96.640137 0.079224 27.641306
v 96.640137 0.200336 27.641306
v 86.447525 0.079224 26.519339
v 86.447525 0.200337 26.519339
v 93.393738 0.079224 32.207241
v 93.393738 0.200336 32.207241
v 86.447502 0.079225 26.519361
v 86.447502 0.200336 26.519360
v 93.393715 0.079224 32.207268
v 93.393715 0.200336 32.207268
v 83.458916 0.079224 29.674685
v 83.458916 0.200336 29.674685
v 89.496597 0.079224 36.319122
v 89.496597 0.200336 36.319122
v 83.458893 0.079224 29.674702
v 83.458893 0.200336 29.674702
v 89.496567 0.079224 36.319145
v 89.496567 0.200336 36.319145
v 80.060616 0.079224 32.310333
v 80.060616 0.200336 32.310333
v 84.985092 0.079224 39.817104
v 84.985092 0.200336 39.817104
v 80.060585 0.079224 32.310349
v 80.060585 0.200336 32.310349
v 84.985062 0.079224 39.817127
v 84.985062 0.200336 39.817127
v 76.299469 0.079224 34.367989
v 76.299469 0.200337 34.367989
v 79.965584 0.079223 42.563213
v 79.965584 0.200335 42.563213
v 76.299454 0.079224 34.368000
v 76.299454 0.200337 34.368000
v 79.965561 0.079223 42.563229
v 79.965561 0.200335 42.563229
v 72.241913 0.079224 35.815659
v 72.241913 0.200336 35.815659
v 74.595078 0.079224 44.479652
v 74.595078 0.200336 44.479652
v 72.241882 0.079225 35.815666
v 72.241882 0.200337 35.815666
v 74.595039 0.079224 44.479660
v 74.595039 0.200336 44.479660
v 67.969124 0.079224 36.647915
v 67.969124 0.200336 36.647915
v 69.039330 0.079224 45.561771
v 69.039330 0.200336 45.561771
v 67.969093 0.079224 36.647919
v 67.969093 0.200336 36.647919
v 69.039291 0.079224 45.561775
v 69.039291 0.200336 45.561775
v 63.570896 0.079225 36.877060
v 63.570896 0.200337 36.877060
v 63.434978 0.079223 45.853897
v 63.434978 0.200335 45.853897
v 63.570873 0.079224 36.877060
v 63.570873 0.200336 36.877060
v 63.434948 0.079224 45.853897
v 63.434948 0.200336 45.853897
v 59.140835 0.079224 36.516800
v 59.140835 0.200336 36.516800
v 57.880772 0.079224 45.405807
v 57.880772 0.200336 45.405807
v 59.140808 0.079224 36.516800
v 59.140808 0.200336 36.516800
v 57.880737 0.079224 45.405800
v 57.880737 0.200336 45.405800
v 54.752594 0.079224 35.618523
v 54.752594 0.200336 35.618523
v 52.455540 0.079224 44.297562
v 52.455540 0.200336 44.297562
v 54.752563 0.079224 35.618515
v 54.752563 0.200337 35.618515
v 52.455509 0.079224 44.297554
v 52.455509 0.200336 44.297554
v 50.447948 0.079224 34.222710
v 50.447948 0.200336 34.222710
v 47.230690 0.079224 42.604317
v 47.230690 0.200336 42.604317
v 50.447926 0.079225 34.222702
v 50.447926 0.200336 34.222702
v 47.230663 0.079224 42.604309
v 47.230663 0.200336 42.604309
v 46.235897 0.079225 32.371834
v 46.235897 0.200337 32.371834
v 42.269016 0.079223 40.425774
v 42.269016 0.200335 40.425774
v 46.235878 0.079225 32.371822
v 46.235878 0.200337 32.371822
v 42.268990 0.079224 40.425762
v 42.268990 0.200335 40.425762
v 42.072441 0.079224 30.129265
v 42.072441 0.200336 30.129265
v 37.607742 0.079224 37.918270
v 37.607742 0.200336 37.918270
v 42.072418 0.079224 30.129250
v 42.072418 0.200336 30.129250
v 37.607719 0.079224 37.918251
v 37.607719 0.200336 37.918251
v 37.837040 0.079224 27.614544
v 37.837040 0.200336 27.614544
v 33.223804 0.079224 35.316505
v 33.223804 0.200336 35.316505
v 37.837013 0.079224 27.614527
v 37.837013 0.200336 27.614527
v 33.223778 0.079224 35.316490
v 33.223778 0.200336 35.316490
v 33.343372 0.079225 25.008911
v 33.343372 0.200336 25.008911
v 29.047802 0.079224 32.892452
v 29.047802 0.200336 32.892452
v 33.343346 0.079224 25.008894
v 33.343346 0.200336 25.008894
v 29.047775 0.079224 32.892437
v 29.047775 0.200336 32.892437
v 28.438017 0.079224 22.615704
v 28.438017 0.200336 22.615704
v 24.950920 0.079224 30.888687
v 24.950920 0.200336 30.888687
v 28.437988 0.079224 22.615692
v 28.437988 0.200336 22.615692
v 24.950897 0.079224 30.888678
v 24.950897 0.200336 30.888678
v 23.060959 0.079224 20.786230
v 23.060959 0.200336 20.786230
v 20.851414 0.079224 29.487957
v 20.851414 0.200336 29.487957
v 23.060925 0.079225 20.786224
v 23.060925 0.200336 20.786224
v 20.851387 0.079224 29.487953
v 20.851387 0.200336 29.487953
v 17.315594 0.079224 19.858646
v 17.315594 0.200336 19.858646
v 16.717627 0.079224 28.816578
v 16.717627 0.200335 28.816578
v 17.315557 0.079224 19.858644
v 17.315557 0.200336 19.858644
v 16.717600 0.079224 28.816578
v 16.717600 0.200336 28.816578
v 11.459051 0.079224 20.019539
v 11.459051 0.200336 20.019539
v 12.569336 0.079225 28.928490
v 12.569336 0.200337 28.928490
v 11.459015 0.079224 20.019543
v 11.459015 0.200336 20.019543
v 12.569309 0.079224 28.928493
v 12.569309 0.200337 28.928493
v 5.777008 0.079224 21.275782
v 5.777008 0.200336 21.275782
v 8.478268 0.079224 29.837635
v 8.478268 0.200336 29.837635
v 5.776973 0.079224 21.275791
v 5.776974 0.200336 21.275791
v 8.478244 0.079224 29.837643
v 8.478244 0.200336 29.837643
v 0.526141 0.079224 23.401903
v 0.526141 0.200336 23.401903
v 4.451135 0.079224 31.476341
v 4.451135 0.200336 31.476341
v 0.526110 0.079224 23.401920
v 0.526111 0.200336 23.401920
v 4.451111 0.079223 31.476355
v 4.451111 0.200336 31.476355
v -4.199234 0.079224 25.988667
v -4.199233 0.200336 25.988667
v 0.389415 0.079224 33.705299
v 0.389415 0.200336 33.705299
v -4.199260 0.079224 25.988682
v -4.199260 0.200336 25.988682
v 0.389390 0.079224 33.705315
v 0.389390 0.200336 33.705315
v -8.502847 0.079224 28.616974
v -8.502847 0.200336 28.616974
v -3.861287 0.079224 36.301895
v -3.861287 0.200336 36.301895
v -8.502872 0.079224 28.616993
v -8.502872 0.200336 28.616993
v -3.861313 0.079224 36.301918
v -3.861313 0.200336 36.301918
v -12.623302 0.079224 30.986876
v -12.623302 0.200336 30.986876
v -8.430293 0.079224 38.925442
v -8.430293 0.200335 38.925442
v -12.623327 0.079224 30.986891
v -12.623327 0.200336 30.986891
v -8.430322 0.079223 38.925457
v -8.430322 0.200335 38.925457
v -16.751385 0.079224 32.930916
v -16.751385 0.200336 32.930916
v -13.367228 0.079224 41.246540
v -13.367228 0.200336 41.246540
v -16.751410 0.079224 32.930923
v -16.751408 0.200336 32.930923
v -13.367258 0.079224 41.246552
v -13.367258 0.200336 41.246552
v -21.009611 0.079224 34.386005
v -21.009611 0.200336 34.386002
v -18.585783 0.079224 43.030495
v -18.585783 0.200336 43.030495
v -21.009636 0.079224 34.386009
v -21.009636 0.200337 34.386009
v -18.585815 0.079224 43.030502
v -18.585815 0.200336 43.030502
v -25.418489 0.079224 35.389416
v -25.418489 0.200336 35.389416
v -23.945938 0.079224 44.245701
v -23.945938 0.200336 44.245701
v -25.418518 0.079225 35.389427
v -25.418518 0.200337 35.389427
v -23.945972 0.079224 44.245712
v -23.945972 0.200336 44.245712
v -29.953320 0.079224 35.882427
v -29.953320 0.200336 35.882427
v -29.370016 0.079224 44.841328
v -29.370016 0.200336 44.841328
v -29.953346 0.079224 35.882427
v -29.953346 0.200336 35.882427
v -29.370049 0.079223 44.841328
v -29.370049 0.200335 44.841328
v -34.526054 0.079224 35.961845
v -34.526054 0.200336 35.961845
v -34.812439 0.079224 44.935143
v -34.812439 0.200336 44.935143
v -34.526077 0.079224 35.961845
v -34.526077 0.200335 35.961845
v -34.812469 0.079225 44.935143
v -34.812469 0.200336 44.935143
v -39.075352 0.079224 35.612854
v -39.075352 0.200336 35.612854
v -40.250576 0.079224 44.513474
v -40.250576 0.200336 44.513474
v -39.075378 0.079225 35.612846
v -39.075378 0.200336 35.612846
v -40.250607 0.079224 44.513466
v -40.250607 0.200336 44.513466
v -43.531658 0.079224 34.813675
v -43.531658 0.200336 34.813675
v -45.654480 0.079224 43.536964
v -45.654480 0.200336 43.536964
v -43.531689 0.079224 34.813667
v -43.531689 0.200336 34.813667
v -45.654518 0.079224 43.536949
v -45.654518 0.200336 43.536953
v -47.803589 0.079224 33.520340
v -47.803589 0.200336 33.520340
v -50.970409 0.079224 41.921135
v -50.970409 0.200336 41.921135
v -47.803612 0.079224 33.520329
v -47.803612 0.200336 33.520329
v -50.970440 0.079224 41.921124
v -50.970440 0.200336 41.921124
v -51.781914 0.079224 31.705471
v -51.781914 0.200336 31.705473
v -56.103386 0.079224 39.574841
v -56.103386 0.200336 39.574841
v -51.781940 0.079224 31.705460
v -51.781940 0.200336 31.705460
v -56.103420 0.079224 39.574825
v -56.103420 0.200336 39.574825
v -55.356888 0.079224 29.370369
v -55.356888 0.200337 29.370369
v -60.905216 0.079224 36.428570
v -60.905216 0.200335 36.428570
v -55.356899 0.079224 29.370354
v -55.356899 0.200336 29.370354
v -60.905235 0.079223 36.428547
v -60.905235 0.200335 36.428547
v -58.412563 0.079224 26.519041
v -58.412563 0.200336 26.519041
v -65.158028 0.079224 32.443642
v -65.158028 0.200336 32.443642
v -58.412582 0.079224 26.519020
v -58.412579 0.200337 26.519020
v -65.158051 0.079223 32.443611
v -65.158051 0.200336 32.443611
v -60.865021 0.079224 23.185570
v -60.865021 0.200336 23.185570
v -68.625870 0.079223 27.699028
v -68.625870 0.200336 27.699028
v -60.865025 0.079224 23.185549
v -60.865025 0.200337 23.185549
v -68.625885 0.079224 27.698996
v -68.625885 0.200336 27.698996
v -62.590389 0.079224 19.387022
v -62.590389 0.200336 19.387022
v -71.056183 0.079224 22.375736
v -71.056183 0.200336 22.375736
v -62.590397 0.079224 19.387001
v -62.590397 0.200336 19.387001
v -71.056198 0.079224 22.375706
v -71.056198 0.200336 22.375706
v -63.566181 0.079224 15.233526
v -63.566181 0.200336 15.233526
v -72.406181 0.079224 16.800846
v -72.406181 0.200336 16.800846
v -63.566196 0.079224 15.233500
v -63.566196 0.200336 15.233500
v -72.406197 0.079224 16.800810
v -72.406197 0.200336 16.800810
v -63.951042 0.079224 10.889216
v -63.951042 0.200336 10.889216
v -72.923195 0.079224 11.209573
v -72.923195 0.200335 11.209573
v -63.951042 0.079224 10.889189
v -63.951042 0.200336 10.889189
v -72.923195 0.079224 11.209538
v -72.923195 0.200336 11.209538
v -64.026192 0.079224 6.379369
v -64.026192 0.200336 6.379369
v -72.978050 0.079224 5.696383
v -72.978050 0.200336 5.696383
v -64.026184 0.079224 6.379339
v -64.026184 0.200336 6.379339
v -72.978043 0.079224 5.696352
v -72.978043 0.200336 5.696352
v -64.091179 0.079224 1.367820
v -64.091179 0.200336 1.367820
v -73.043037 0.079224 0.684834
v -73.043037 0.200336 0.684834
v -64.091179 0.079224 1.367820
v -64.091179 0.200336 1.367820
v -73.043037 0.079224 0.684834
v -73.043037 0.200336 0.684834
v -64.156174 0.079224 -3.643668
v -64.156174 0.200336 -3.643668
v -73.108032 0.079224 -4.326654
v -73.108032 0.200336 -4.326654
vn 0.0416 -0.0000 0.9991
vn -0.9996 -0.0000 -0.0274
vn -0.0027 -0.0000 -1.0000
vn 0.9995 -0.0000 0.0310
vn -0.0000 -1.0000 -0.0000
vn -0.0000 1.0000 -0.0000
vn 0.0027 -0.0000 1.0000
vn -0.9996 -0.0000 -0.0296
vn 0.0749 -0.0000 -0.9972
vn 0.9996 -0.0000 0.0286
vn -0.0749 -0.0000 0.9972
vn -0.9934 -0.0000 -0.1149
vn 0.1697 -0.0000 -0.9855
vn 0.9935 -0.0000 0.1135
vn -0.1697 -0.0000 0.9855
vn -0.9801 -0.0000 -0.1985
vn 0.2795 -0.0000 -0.9602
vn 0.9813 -0.0000 0.1926
vn -0.2795 -0.0000 0.9602
vn -0.9320 -0.0000 -0.3625
vn 0.4202 -0.0000 -0.9074
vn 0.9306 -0.0000 0.3661
vn -0.4202 -0.0000 0.9074
vn -0.8710 -0.0000 -0.4913
vn 0.5718 -0.0000 -0.8204
vn 0.8724 -0.0000 0.4888
vn -0.5718 -0.0000 0.8204
vn -0.7646 -0.0000 -0.6445
vn 0.7229 -0.0000 -0.6910
vn 0.7668 -0.0000 0.6419
vn -0.7229 -0.0000 0.6910
vn -0.6123 -0.0000 -0.7906
vn 0.8505 -0.0000 -0.5260
vn 0.6125 -0.0000 0.7905
vn -0.8505 -0.0000 0.5260
vn -0.4348 -0.0000 -0.9005
vn 0.9373 -0.0000 -0.3485
vn 0.4327 -0.0000 0.9015
vn -0.9373 -0.0000 0.3485
vn -0.2592 -0.0000 -0.9658
vn 0.9834 -0.0000 -0.1814
vn 0.2567 -0.0000 0.9665
vn -0.9834 -0.0000 0.1814
vn -0.1021 -0.0000 -0.9948
vn 0.9994 -0.0000 -0.0348
vn 0.1002 -0.0000 0.9950
vn -0.9994 -0.0000 0.0348
vn 0.0326 -0.0000 -0.9995
vn 0.9958 -0.0000 0.0914
vn -0.0337 -0.0000 0.9994
vn -0.9958 -0.0000 -0.0914
vn 0.1480 -0.0000 -0.9890
vn 0.9795 -0.0000 0.2016
vn -0.1483 -0.0000 0.9889
vn -0.9795 -0.0000 -0.2016
vn 0.2490 -0.0000 -0.9685
vn 0.9535 -0.0000 0.3014
vn -0.2484 -0.0000 0.9687
vn -0.9535 -0.0000 -0.3014
vn 0.3521 -0.0000 -0.9359
vn 0.9185 -0.0000 0.3953
vn -0.3528 -0.0000 0.9357
vn -0.9185 -0.0000 -0.3953
vn 0.4407 -0.0000 -0.8977
vn 0.8741 -0.0000 0.4857
vn -0.4406 -0.0000 0.8977
vn -0.8741 -0.0000 -0.4857
vn 0.5290 -0.0000 -0.8486
vn 0.8248 -0.0000 0.5654
vn -0.5296 -0.0000 0.8483
vn -0.8248 -0.0000 -0.5654
vn 0.5963 -0.0000 -0.8027
vn 0.7858 -0.0000 0.6185
vn -0.5968 -0.0000 0.8024
vn -0.7858 -0.0000 -0.6185
vn 0.6288 -0.0000 -0.7776
vn 0.7798 -0.0000 0.6260
vn -0.6289 -0.0000 0.7775
vn -0.7798 -0.0000 -0.6260
vn 0.6066 -0.0000 -0.7950
vn 0.8226 -0.0000 0.5686
vn -0.6055 -0.0000 0.7958
vn -0.8226 -0.0000 -0.5686
vn 0.5086 -0.0000 -0.8610
vn 0.9021 -0.0000 0.4316
vn -0.5069 -0.0000 0.8620
vn -0.9021 -0.0000 -0.4316
vn 0.3377 -0.0000 -0.9413
vn 0.9716 -0.0000 0.2368
vn -0.3372 -0.0000 0.9414
vn -0.9716 -0.0000 -0.2368
vn 0.1355 -0.0000 -0.9908
vn 0.9994 -0.0000 0.0334
vn -0.1356 -0.0000 0.9908
vn -0.9994 -0.0000 -0.0334
vn -0.0621 -0.0000 -0.9981
vn 0.9882 -0.0000 -0.1533
vn 0.0616 -0.0000 0.9981
vn -0.9882 -0.0000 0.1533
vn -0.2405 -0.0000 -0.9707
vn 0.9483 -0.0000 -0.3175
vn 0.2394 -0.0000 0.9709
vn -0.9483 -0.0000 0.3175
vn -0.3873 -0.0000 -0.9220
vn 0.8943 -0.0000 -0.4474
vn 0.3864 -0.0000 0.9223
vn -0.8943 -0.0000 0.4474
vn -0.4941 -0.0000 -0.8694
vn 0.8477 -0.0000 -0.5304
vn 0.4934 -0.0000 0.8698
vn -0.8477 -0.0000 0.5304
vn -0.5500 -0.0000 -0.8352
vn 0.8314 -0.0000 -0.5557
vn 0.5496 -0.0000 0.8354
vn -0.8314 -0.0000 0.5557
vn -0.5437 -0.0000 -0.8393
vn 0.8541 -0.0000 -0.5202
vn 0.5442 -0.0000 0.8390
vn -0.8541 -0.0000 0.5202
vn -0.4840 -0.0000 -0.8750
vn 0.8990 -0.0000 -0.4379
vn 0.4848 -0.0000 0.8746
vn -0.8990 -0.0000 0.4379
vn -0.3841 -0.0000 -0.9233
vn 0.9440 -0.0000 -0.3299
vn 0.3840 -0.0000 0.9233
vn -0.9440 -0.0000 0.3299
vn -0.2722 -0.0000 -0.9622
vn 0.9768 -0.0000 -0.2141
vn 0.2722 -0.0000 0.9622
vn -0.9768 -0.0000 0.2141
vn -0.1574 -0.0000 -0.9875
vn 0.9950 -0.0000 -0.0998
vn 0.1575 -0.0000 0.9875
vn -0.9950 -0.0000 0.0998
vn -0.0450 -0.0000 -0.9990
vn 0.9999 -0.0000 0.0105
vn 0.0450 -0.0000 0.9990
vn -0.9999 -0.0000 -0.0105
vn 0.0643 -0.0000 -0.9979
vn 0.9929 -0.0000 0.1188
vn -0.0642 -0.0000 0.9979
vn -0.9929 -0.0000 -0.1188
vn 0.1738 -0.0000 -0.9848
vn 0.9731 -0.0000 0.2303
vn -0.1736 -0.0000 0.9848
vn -0.9731 -0.0000 -0.2303
vn 0.2884 -0.0000 -0.9575
vn 0.9371 -0.0000 0.3489
vn -0.2880 -0.0000 0.9576
vn -0.9371 -0.0000 -0.3489
vn 0.4117 -0.0000 -0.9113
vn 0.8796 -0.0000 0.4757
vn -0.4113 -0.0000 0.9115
vn -0.8796 -0.0000 -0.4757
vn 0.5427 -0.0000 -0.8399
vn 0.7951 -0.0000 0.6065
vn -0.5427 -0.0000 0.8399
vn -0.7951 -0.0000 -0.6065
vn 0.6715 -0.0000 -0.7410
vn 0.6823 -0.0000 0.7311
vn -0.6716 -0.0000 0.7409
vn -0.6823 -0.0000 -0.7311
vn 0.7872 -0.0000 -0.6167
vn 0.5480 -0.0000 0.8364
vn -0.7874 -0.0000 0.6165
vn -0.5480 -0.0000 -0.8364
vn 0.8785 -0.0000 -0.4778
vn 0.4067 -0.0000 0.9136
vn -0.8787 -0.0000 0.4774
vn -0.4067 -0.0000 -0.9136
vn 0.9407 -0.0000 -0.3392
vn 0.2728 -0.0000 0.9621
vn -0.9409 -0.0000 0.3387
vn -0.2728 -0.0000 -0.9621
vn 0.9774 -0.0000 -0.2115
vn 0.1524 -0.0000 0.9883
vn -0.9775 -0.0000 0.2111
vn -0.1524 -0.0000 -0.9883
vn 0.9953 -0.0000 -0.0973
vn 0.0448 -0.0000 0.9990
vn -0.9953 -0.0000 0.0969
vn -0.0448 -0.0000 -0.9990
vn 1.0000 0.0001 0.0054
vn -0.0531 -0.0000 0.9986
vn -1.0000 -0.0000 -0.0057
vn 0.0531 -0.0000 -0.9986
vn 0.9950 -0.0001 0.1000
vn -0.1451 -0.0000 0.9894
vn -0.9950 -0.0000 -0.1001
vn 0.1451 -0.0000 -0.9894
vn 0.9817 -0.0000 0.1903
vn -0.2349 -0.0000 0.9720
vn -0.9817 -0.0000 -0.1903
vn 0.2349 -0.0000 -0.9720
vn 0.9600 0.0001 0.2801
vn -0.3261 -0.0000 0.9453
vn -0.9600 -0.0000 -0.2800
vn 0.3261 -0.0000 -0.9453
vn 0.9277 -0.0000 0.3733
vn -0.4223 -0.0000 0.9064
vn -0.9279 -0.0000 -0.3730
vn 0.4223 -0.0000 -0.9064
vn 0.8810 -0.0000 0.4730
vn -0.5255 -0.0000 0.8508
vn -0.8813 -0.0000 -0.4726
vn 0.5255 -0.0000 -0.8508
vn 0.8150 -0.0000 0.5795
vn -0.6335 -0.0000 0.7737
vn -0.8153 -0.0000 -0.5791
vn 0.6335 -0.0000 -0.7737
vn 0.7258 -0.0000 0.6879
vn -0.7401 -0.0000 0.6725
vn -0.7260 -0.0000 -0.6877
vn 0.7401 -0.0000 -0.6725
vn 0.6127 -0.0000 0.7903
vn -0.8361 -0.0000 0.5485
vn -0.6129 -0.0000 -0.7902
vn 0.8361 -0.0000 -0.5485
vn 0.4800 -0.0000 0.8773
vn -0.9128 -0.0000 0.4084
vn -0.4800 -0.0000 -0.8773
vn 0.9128 -0.0000 -0.4083
vn 0.3361 -0.0000 0.9418
vn -0.9650 -0.0000 0.2621
vn -0.3360 -0.0000 -0.9418
vn 0.9650 -0.0000 -0.2621
vn 0.1912 -0.0000 0.9816
vn -0.9929 -0.0000 0.1192
vn -0.1912 -0.0000 -0.9816
vn 0.9929 -0.0000 -0.1192
vn 0.0521 -0.0000 0.9986
vn -0.9999 -0.0000 -0.0151
vn -0.0520 -0.0000 -0.9986
vn 0.9999 -0.0000 0.0151
vn -0.0804 -0.0000 0.9968
vn -0.9901 -0.0000 -0.1404
vn 0.0811 -0.0000 -0.9967
vn 0.9901 -0.0000 0.1404
vn -0.2001 -0.0000 0.9798
vn -0.9667 -0.0000 -0.2559
vn 0.2005 -0.0000 -0.9797
vn 0.9667 -0.0000 0.2559
vn -0.3083 -0.0000 0.9513
vn -0.9336 -0.0000 -0.3584
vn 0.3084 -0.0000 -0.9512
vn 0.9336 -0.0000 0.3584
vn -0.4020 -0.0000 0.9156
vn -0.8971 -0.0000 -0.4419
vn 0.4023 -0.0000 -0.9155
vn 0.8971 -0.0000 0.4419
vn -0.4737 -0.0000 0.8807
vn -0.8676 -0.0000 -0.4973
vn 0.4742 -0.0000 -0.8804
vn 0.8676 -0.0000 0.4973
vn -0.5104 -0.0000 0.8600
vn -0.8579 -0.0000 -0.5138
vn 0.5105 -0.0000 -0.8599
vn 0.8579 -0.0000 0.5138
vn -0.5020 -0.0000 0.8649
vn -0.8781 -0.0000 -0.4785
vn 0.5016 -0.0000 -0.8651
vn 0.8781 -0.0000 0.4785
vn -0.4394 -0.0000 0.8983
vn -0.9215 -0.0000 -0.3884
vn 0.4385 -0.0000 -0.8987
vn 0.9215 -0.0000 0.3884
vn -0.3233 -0.0000 0.9463
vn -0.9692 -0.0000 -0.2461
vn 0.3221 -0.0000 -0.9467
vn 0.9692 -0.0000 0.2461
vn -0.1603 -0.0000 0.9871
vn -0.9978 -0.0000 -0.0666
vn 0.1594 -0.0000 -0.9872
vn 0.9978 -0.0000 0.0666
vn 0.0270 -0.0000 0.9996
vn -0.9923 -0.0000 0.1237
vn -0.0275 -0.0000 -0.9996
vn 0.9923 -0.0000 -0.1237
vn 0.2169 -0.0000 0.9762
vn -0.9537 -0.0000 0.3009
vn -0.2159 -0.0000 -0.9764
vn 0.9537 -0.0000 -0.3009
vn 0.3769 -0.0000 0.9263
vn -0.8994 -0.0000 0.4372
vn -0.3753 -0.0000 -0.9269
vn 0.8994 -0.0000 -0.4372
vn 0.4811 -0.0000 0.8767
vn -0.8595 -0.0000 0.5111
vn -0.4802 -0.0000 -0.8772
vn 0.8595 -0.0000 -0.5111
vn 0.5213 -0.0000 0.8534
vn -0.8560 -0.0000 0.5170
vn -0.5212 -0.0000 -0.8534
vn 0.8560 -0.0000 -0.5170
vn 0.4980 -0.0000 0.8672
vn -0.8842 -0.0000 0.4670
vn -0.4986 -0.0000 -0.8668
vn 0.8842 -0.0000 -0.4670
vn 0.4255 -0.0000 0.9050
vn -0.9262 -0.0000 0.3769
vn -0.4260 -0.0000 -0.9047
vn 0.9262 -0.0000 -0.3769
vn 0.3235 -0.0000 0.9462
vn -0.9629 -0.0000 0.2700
vn -0.3234 -0.0000 -0.9463
vn 0.9629 -0.0000 -0.2700
vn 0.2211 -0.0000 0.9753
vn -0.9865 -0.0000 0.1640
vn -0.2219 -0.0000 -0.9751
vn 0.9865 -0.0000 -0.1640
vn 0.1092 -0.0000 0.9940
vn -0.9979 -0.0000 0.0650
vn -0.1081 -0.0000 -0.9941
vn 0.9979 -0.0000 -0.0650
vn 0.0172 -0.0000 0.9999
vn -0.9995 -0.0000 -0.0319
vn -0.0174 -0.0000 -0.9998
vn 0.9995 -0.0000 0.0319
vn -0.0773 -0.0000 0.9970
vn -0.9914 -0.0000 -0.1309
vn 0.0765 -0.0000 -0.9971
vn 0.9914 -0.0000 0.1309
vn -0.1778 -0.0000 0.9841
vn -0.9716 -0.0000 -0.2365
vn 0.1765 -0.0000 -0.9843
vn 0.9716 -0.0000 0.2365
vn -0.2908 -0.0000 0.9568
vn -0.9357 -0.0000 -0.3527
vn 0.2898 -0.0000 -0.9571
vn 0.9357 -0.0000 0.3527
vn -0.4157 -0.0000 0.9095
vn -0.8765 -0.0000 -0.4813
vn 0.4150 -0.0000 -0.9098
vn 0.8765 -0.0000 0.4813
vn -0.5481 -0.0000 0.8364
vn -0.7862 -0.0000 -0.6180
vn 0.5469 -0.0000 -0.8372
vn 0.7862 -0.0000 0.6180
vn -0.6838 -0.0000 0.7297
vn -0.6599 -0.0000 -0.7513
vn 0.6822 -0.0000 -0.7311
vn 0.6599 -0.0000 0.7513
vn -0.8073 -0.0000 0.5901
vn -0.5027 -0.0000 -0.8644
vn 0.8055 -0.0000 -0.5926
vn 0.5027 -0.0000 0.8644
vn -0.9097 -0.0000 0.4153
vn -0.3329 -0.0000 -0.9430
vn 0.9105 -0.0000 -0.4136
vn 0.3329 -0.0000 0.9430
vn -0.9719 -0.0000 0.2354
vn -0.1746 -0.0000 -0.9846
vn 0.9735 -0.0000 -0.2287
vn 0.1746 -0.0000 0.9846
vn -0.9958 -0.0000 0.0921
vn -0.0357 -0.0000 -0.9994
vn 0.9961 -0.0000 -0.0882
vn 0.0357 -0.0000 0.9994
vn -1.0000 -0.0000 0.0099
vn 0.0761 -0.0000 -0.9971
vn 0.9999 -0.0000 -0.0167
vn -0.0761 -0.0000 0.9971
vn -0.9999 -0.0000 0.0130
vn 0.9999 -0.0001 -0.0130
vn 0.9999 -0.0000 -0.0130
vt 0.999000 0.001000
vt 0.901000 0.001000
vt 0.901000 0.665700
vt 0.999000 0.665700
vt 0.799000 0.499000
vt 0.799000 0.417700
vt 0.401000 0.417700
vt 0.401000 0.499000
vt 0.899000 0.001000
vt 0.801000 0.001000
vt 0.801000 0.665700
vt 0.899000 0.665700
vt 0.799000 0.415700
vt 0.799000 0.334300
vt 0.401000 0.334300
vt 0.401000 0.415700
vt 0.399000 0.334300
vt 0.001000 0.334300
vt 0.001000 0.999000
vt 0.399000 0.999000
vt 0.799000 0.332300
vt 0.799000 0.001000
vt 0.001000 0.001000
vt 0.001000 0.332300
s 0
usemtl None
f 1/1/1 2/2/1 4/3/1 3/4/1
f 3/5/2 4/6/2 8/7/2 7/8/2
f 7/9/3 8/10/3 6/11/3 5/12/3
f 5/13/4 6/14/4 2/15/4 1/16/4
f 3/17/5 7/18/5 5/19/5 1/20/5
f 8/21/6 4/22/6 2/23/6 6/24/6
f 9/1/7 10/2/7 12/3/7 11/4/7
f 11/5/8 12/6/8 16/7/8 15/8/8
f 15/9/9 16/10/9 14/11/9 13/12/9
f 13/13/10 14/14/10 10/15/10 9/16/10
f 11/17/5 15/18/5 13/19/5 9/20/5
f 16/21/6 12/22/6 10/23/6 14/24/6
f 17/1/11 18/2/11 20/3/11 19/4/11
f 19/5/12 20/6/12 24/7/12 23/8/12
f 23/9/13 24/10/13 22/11/13 21/12/13
f 21/13/14 22/14/14 18/15/14 17/16/14
f 19/17/5 23/18/5 21/19/5 17/20/5
f 24/21/6 20/22/6 18/23/6 22/24/6
f 25/1/15 26/2/15 28/3/15 27/4/15
f 27/5/16 28/6/16 32/7/16 31/8/16
f 31/9/17 32/10/17 30/11/17 29/12/17
f 29/13/18 30/14/18 26/15/18 25/16/18
f 27/17/5 31/18/5 29/19/5 25/20/5
f 32/21/6 28/22/6 26/23/6 30/24/6
f 33/1/19 34/2/19 36/3/19 35/4/19
f 35/5/20 36/6/20 40/7/20 39/8/20
f 39/9/21 40/10/21 38/11/21 37/12/21
f 37/13/22 38/14/22 34/15/22 33/16/22
f 35/17/5 39/18/5 37/19/5 33/20/5
f 40/21/6 36/22/6 34/23/6 38/24/6
f 41/1/23 42/2/23 44/3/23 43/4/23
f 43/5/24 44/6/24 48/7/24 47/8/24
f 47/9/25 48/10/25 46/11/25 45/12/25
f 45/13/26 46/14/26 42/15/26 41/16/26
f 43/17/5 47/18/5 45/19/5 41/20/5
f 48/21/6 44/22/6 42/23/6 46/24/6
f 49/1/27 50/2/27 52/3/27 51/4/27
f 51/5/28 52/6/28 56/7/28 55/8/28
f 55/9/29 56/10/29 54/11/29 53/12/29
f 53/13/30 54/14/30 50/15/30 49/16/30
f 51/17/5 55/18/5 53/19/5 49/20/5
f 56/21/6 52/22/6 50/23/6 54/24/6
f 57/1/31 58/2/31 60/3/31 59/4/31
f 59/5/32 60/6/32 64/7/32 63/8/32
f 63/9/33 64/10/33 62/11/33 61/12/33
f 61/13/34 62/14/34 58/15/34 57/16/34
f 59/17/5 63/18/5 61/19/5 57/20/5
f 64/21/6 60/22/6 58/23/6 62/24/6
f 65/1/35 66/2/35 68/3/35 67/4/35
f 67/5/36 68/6/36 72/7/36 71/8/36
f 71/9/37 72/10/37 70/11/37 69/12/37
f 69/13/38 70/14/38 66/15/38 65/16/38
f 67/17/5 71/18/5 69/19/5 65/20/5
f 72/21/6 68/22/6 66/23/6 70/24/6
f 73/1/39 74/2/39 76/3/39 75/4/39
f 75/5/40 76/6/40 80/7/40 79/8/40
f 79/9/41 80/10/41 78/11/41 77/12/41
f 77/13/42 78/14/42 74/15/42 73/16/42
f 75/17/5 79/18/5 77/19/5 73/20/5
f 80/21/6 76/22/6 74/23/6 78/24/6
f 81/1/43 82/2/43 84/3/43 83/4/43
f 83/5/44 84/6/44 88/7/44 87/8/44
f 87/9/45 88/10/45 86/11/45 85/12/45
f 85/13/46 86/14/46 82/15/46 81/16/46
f 83/17/5 87/18/5 85/19/5 81/20/5
f 88/21/6 84/22/6 82/23/6 86/24/6
f 89/1/47 90/2/47 92/3/47 91/4/47
f 91/5/48 92/6/48 96/7/48 95/8/48
f 95/9/49 96/10/49 94/11/49 93/12/49
f 93/13/50 94/14/50 90/15/50 89/16/50
f 91/17/5 95/18/5 93/19/5 89/20/5
f 96/21/6 92/22/6 90/23/6 94/24/6
f 97/1/51 98/2/51 100/3/51 99/4/51
f 99/5/52 100/6/52 104/7/52 103/8/52
f 103/9/53 104/10/53 102/11/53 101/12/53
f 101/13/54 102/14/54 98/15/54 97/16/54
f 99/17/5 103/18/5 101/19/5 97/20/5
f 104/21/6 100/22/6 98/23/6 102/24/6
f 105/1/55 106/2/55 108/3/55 107/4/55
f 107/5/56 108/6/56 112/7/56 111/8/56
f 111/9/57 112/10/57 110/11/57 109/12/57
f 109/13/58 110/14/58 106/15/58 105/16/58
f 107/17/5 111/18/5 109/19/5 105/20/5
f 112/21/6 108/22/6 106/23/6 110/24/6
f 113/1/59 114/2/59 116/3/59 115/4/59
f 115/5/60 116/6/60 120/7/60 119/8/60
f 119/9/61 120/10/61 118/11/61 117/12/61
f 117/13/62 118/14/62 114/15/62 113/16/62
f 115/17/5 119/18/5 117/19/5 113/20/5
f 120/21/6 116/22/6 114/23/6 118/24/6
f 121/1/63 122/2/63 124/3/63 123/4/63
f 123/5/64 124/6/64 128/7/64 127/8/64
f 127/9/65 128/10/65 126/11/65 125/12/65
f 125/13/66 126/14/66 122/15/66 121/16/66
f 123/17/5 127/18/5 125/19/5 121/20/5
f 128/21/6 124/22/6 122/23/6 126/24/6
f 129/1/67 130/2/67 132/3/67 131/4/67
f 131/5/68 132/6/68 136/7/68 135/8/68
f 135/9/69 136/10/69 134/11/69 133/12/69
f 133/13/70 134/14/70 130/15/70 129/16/70
f 131/17/5 135/18/5 133/19/5 129/20/5
f 136/21/6 132/22/6 130/23/6 134/24/6
f 137/1/71 138/2/71 140/3/71 139/4/71
f 139/5/72 140/6/72 144/7/72 143/8/72
f 143/9/73 144/10/73 142/11/73 141/12/73
f 141/13/74 142/14/74 138/15/74 137/16/74
f 139/17/5 143/18/5 141/19/5 137/20/5
f 144/21/6 140/22/6 138/23/6 142/24/6
f 145/1/75 146/2/75 148/3/75 147/4/75
f 147/5/76 148/6/76 152/7/76 151/8/76
f 151/9/77 152/10/77 150/11/77 149/12/77
f 149/13/78 150/14/78 146/15/78 145/16/78
f 147/17/5 151/18/5 149/19/5 145/20/5
f 152/21/6 148/22/6 146/23/6 150/24/6
f 153/1/79 154/2/79 156/3/79 155/4/79
f 155/5/80 156/6/80 160/7/80 159/8/80
f 159/9/81 160/10/81 158/11/81 157/12/81
f 157/13/82 158/14/82 154/15/82 153/16/82
f 155/17/5 159/18/5 157/19/5 153/20/5
f 160/21/6 156/22/6 154/23/6 158/24/6
f 161/1/83 162/2/83 164/3/83 163/4/83
f 163/5/84 164/6/84 168/7/84 167/8/84
f 167/9/85 168/10/85 166/11/85 165/12/85
f 165/13/86 166/14/86 162/15/86 161/16/86
f 163/17/5 167/18/5 165/19/5 161/20/5
f 168/21/6 164/22/6 162/23/6 166/24/6
f 169/1/87 170/2/87 172/3/87 171/4/87
f 171/5/88 172/6/88 176/7/88 175/8/88
f 175/9/89 176/10/89 174/11/89 173/12/89
f 173/13/90 174/14/90 170/15/90 169/16/90
f 171/17/5 175/18/5 173/19/5 169/20/5
f 176/21/6 172/22/6 170/23/6 174/24/6
f 177/1/91 178/2/91 180/3/91 179/4/91
f 179/5/92 180/6/92 184/7/92 183/8/92
f 183/9/93 184/10/93 182/11/93 181/12/93
f 181/13/94 182/14/94 178/15/94 177/16/94
f 179/17/5 183/18/5 181/19/5 177/20/5
f 184/21/6 180/22/6 178/23/6 182/24/6
f 185/1/95 186/2/95 188/3/95 187/4/95
f 187/5/96 188/6/96 192/7/96 191/8/96
f 191/9/97 192/10/97 190/11/97 189/12/97
f 189/13/98 190/14/98 186/15/98 185/16/98
f 187/17/5 191/18/5 189/19/5 185/20/5
f 192/21/6 188/22/6 186/23/6 190/24/6
f 193/1/99 194/2/99 196/3/99 195/4/99
f 195/5/100 196/6/100 200/7/100 199/8/100
f 199/9/101 200/10/101 198/11/101 197/12/101
f 197/13/102 198/14/102 194/15/102 193/16/102
f 195/17/5 199/18/5 197/19/5 193/20/5
f 200/21/6 196/22/6 194/23/6 198/24/6
f 201/1/103 202/2/103 204/3/103 203/4/103
f 203/5/104 204/6/104 208/7/104 207/8/104
f 207/9/105 208/10/105 206/11/105 205/12/105
f 205/13/106 206/14/106 202/15/106 201/16/106
f 203/17/5 207/18/5 205/19/5 201/20/5
f 208/21/6 204/22/6 202/23/6 206/24/6
f 209/1/107 210/2/107 212/3/107 211/4/107
f 211/5/108 212/6/108 216/7/108 215/8/108
f 215/9/109 216/10/109 214/11/109 213/12/109
f 213/13/110 214/14/110 210/15/110 209/16/110
f 211/17/5 215/18/5 213/19/5 209/20/5
f 216/21/6 212/22/6 210/23/6 214/24/6
f 217/1/111 218/2/111 220/3/111 219/4/111
f 219/5/112 220/6/112 224/7/112 223/8/112
f 223/9/113 224/10/113 222/11/113 221/12/113
f 221/13/114 222/14/114 218/15/114 217/16/114
f 219/17/5 223/18/5 221/19/5 217/20/5
f 224/21/6 220/22/6 218/23/6 222/24/6
f 225/1/115 226/2/115 228/3/115 227/4/115
f 227/5/116 228/6/116 232/7/116 231/8/116
f 231/9/117 232/10/117 230/11/117 229/12/117
f 229/13/118 230/14/118 226/15/118 225/16/118
f 227/17/5 231/18/5 229/19/5 225/20/5
f 232/21/6 228/22/6 226/23/6 230/24/6
f 233/1/119 234/2/119 236/3/119 235/4/119
f 235/5/120 236/6/120 240/7/120 239/8/120
f 239/9/121 240/10/121 238/11/121 237/12/121
f 237/13/122 238/14/122 234/15/122 233/16/122
f 235/17/5 239/18/5 237/19/5 233/20/5
f 240/21/6 236/22/6 234/23/6 238/24/6
f 241/1/123 242/2/123 244/3/123 243/4/123
f 243/5/124 244/6/124 248/7/124 247/8/124
f 247/9/125 248/10/125 246/11/125 245/12/125
f 245/13/126 246/14/126 242/15/126 241/16/126
f 243/17/5 247/18/5 245/19/5 241/20/5
f 248/21/6 244/22/6 242/23/6 246/24/6
f 249/1/127 250/2/127 252/3/127 251/4/127
f 251/5/128 252/6/128 256/7/128 255/8/128
f 255/9/129 256/10/129 254/11/129 253/12/129
f 253/13/130 254/14/130 250/15/130 249/16/130
f 251/17/5 255/18/5 253/19/5 249/20/5
f 256/21/6 252/22/6 250/23/6 254/24/6
f 257/1/131 258/2/131 260/3/131 259/4/131
f 259/5/132 260/6/132 264/7/132 263/8/132
f 263/9/133 264/10/133 262/11/133 261/12/133
f 261/13/134 262/14/134 258/15/134 257/16/134
f 259/17/5 263/18/5 261/19/5 257/20/5
f 264/21/6 260/22/6 258/23/6 262/24/6
f 265/1/135 266/2/135 268/3/135 267/4/135
f 267/5/136 268/6/136 272/7/136 271/8/136
f 271/9/137 272/10/137 270/11/137 269/12/137
f 269/13/138 270/14/138 266/15/138 265/16/138
f 267/17/5 271/18/5 269/19/5 265/20/5
f 272/21/6 268/22/6 266/23/6 270/24/6
f 273/1/139 274/2/139 276/3/139 275/4/139
f 275/5/140 276/6/140 280/7/140 279/8/140
f 279/9/141 280/10/141 278/11/141 277/12/141
f 277/13/142 278/14/142 274/15/142 273/16/142
f 275/17/5 279/18/5 277/19/5 273/20/5
f 280/21/6 276/22/6 274/23/6 278/24/6
f 281/1/143 282/2/143 284/3/143 283/4/143
f 283/5/144 284/6/144 288/7/144 287/8/144
f 287/9/145 288/10/145 286/11/145 285/12/145
f 285/13/146 286/14/146 282/15/146 281/16/146
f 283/17/5 287/18/5 285/19/5 281/20/5
f 288/21/6 284/22/6 282/23/6 286/24/6
f 289/1/147 290/2/147 292/3/147 291/4/147
f 291/5/148 292/6/148 296/7/148 295/8/148
f 295/9/149 296/10/149 294/11/149 293/12/149
f 293/13/150 294/14/150 290/15/150 289/16/150
f 291/17/5 295/18/5 293/19/5 289/20/5
f 296/21/6 292/22/6 290/23/6 294/24/6
f 297/1/151 298/2/151 300/3/151 299/4/151
f 299/5/152 300/6/152 304/7/152 303/8/152
f 303/9/153 304/10/153 302/11/153 301/12/153
f 301/13/154 302/14/154 298/15/154 297/16/154
f 299/17/5 303/18/5 301/19/5 297/20/5
f 304/21/6 300/22/6 298/23/6 302/24/6
f 305/1/155 306/2/155 308/3/155 307/4/155
f 307/5/156 308/6/156 312/7/156 311/8/156
f 311/9/157 312/10/157 310/11/157 309/12/157
f 309/13/158 310/14/158 306/15/158 305/16/158
f 307/17/5 311/18/5 309/19/5 305/20/5
f 312/21/6 308/22/6 306/23/6 310/24/6
f 313/1/159 314/2/159 316/3/159 315/4/159
f 315/5/160 316/6/160 320/7/160 319/8/160
f 319/9/161 320/10/161 318/11/161 317/12/161
f 317/13/162 318/14/162 314/15/162 313/16/162
f 315/17/5 319/18/5 317/19/5 313/20/5
f 320/21/6 316/22/6 314/23/6 318/24/6
f 321/1/163 322/2/163 324/3/163 323/4/163
f 323/5/164 324/6/164 328/7/164 327/8/164
f 327/9/165 328/10/165 326/11/165 325/12/165
f 325/13/166 326/14/166 322/15/166 321/16/166
f 323/17/5 327/18/5 325/19/5 321/20/5
f 328/21/6 324/22/6 322/23/6 326/24/6
f 329/1/167 330/2/167 332/3/167 331/4/167
f 331/5/168 332/6/168 336/7/168 335/8/168
f 335/9/169 336/10/169 334/11/169 333/12/169
f 333/13/170 334/14/170 330/15/170 329/16/170
f 331/17/5 335/18/5 333/19/5 329/20/5
f 336/21/6 332/22/6 330/23/6 334/24/6
f 337/1/171 338/2/171 340/3/171 339/4/171
f 339/5/172 340/6/172 344/7/172 343/8/172
f 343/9/173 344/10/173 342/11/173 341/12/173
f 341/13/174 342/14/174 338/15/174 337/16/174
f 339/17/5 343/18/5 341/19/5 337/20/5
f 344/21/6 340/22/6 338/23/6 342/24/6
f 345/1/175 346/2/175 348/3/175 347/4/175
f 347/5/176 348/6/176 352/7/176 351/8/176
f 351/9/177 352/10/177 350/11/177 349/12/177
f 349/13/178 350/14/178 346/15/178 345/16/178
f 347/17/5 351/18/5 349/19/5 345/20/5
f 352/21/6 348/22/6 346/23/6 350/24/6
f 353/1/179 354/2/179 356/3/179 355/4/179
f 355/5/180 356/6/180 360/7/180 359/8/180
f 359/9/181 360/10/181 358/11/181 357/12/181
f 357/13/182 358/14/182 354/15/182 353/16/182
f 355/17/5 359/18/5 357/19/5 353/20/5
f 360/21/6 356/22/6 354/23/6 358/24/6
f 361/1/183 362/2/183 364/3/183 363/4/183
f 363/5/184 364/6/184 368/7/184 367/8/184
f 367/9/185 368/10/185 366/11/185 365/12/185
f 365/13/186 366/14/186 362/15/186 361/16/186
f 363/17/5 367/18/5 365/19/5 361/20/5
f 368/21/6 364/22/6 362/23/6 366/24/6
f 369/1/187 370/2/187 372/3/187 371/4/187
f 371/5/188 372/6/188 376/7/188 375/8/188
f 375/9/189 376/10/189 374/11/189 373/12/189
f 373/13/190 374/14/190 370/15/190 369/16/190
f 371/17/5 375/18/5 373/19/5 369/20/5
f 376/21/6 372/22/6 370/23/6 374/24/6
f 377/1/191 378/2/191 380/3/191 379/4/191
f 379/5/192 380/6/192 384/7/192 383/8/192
f 383/9/193 384/10/193 382/11/193 381/12/193
f 381/13/194 382/14/194 378/15/194 377/16/194
f 379/17/5 383/18/5 381/19/5 377/20/5
f 384/21/6 380/22/6 378/23/6 382/24/6
f 385/1/195 386/2/195 388/3/195 387/4/195
f 387/5/196 388/6/196 392/7/196 391/8/196
f 391/9/197 392/10/197 390/11/197 389/12/197
f 389/13/198 390/14/198 386/15/198 385/16/198
f 387/17/5 391/18/5 389/19/5 385/20/5
f 392/21/6 388/22/6 386/23/6 390/24/6
f 393/1/199 394/2/199 396/3/199 395/4/199
f 395/5/200 396/6/200 400/7/200 399/8/200
f 399/9/201 400/10/201 398/11/201 397/12/201
f 397/13/202 398/14/202 394/15/202 393/16/202
f 395/17/5 399/18/5 397/19/5 393/20/5
f 400/21/6 396/22/6 394/23/6 398/24/6
f 401/1/203 402/2/203 404/3/203 403/4/203
f 403/5/204 404/6/204 408/7/204 407/8/204
f 407/9/205 408/10/205 406/11/205 405/12/205
f 405/13/206 406/14/206 402/15/206 401/16/206
f 403/17/5 407/18/5 405/19/5 401/20/5
f 408/21/6 404/22/6 402/23/6 406/24/6
f 409/1/207 410/2/207 412/3/207 411/4/207
f 411/5/208 412/6/208 416/7/208 415/8/208
f 415/9/209 416/10/209 414/11/209 413/12/209
f 413/13/210 414/14/210 410/15/210 409/16/210
f 411/17/5 415/18/5 413/19/5 409/20/5
f 416/21/6 412/22/6 410/23/6 414/24/6
f 417/1/211 418/2/211 420/3/211 419/4/211
f 419/5/212 420/6/212 424/7/212 423/8/212
f 423/9/213 424/10/213 422/11/213 421/12/213
f 421/13/214 422/14/214 418/15/214 417/16/214
f 419/17/5 423/18/5 421/19/5 417/20/5
f 424/21/6 420/22/6 418/23/6 422/24/6
f 425/1/215 426/2/215 428/3/215 427/4/215
f 427/5/216 428/6/216 432/7/216 431/8/216
f 431/9/217 432/10/217 430/11/217 429/12/217
f 429/13/218 430/14/218 426/15/218 425/16/218
f 427/17/5 431/18/5 429/19/5 425/20/5
f 432/21/6 428/22/6 426/23/6 430/24/6
f 433/1/219 434/2/219 436/3/219 435/4/219
f 435/5/220 436/6/220 440/7/220 439/8/220
f 439/9/221 440/10/221 438/11/221 437/12/221
f 437/13/222 438/14/222 434/15/222 433/16/222
f 435/17/5 439/18/5 437/19/5 433/20/5
f 440/21/6 436/22/6 434/23/6 438/24/6
f 441/1/223 442/2/223 444/3/223 443/4/223
f 443/5/224 444/6/224 448/7/224 447/8/224
f 447/9/225 448/10/225 446/11/225 445/12/225
f 445/13/226 446/14/226 442/15/226 441/16/226
f 443/17/5 447/18/5 445/19/5 441/20/5
f 448/21/6 444/22/6 442/23/6 446/24/6
f 449/1/227 450/2/227 452/3/227 451/4/227
f 451/5/228 452/6/228 456/7/228 455/8/228
f 455/9/229 456/10/229 454/11/229 453/12/229
f 453/13/230 454/14/230 450/15/230 449/16/230
f 451/17/5 455/18/5 453/19/5 449/20/5
f 456/21/6 452/22/6 450/23/6 454/24/6
f 457/1/231 458/2/231 460/3/231 459/4/231
f 459/5/232 460/6/232 464/7/232 463/8/232
f 463/9/233 464/10/233 462/11/233 461/12/233
f 461/13/234 462/14/234 458/15/234 457/16/234
f 459/17/5 463/18/5 461/19/5 457/20/5
f 464/21/6 460/22/6 458/23/6 462/24/6
f 465/1/235 466/2/235 468/3/235 467/4/235
f 467/5/236 468/6/236 472/7/236 471/8/236
f 471/9/237 472/10/237 470/11/237 469/12/237
f 469/13/238 470/14/238 466/15/238 465/16/238
f 467/17/5 471/18/5 469/19/5 465/20/5
f 472/21/6 468/22/6 466/23/6 470/24/6
f 473/1/239 474/2/239 476/3/239 475/4/239
f 475/5/240 476/6/240 480/7/240 479/8/240
f 479/9/241 480/10/241 478/11/241 477/12/241
f 477/13/242 478/14/242 474/15/242 473/16/242
f 475/17/5 479/18/5 477/19/5 473/20/5
f 480/21/6 476/22/6 474/23/6 478/24/6
f 481/1/243 482/2/243 484/3/243 483/4/243
f 483/5/244 484/6/244 488/7/244 487/8/244
f 487/9/245 488/10/245 486/11/245 485/12/245
f 485/13/246 486/14/246 482/15/246 481/16/246
f 483/17/5 487/18/5 485/19/5 481/20/5
f 488/21/6 484/22/6 482/23/6 486/24/6
f 489/1/247 490/2/247 492/3/247 491/4/247
f 491/5/248 492/6/248 496/7/248 495/8/248
f 495/9/249 496/10/249 494/11/249 493/12/249
f 493/13/250 494/14/250 490/15/250 489/16/250
f 491/17/5 495/18/5 493/19/5 489/20/5
f 496/21/6 492/22/6 490/23/6 494/24/6
f 497/1/251 498/2/251 500/3/251 499/4/251
f 499/5/252 500/6/252 504/7/252 503/8/252
f 503/9/253 504/10/253 502/11/253 501/12/253
f 501/13/254 502/14/254 498/15/254 497/16/254
f 499/17/5 503/18/5 501/19/5 497/20/5
f 504/21/6 500/22/6 498/23/6 502/24/6
f 505/1/255 506/2/255 508/3/255 507/4/255
f 507/5/256 508/6/256 512/7/256 511/8/256
f 511/9/257 512/10/257 510/11/257 509/12/257
f 509/13/258 510/14/258 506/15/258 505/16/258
f 507/17/5 511/18/5 509/19/5 505/20/5
f 512/21/6 508/22/6 506/23/6 510/24/6
f 513/1/259 514/2/259 516/3/259 515/4/259
f 515/5/260 516/6/260 520/7/260 519/8/260
f 519/9/261 520/10/261 518/11/261 517/12/261
f 517/13/262 518/14/262 514/15/262 513/16/262
f 515/17/5 519/18/5 517/19/5 513/20/5
f 520/21/6 516/22/6 514/23/6 518/24/6
f 521/1/263 522/2/263 524/3/263 523/4/263
f 523/5/264 524/6/264 528/7/264 527/8/264
f 527/9/265 528/10/265 526/11/265 525/12/265
f 525/13/266 526/14/266 522/15/266 521/16/266
f 523/17/5 527/18/5 525/19/5 521/20/5
f 528/21/6 524/22/6 522/23/6 526/24/6
f 529/1/267 530/2/267 532/3/267 531/4/267
f 531/5/268 532/6/268 536/7/268 535/8/268
f 535/9/269 536/10/269 534/11/269 533/12/269
f 533/13/270 534/14/270 530/15/270 529/16/270
f 531/17/5 535/18/5 533/19/5 529/20/5
f 536/21/6 532/22/6 530/23/6 534/24/6
f 537/1/271 538/2/271 540/3/271 539/4/271
f 539/5/272 540/6/272 544/7/272 543/8/272
f 543/9/273 544/10/273 542/11/273 541/12/273
f 541/13/274 542/14/274 538/15/274 537/16/274
f 539/17/5 543/18/5 541/19/5 537/20/5
f 544/21/6 540/22/6 538/23/6 542/24/6
f 545/1/275 546/2/275 548/3/275 547/4/275
f 547/5/276 548/6/276 552/7/276 551/8/276
f 551/9/277 552/10/277 550/11/277 549/12/277
f 549/13/278 550/14/278 546/15/278 545/16/278
f 547/17/5 551/18/5 549/19/5 545/20/5
f 552/21/6 548/22/6 546/23/6 550/24/6
f 553/1/279 554/2/279 556/3/279 555/4/279
f 555/5/280 556/6/280 560/7/280 559/8/280
f 559/9/281 560/10/281 558/11/281 557/12/281
f 557/13/282 558/14/282 554/15/282 553/16/282
f 555/17/5 559/18/5 557/19/5 553/20/5
f 560/21/6 556/22/6 554/23/6 558/24/6
f 561/1/283 562/2/283 564/3/283 563/4/283
f 563/5/284 564/6/284 568/7/284 567/8/284
f 567/9/285 568/10/285 566/11/285 565/12/285
f 565/13/286 566/14/286 562/15/286 561/16/286
f 563/17/5 567/18/5 565/19/5 561/20/5
f 568/21/6 564/22/6 562/23/6 566/24/6
f 569/1/287 570/2/287 572/3/287 571/4/287
f 571/5/288 572/6/288 576/7/288 575/8/288
f 575/9/289 576/10/289 574/11/289 573/12/289
f 573/13/290 574/14/290 570/15/290 569/16/290
f 571/17/5 575/18/5 573/19/5 569/20/5
f 576/21/6 572/22/6 570/23/6 574/24/6
f 577/1/291 578/2/291 580/3/291 579/4/291
f 579/5/292 580/6/292 584/7/292 583/8/292
f 583/9/293 584/10/293 582/11/293 581/12/293
f 581/13/294 582/14/294 578/15/294 577/16/294
f 579/17/5 583/18/5 581/19/5 577/20/5
f 584/21/6 580/22/6 578/23/6 582/24/6
f 585/1/295 586/2/295 588/3/295 587/4/295
f 587/5/296 588/6/296 592/7/296 591/8/296
f 591/9/297 592/10/297 590/11/297 589/12/297
f 589/13/298 590/14/298 586/15/298 585/16/298
f 587/17/5 591/18/5 589/19/5 585/20/5
f 592/21/6 588/22/6 586/23/6 590/24/6
f 593/1/299 594/2/299 596/3/299 595/4/299
f 595/5/300 596/6/300 600/7/300 599/8/300
f 599/9/301 600/10/301 598/11/301 597/12/301
f 597/13/302 598/14/302 594/15/302 593/16/302
f 595/17/5 599/18/5 597/19/5 593/20/5
f 600/21/6 596/22/6 594/23/6 598/24/6
f 601/1/303 602/2/303 604/3/303 603/4/303
f 603/5/304 604/6/304 608/7/304 607/8/304
f 607/9/305 608/10/305 606/11/305 605/12/305
f 605/13/306 606/14/306 602/15/306 601/16/306
f 603/17/5 607/18/5 605/19/5 601/20/5
f 608/21/6 604/22/6 602/23/6 606/24/6
f 609/1/307 610/2/307 612/3/307 611/4/307
f 611/5/308 612/6/308 616/7/308 615/8/308
f 615/9/309 616/10/309 614/11/309 613/12/309
f 613/13/310 614/14/310 610/15/310 609/16/310
f 611/17/5 615/18/5 613/19/5 609/20/5
f 616/21/6 612/22/6 610/23/6 614/24/6
f 617/1/311 618/2/311 620/3/311 619/4/311
f 619/5/312 620/6/312 624/7/312 623/8/312
f 623/9/313 624/10/313 622/11/313 621/12/313
f 621/13/314 622/14/314 618/15/314 617/16/314
f 619/17/5 623/18/5 621/19/5 617/20/5
f 624/21/6 620/22/6 618/23/6 622/24/6
f 625/1/315 626/2/315 628/3/315 627/4/315
f 627/5/316 628/6/316 632/7/316 631/8/316
f 631/9/317 632/10/317 630/11/317 629/12/317
f 629/13/318 630/14/318 626/15/318 625/16/318
f 627/17/5 631/18/5 629/19/5 625/20/5
f 632/21/6 628/22/6 626/23/6 630/24/6
f 633/1/319 634/2/319 636/3/319 635/4/319
f 635/5/320 636/6/320 640/7/320 639/8/320
f 639/9/321 640/10/321 638/11/321 637/12/321
f 637/13/322 638/14/322 634/15/322 633/16/322
f 635/17/5 639/18/5 637/19/5 633/20/5
f 640/21/6 636/22/6 634/23/6 638/24/6
f 641/1/323 642/2/323 644/3/323 643/4/323
f 643/5/324 644/6/324 648/7/324 647/8/324
f 647/9/325 648/10/325 646/11/325 645/12/325
f 645/13/326 646/14/326 642/15/326 641/16/326
f 643/17/5 647/18/5 645/19/5 641/20/5
f 648/21/6 644/22/6 642/23/6 646/24/6
f 649/1/327 650/2/327 652/3/327 651/4/327
f 651/5/328 652/6/328 656/7/328 655/8/328
f 655/9/329 656/10/329 654/11/329 653/12/329
f 653/13/330 654/14/330 650/15/330 649/16/330
f 651/17/5 655/18/5 653/19/5 649/20/5
f 656/21/6 652/22/6 650/23/6 654/24/6
f 657/1/331 658/2/331 660/3/331 659/4/331
f 659/5/332 660/6/332 664/7/332 663/8/332
f 663/9/333 664/10/333 662/11/333 661/12/333
f 661/13/334 662/14/334 658/15/334 657/16/334
f 659/17/5 663/18/5 661/19/5 657/20/5
f 664/21/6 660/22/6 658/23/6 662/24/6
f 665/1/335 666/2/335 668/3/335 667/4/335
f 667/5/336 668/6/336 672/7/336 671/8/336
f 671/9/337 672/10/337 670/11/337 669/12/337
f 669/13/338 670/14/338 666/15/338 665/16/338
f 667/17/5 671/18/5 669/19/5 665/20/5
f 672/21/6 668/22/6 666/23/6 670/24/6
f 673/1/339 674/2/339 676/3/339 675/4/339
f 675/5/340 676/6/340 680/7/340 679/8/340
f 679/9/341 680/10/341 678/11/341 677/12/341
f 677/13/342 678/14/342 674/15/342 673/16/342
f 675/17/5 679/18/5 677/19/5 673/20/5
f 680/21/6 676/22/6 674/23/6 678/24/6
f 681/1/343 682/2/343 684/3/343 683/4/343
f 683/5/344 684/6/344 688/7/344 687/8/344
f 687/9/345 688/10/345 686/11/345 685/12/345
f 685/13/346 686/14/346 682/15/346 681/16/346
f 683/17/5 687/18/5 685/19/5 681/20/5
f 688/21/6 684/22/6 682/23/6 686/24/6
f 689/1/347 690/2/347 692/3/347 691/4/347
f 691/5/348 692/6/348 696/7/348 695/8/348
f 695/9/349 696/10/349 694/11/349 693/12/349
f 693/13/350 694/14/350 690/15/350 689/16/350
f 691/17/5 695/18/5 693/19/5 689/20/5
f 696/21/6 692/22/6 690/23/6 694/24/6
f 697/1/351 698/2/351 700/3/351 699/4/351
f 699/5/352 700/6/352 704/7/352 703/8/352
f 703/9/353 704/10/353 702/11/353 701/12/353
f 701/13/354 702/14/354 698/15/354 697/16/354
f 699/17/5 703/18/5 701/19/5 697/20/5
f 704/21/6 700/22/6 698/23/6 702/24/6
f 705/1/355 706/2/355 708/3/355 707/4/355
f 707/5/356 708/6/356 712/7/356 711/8/356
f 711/9/357 712/10/357 710/11/357 709/12/357
f 709/13/358 710/14/358 706/15/358 705/16/358
f 707/17/5 711/18/5 709/19/5 705/20/5
f 712/21/6 708/22/6 706/23/6 710/24/6
f 713/1/359 714/2/359 716/3/359 715/4/359
f 715/5/360 716/6/360 720/7/360 719/8/360
f 719/9/361 720/10/361 718/11/361 717/12/361
f 717/13/362 718/14/362 714/15/362 713/16/362
f 715/17/5 719/18/5 717/19/5 713/20/5
f 720/21/6 716/22/6 714/23/6 718/24/6
f 721/1/363 722/2/363 724/3/363 723/4/363
f 723/5/364 724/6/364 728/7/364 727/8/364
f 727/9/361 728/10/361 726/11/361 725/12/361
f 725/13/365 726/14/365 722/15/365 721/16/365
f 723/17/5 727/18/5 725/19/5 721/20/5
f 728/21/6 724/22/6 722/23/6 726/24/6
f 729/1/363 730/2/363 732/3/363 731/4/363
f 731/5/364 732/6/364 736/7/364 735/8/364
f 735/9/361 736/10/361 734/11/361 733/12/361
f 733/13/366 734/14/366 730/15/366 729/16/366
f 731/17/5 735/18/5 733/19/5 729/20/5
f 736/21/6 732/22/6 730/23/6 734/24/6
o NurbsPath
v -68.581238 -0.000013 -4.696270
v -68.290085 -0.000013 -14.683870
v -66.686821 -0.000013 -22.710432
v -64.040718 -0.000013 -29.013220
v -60.597336 -0.000013 -33.814114
v -56.578541 -0.000013 -37.319561
v -52.182426 -0.000013 -39.720604
v -47.583378 -0.000013 -41.192867
v -42.932064 -0.000013 -41.896572
v -38.355412 -0.000013 -41.976532
v -33.956608 -0.000013 -41.562122
v -29.815130 -0.000013 -40.767338
v -25.986713 -0.000013 -39.690735
v -22.503380 -0.000013 -38.415474
v -19.373417 -0.000013 -37.009296
v -16.581369 -0.000013 -35.524532
v -14.088607 -0.000013 -33.998356
v -11.843549 -0.000013 -32.457634
v -9.796943 -0.000013 -30.926155
v -7.904171 -0.000013 -29.425726
v -6.125234 -0.000013 -27.976179
v -4.424769 -0.000013 -26.595345
v -2.772033 -0.000013 -25.299076
v -1.140919 -0.000013 -24.101242
v 0.490066 -0.000013 -23.013723
v 2.137769 -0.000013 -22.046415
v 3.814422 -0.000013 -21.207233
v 5.527627 -0.000013 -20.502100
v 7.280362 -0.000013 -19.934965
v 9.070965 -0.000013 -19.507769
v 10.893160 -0.000013 -19.220493
v 12.736077 -0.000013 -19.071133
v 14.586059 -0.000013 -19.056026
v 16.430538 -0.000013 -19.170605
v 18.259029 -0.000013 -19.409552
v 20.063131 -0.000013 -19.766802
v 21.836477 -0.000013 -20.235546
v 23.574804 -0.000013 -20.808245
v 25.275894 -0.000013 -21.476603
v 26.939604 -0.000013 -22.231575
v 28.567867 -0.000013 -23.063391
v 30.164679 -0.000013 -23.961521
v 31.736101 -0.000013 -24.914694
v 33.290279 -0.000013 -25.910902
v 34.837406 -0.000013 -26.937391
v 36.389763 -0.000013 -27.980658
v 37.961666 -0.000013 -29.026461
v 39.568733 -0.000013 -30.060108
v 41.225101 -0.000013 -31.067396
v 42.942474 -0.000013 -32.034973
v 44.730145 -0.000013 -32.950336
v 46.594902 -0.000013 -33.801861
v 48.541149 -0.000013 -34.578754
v 50.570759 -0.000013 -35.271069
v 52.683243 -0.000013 -35.869743
v 54.875587 -0.000013 -36.366539
v 57.142384 -0.000013 -36.754101
v 59.475735 -0.000013 -37.025906
v 61.865326 -0.000013 -37.176304
v 64.298355 -0.000013 -37.200470
v 66.759621 -0.000013 -37.094467
v 69.231422 -0.000013 -36.855194
v 71.694046 -0.000013 -36.480385
v 74.128082 -0.000013 -35.968506
v 76.515480 -0.000013 -35.318657
v 78.839767 -0.000013 -34.530617
v 81.085976 -0.000013 -33.604809
v 83.240669 -0.000013 -32.542332
v 85.291901 -0.000013 -31.344904
v 87.229256 -0.000013 -30.014927
v 89.043839 -0.000013 -28.555464
v 90.728226 -0.000013 -26.970217
v 92.276604 -0.000013 -25.263544
v 93.684555 -0.000013 -23.440462
v 94.949295 -0.000013 -21.506660
v 96.069435 -0.000013 -19.468473
v 97.045258 -0.000013 -17.332876
v 97.878304 -0.000013 -15.107501
v 98.570801 -0.000013 -12.800536
v 99.124855 -0.000013 -10.420625
v 99.542488 -0.000013 -7.976834
v 99.825546 -0.000013 -5.478721
v 99.975769 -0.000013 -2.936292
v 99.994751 -0.000013 -0.360000
v 99.883980 -0.000013 2.239224
v 99.644791 -0.000013 4.850051
v 99.278404 -0.000013 7.460641
v 98.785942 -0.000013 10.058717
v 98.168297 -0.000013 12.631532
v 97.426353 -0.000013 15.165936
v 96.560768 -0.000013 17.648270
v 95.572182 -0.000013 20.064440
v 94.460999 -0.000013 22.399933
v 93.228058 -0.000013 24.640627
v 91.875084 -0.000013 26.773619
v 90.404747 -0.000013 28.787382
v 88.820702 -0.000013 30.671778
v 87.127548 -0.000013 32.418011
v 85.330841 -0.000013 34.018700
v 83.437096 -0.000013 35.467777
v 81.453796 -0.000013 36.760597
v 79.389412 -0.000013 37.893829
v 77.253311 -0.000013 38.865578
v 75.055878 -0.000013 39.675255
v 72.808426 -0.000013 40.323689
v 70.523270 -0.000013 40.813038
v 68.213608 -0.000013 41.146862
v 65.893661 -0.000013 41.330078
v 63.577682 -0.000013 41.368710
v 61.278584 -0.000013 41.269474
v 59.007553 -0.000013 41.039684
v 56.774120 -0.000013 40.687271
v 54.586159 -0.000013 40.220764
v 52.449837 -0.000013 39.649292
v 50.369652 -0.000013 38.982586
v 48.348404 -0.000013 38.230976
v 46.387241 -0.000013 37.405411
v 44.485622 -0.000013 36.517429
v 42.641342 -0.000013 35.579185
v 40.850468 -0.000013 34.603409
v 39.107445 -0.000013 33.603462
v 37.405010 -0.000013 32.593307
v 35.734238 -0.000013 31.587484
v 34.085178 -0.000013 30.600790
v 32.448582 -0.000013 29.647263
v 30.816370 -0.000013 28.739868
v 29.181715 -0.000013 27.890545
v 27.539011 -0.000013 27.110180
v 25.883863 -0.000013 26.408611
v 24.213076 -0.000013 25.794611
v 22.524694 -0.000013 25.275913
v 20.817963 -0.000013 24.859196
v 19.093357 -0.000013 24.550095
v 17.352581 -0.000013 24.353182
v 15.598487 -0.000013 24.271978
v 13.835218 -0.000013 24.308973
v 12.068107 -0.000013 24.465582
v 10.303704 -0.000013 24.742182
v 8.549120 -0.000013 25.137974
v 6.809297 -0.000013 25.650486
v 5.085789 -0.000013 26.275328
v 3.376749 -0.000013 27.006187
v 1.676830 -0.000013 27.834879
v -0.022665 -0.000013 28.751272
v -1.733876 -0.000013 29.743330
v -3.472378 -0.000013 30.797096
v -5.257164 -0.000013 31.896721
v -7.110648 -0.000013 33.024418
v -9.058674 -0.000013 34.160496
v -11.130509 -0.000013 35.283363
v -13.358811 -0.000013 36.369488
v -15.779761 -0.000013 37.393475
v -18.432865 -0.000013 38.327961
v -21.359068 -0.000013 39.143318
v -24.587368 -0.000013 39.805027
v -28.125826 -0.000013 40.271999
v -31.961092 -0.000013 40.496449
v -36.058407 -0.000013 40.423931
v -40.361553 -0.000013 39.993286
v -44.793091 -0.000013 39.136703
v -49.254005 -0.000013 37.779682
v -53.623913 -0.000013 35.841022
v -57.761047 -0.000013 33.232872
v -61.502239 -0.000013 29.860689
v -64.662880 -0.000013 25.623230
v -67.037010 -0.000013 20.412600
v -68.397232 -0.000013 14.114204
v -68.494743 -0.000013 6.606890
l 737 738
l 738 739
l 739 740
l 740 741
l 741 742
l 742 743
l 743 744
l 744 745
l 745 746
l 746 747
l 747 748
l 748 749
l 749 750
l 750 751
l 751 752
l 752 753
l 753 754
l 754 755
l 755 756
l 756 757
l 757 758
l 758 759
l 759 760
l 760 761
l 761 762
l 762 763
l 763 764
l 764 765
l 765 766
l 766 767
l 767 768
l 768 769
l 769 770
l 770 771
l 771 772
l 772 773
l 773 774
l 774 775
l 775 776
l 776 777
l 777 778
l 778 779
l 779 780
l 780 781
l 781 782
l 782 783
l 783 784
l 784 785
l 785 786
l 786 787
l 787 788
l 788 789
l 789 790
l 790 791
l 791 792
l 792 793
l 793 794
l 794 795
l 795 796
l 796 797
l 797 798
l 798 799
l 799 800
l 800 801
l 801 802
l 802 803
l 803 804
l 804 805
l 805 806
l 806 807
l 807 808
l 808 809
l 809 810
l 810 811
l 811 812
l 812 813
l 813 814
l 814 815
l 815 816
l 816 817
l 817 818
l 818 819
l 819 820
l 820 821
l 821 822
l 822 823
l 823 824
l 824 825
l 825 826
l 826 827
l 827 828
l 828 829
l 829 830
l 830 831
l 831 832
l 832 833
l 833 834
l 834 835
l 835 836
l 836 837
l 837 838
l 838 839
l 839 840
l 840 841
l 841 842
l 842 843
l 843 844
l 844 845
l 845 846
l 846 847
l 847 848
l 848 849
l 849 850
l 850 851
l 851 852
l 852 853
l 853 854
l 854 855
l 855 856
l 856 857
l 857 858
l 858 859
l 859 860
l 860 861
l 861 862
l 862 863
l 863 864
l 864 865
l 865 866
l 866 867
l 867 868
l 868 869
l 869 870
l 870 871
l 871 872
l 872 873
l 873 874
l 874 875
l 875 876
l 876 877
l 877 878
l 878 879
l 879 880
l 880 881
l 881 882
l 882 883
l 883 884
l 884 885
l 885 886
l 886 887
l 887 888
l 888 889
l 889 890
l 890 891
l 891 892
l 892 893
l 893 894
l 894 895
l 895 896
l 896 897
l 897 898
l 898 899
l 899 900
l 900 901
l 901 902
l 902 903
l 903 904
